<svg xmlns="http://www.w3.org/2000/svg" xmlns:xlink="http://www.w3.org/1999/xlink" width="2000" zoomAndPan="magnify" viewBox="0 0 1500 749.999995" height="1000" preserveAspectRatio="xMidYMid meet" version="1.0"><defs><g/><clipPath id="c7ef5dcae8"><path d="M 99 0.320312 L 229 0.320312 L 229 151 L 99 151 Z M 99 0.320312 " clip-rule="nonzero"/></clipPath><clipPath id="3860cfb6cb"><path d="M 283 0.320312 L 413 0.320312 L 413 151 L 283 151 Z M 283 0.320312 " clip-rule="nonzero"/></clipPath><clipPath id="03af51c6d6"><path d="M 458 0.320312 L 610 0.320312 L 610 151 L 458 151 Z M 458 0.320312 " clip-rule="nonzero"/></clipPath><clipPath id="e8647ac105"><path d="M 779 0.320312 L 918 0.320312 L 918 149 L 779 149 Z M 779 0.320312 " clip-rule="nonzero"/></clipPath><clipPath id="f9e56d3d13"><rect x="0" width="1222" y="0" height="187"/></clipPath><clipPath id="e0287b3d7a"><path d="M 199 0.0390625 L 1317.320312 0.0390625 L 1317.320312 83 L 199 83 Z M 199 0.0390625 " clip-rule="nonzero"/></clipPath><clipPath id="b33068ea86"><rect x="0" width="1119" y="0" height="83"/></clipPath><clipPath id="02a6853dce"><path d="M 70.839844 70 L 135.59375 70 L 135.59375 277.246094 L 70.839844 277.246094 Z M 70.839844 70 " clip-rule="nonzero"/></clipPath><clipPath id="51a74f08b7"><path d="M 205.230469 175.855469 C 205.230469 157.949219 190.714844 143.433594 172.808594 143.433594 L 156.976562 143.433594 C 145.964844 143.433594 137.035156 134.507812 137.035156 123.496094 L 137.035156 104.414062 C 137.035156 85.585938 121.769531 70.316406 102.9375 70.316406 C 84.105469 70.316406 68.839844 85.585938 68.839844 104.414062 L 68.839844 134.058594 C 68.839844 135.675781 66.636719 136.097656 66 134.609375 C 65.984375 134.566406 65.964844 134.523438 65.945312 134.480469 C 60.65625 122.507812 48.675781 114.152344 34.742188 114.152344 C 15.910156 114.152344 0.644531 129.421875 0.644531 148.25 L 0.644531 199.890625 L 0.890625 229.617188 C 0.890625 286.015625 46.613281 331.738281 103.015625 331.738281 C 159.414062 331.738281 205.136719 286.015625 205.136719 229.617188 Z M 205.230469 175.855469 " clip-rule="nonzero"/></clipPath><linearGradient x1="164.001505" gradientTransform="matrix(0.657746, 0, 0, 0.657746, 0.645204, 2.865312)" y1="100.632622" x2="149.156401" gradientUnits="userSpaceOnUse" y2="419.133899" id="99dd52812a"><stop stop-opacity="1" stop-color="rgb(88.62915%, 66.268921%, 94.509888%)" offset="0"/><stop stop-opacity="1" stop-color="rgb(88.676453%, 66.409302%, 94.53125%)" offset="0.0143755"/><stop stop-opacity="1" stop-color="rgb(88.723755%, 66.549683%, 94.554138%)" offset="0.125"/><stop stop-opacity="1" stop-color="rgb(88.777161%, 66.708374%, 94.580078%)" offset="0.132812"/><stop stop-opacity="1" stop-color="rgb(88.883972%, 67.025757%, 94.631958%)" offset="0.140625"/><stop stop-opacity="1" stop-color="rgb(88.990784%, 67.34314%, 94.683838%)" offset="0.148438"/><stop stop-opacity="1" stop-color="rgb(89.099121%, 67.662048%, 94.735718%)" offset="0.15625"/><stop stop-opacity="1" stop-color="rgb(89.205933%, 67.979431%, 94.787598%)" offset="0.164062"/><stop stop-opacity="1" stop-color="rgb(89.312744%, 68.29834%, 94.839478%)" offset="0.171875"/><stop stop-opacity="1" stop-color="rgb(89.419556%, 68.615723%, 94.891357%)" offset="0.179687"/><stop stop-opacity="1" stop-color="rgb(89.527893%, 68.933105%, 94.943237%)" offset="0.1875"/><stop stop-opacity="1" stop-color="rgb(89.634705%, 69.252014%, 94.995117%)" offset="0.195312"/><stop stop-opacity="1" stop-color="rgb(89.741516%, 69.569397%, 95.046997%)" offset="0.203125"/><stop stop-opacity="1" stop-color="rgb(89.848328%, 69.88678%, 95.097351%)" offset="0.210937"/><stop stop-opacity="1" stop-color="rgb(89.956665%, 70.205688%, 95.149231%)" offset="0.21875"/><stop stop-opacity="1" stop-color="rgb(90.063477%, 70.523071%, 95.201111%)" offset="0.226562"/><stop stop-opacity="1" stop-color="rgb(90.170288%, 70.840454%, 95.252991%)" offset="0.234375"/><stop stop-opacity="1" stop-color="rgb(90.2771%, 71.159363%, 95.304871%)" offset="0.242188"/><stop stop-opacity="1" stop-color="rgb(90.383911%, 71.476746%, 95.35675%)" offset="0.25"/><stop stop-opacity="1" stop-color="rgb(90.492249%, 71.795654%, 95.40863%)" offset="0.257812"/><stop stop-opacity="1" stop-color="rgb(90.59906%, 72.113037%, 95.46051%)" offset="0.265625"/><stop stop-opacity="1" stop-color="rgb(90.705872%, 72.43042%, 95.51239%)" offset="0.273438"/><stop stop-opacity="1" stop-color="rgb(90.812683%, 72.749329%, 95.56427%)" offset="0.28125"/><stop stop-opacity="1" stop-color="rgb(90.921021%, 73.066711%, 95.61615%)" offset="0.289062"/><stop stop-opacity="1" stop-color="rgb(91.027832%, 73.384094%, 95.66803%)" offset="0.296875"/><stop stop-opacity="1" stop-color="rgb(91.134644%, 73.703003%, 95.718384%)" offset="0.304687"/><stop stop-opacity="1" stop-color="rgb(91.241455%, 74.020386%, 95.770264%)" offset="0.3125"/><stop stop-opacity="1" stop-color="rgb(91.349792%, 74.337769%, 95.822144%)" offset="0.320312"/><stop stop-opacity="1" stop-color="rgb(91.456604%, 74.656677%, 95.874023%)" offset="0.328125"/><stop stop-opacity="1" stop-color="rgb(91.563416%, 74.97406%, 95.925903%)" offset="0.335937"/><stop stop-opacity="1" stop-color="rgb(91.670227%, 75.292969%, 95.977783%)" offset="0.34375"/><stop stop-opacity="1" stop-color="rgb(91.778564%, 75.610352%, 96.029663%)" offset="0.351562"/><stop stop-opacity="1" stop-color="rgb(91.885376%, 75.927734%, 96.081543%)" offset="0.359375"/><stop stop-opacity="1" stop-color="rgb(91.992188%, 76.246643%, 96.133423%)" offset="0.367188"/><stop stop-opacity="1" stop-color="rgb(92.098999%, 76.564026%, 96.185303%)" offset="0.375"/><stop stop-opacity="1" stop-color="rgb(92.207336%, 76.881409%, 96.237183%)" offset="0.382812"/><stop stop-opacity="1" stop-color="rgb(92.314148%, 77.200317%, 96.289062%)" offset="0.390625"/><stop stop-opacity="1" stop-color="rgb(92.420959%, 77.5177%, 96.339417%)" offset="0.398438"/><stop stop-opacity="1" stop-color="rgb(92.527771%, 77.835083%, 96.391296%)" offset="0.40625"/><stop stop-opacity="1" stop-color="rgb(92.634583%, 78.153992%, 96.443176%)" offset="0.414062"/><stop stop-opacity="1" stop-color="rgb(92.74292%, 78.471375%, 96.495056%)" offset="0.421875"/><stop stop-opacity="1" stop-color="rgb(92.849731%, 78.790283%, 96.546936%)" offset="0.429688"/><stop stop-opacity="1" stop-color="rgb(92.956543%, 79.107666%, 96.598816%)" offset="0.4375"/><stop stop-opacity="1" stop-color="rgb(93.063354%, 79.425049%, 96.650696%)" offset="0.445312"/><stop stop-opacity="1" stop-color="rgb(93.171692%, 79.743958%, 96.702576%)" offset="0.453125"/><stop stop-opacity="1" stop-color="rgb(93.278503%, 80.06134%, 96.754456%)" offset="0.460938"/><stop stop-opacity="1" stop-color="rgb(93.385315%, 80.378723%, 96.806335%)" offset="0.46875"/><stop stop-opacity="1" stop-color="rgb(93.492126%, 80.697632%, 96.858215%)" offset="0.476563"/><stop stop-opacity="1" stop-color="rgb(93.600464%, 81.015015%, 96.908569%)" offset="0.484375"/><stop stop-opacity="1" stop-color="rgb(93.707275%, 81.332397%, 96.960449%)" offset="0.492187"/><stop stop-opacity="1" stop-color="rgb(93.814087%, 81.651306%, 97.012329%)" offset="0.5"/><stop stop-opacity="1" stop-color="rgb(93.920898%, 81.968689%, 97.064209%)" offset="0.507812"/><stop stop-opacity="1" stop-color="rgb(94.029236%, 82.287598%, 97.116089%)" offset="0.515625"/><stop stop-opacity="1" stop-color="rgb(94.136047%, 82.60498%, 97.167969%)" offset="0.523438"/><stop stop-opacity="1" stop-color="rgb(94.242859%, 82.922363%, 97.219849%)" offset="0.53125"/><stop stop-opacity="1" stop-color="rgb(94.34967%, 83.241272%, 97.271729%)" offset="0.539062"/><stop stop-opacity="1" stop-color="rgb(94.456482%, 83.558655%, 97.323608%)" offset="0.546875"/><stop stop-opacity="1" stop-color="rgb(94.564819%, 83.876038%, 97.375488%)" offset="0.554688"/><stop stop-opacity="1" stop-color="rgb(94.671631%, 84.194946%, 97.427368%)" offset="0.5625"/><stop stop-opacity="1" stop-color="rgb(94.778442%, 84.512329%, 97.479248%)" offset="0.570312"/><stop stop-opacity="1" stop-color="rgb(94.885254%, 84.829712%, 97.529602%)" offset="0.578125"/><stop stop-opacity="1" stop-color="rgb(94.993591%, 85.148621%, 97.581482%)" offset="0.585938"/><stop stop-opacity="1" stop-color="rgb(95.100403%, 85.466003%, 97.633362%)" offset="0.59375"/><stop stop-opacity="1" stop-color="rgb(95.207214%, 85.784912%, 97.685242%)" offset="0.601562"/><stop stop-opacity="1" stop-color="rgb(95.314026%, 86.102295%, 97.737122%)" offset="0.609375"/><stop stop-opacity="1" stop-color="rgb(95.422363%, 86.419678%, 97.789001%)" offset="0.617188"/><stop stop-opacity="1" stop-color="rgb(95.529175%, 86.738586%, 97.840881%)" offset="0.625"/><stop stop-opacity="1" stop-color="rgb(95.635986%, 87.055969%, 97.892761%)" offset="0.632812"/><stop stop-opacity="1" stop-color="rgb(95.742798%, 87.373352%, 97.944641%)" offset="0.640625"/><stop stop-opacity="1" stop-color="rgb(95.851135%, 87.692261%, 97.996521%)" offset="0.648437"/><stop stop-opacity="1" stop-color="rgb(95.957947%, 88.009644%, 98.048401%)" offset="0.65625"/><stop stop-opacity="1" stop-color="rgb(96.064758%, 88.327026%, 98.100281%)" offset="0.664062"/><stop stop-opacity="1" stop-color="rgb(96.17157%, 88.645935%, 98.150635%)" offset="0.671875"/><stop stop-opacity="1" stop-color="rgb(96.279907%, 88.963318%, 98.202515%)" offset="0.679687"/><stop stop-opacity="1" stop-color="rgb(96.386719%, 89.282227%, 98.254395%)" offset="0.6875"/><stop stop-opacity="1" stop-color="rgb(96.49353%, 89.599609%, 98.306274%)" offset="0.695312"/><stop stop-opacity="1" stop-color="rgb(96.600342%, 89.916992%, 98.358154%)" offset="0.703125"/><stop stop-opacity="1" stop-color="rgb(96.707153%, 90.235901%, 98.410034%)" offset="0.710937"/><stop stop-opacity="1" stop-color="rgb(96.815491%, 90.553284%, 98.461914%)" offset="0.71875"/><stop stop-opacity="1" stop-color="rgb(96.922302%, 90.870667%, 98.513794%)" offset="0.726562"/><stop stop-opacity="1" stop-color="rgb(97.029114%, 91.189575%, 98.565674%)" offset="0.734375"/><stop stop-opacity="1" stop-color="rgb(97.135925%, 91.506958%, 98.617554%)" offset="0.742187"/><stop stop-opacity="1" stop-color="rgb(97.244263%, 91.824341%, 98.669434%)" offset="0.75"/><stop stop-opacity="1" stop-color="rgb(97.351074%, 92.14325%, 98.719788%)" offset="0.757812"/><stop stop-opacity="1" stop-color="rgb(97.457886%, 92.460632%, 98.771667%)" offset="0.765625"/><stop stop-opacity="1" stop-color="rgb(97.564697%, 92.779541%, 98.823547%)" offset="0.773437"/><stop stop-opacity="1" stop-color="rgb(97.673035%, 93.096924%, 98.875427%)" offset="0.78125"/><stop stop-opacity="1" stop-color="rgb(97.779846%, 93.414307%, 98.927307%)" offset="0.789062"/><stop stop-opacity="1" stop-color="rgb(97.886658%, 93.733215%, 98.979187%)" offset="0.796875"/><stop stop-opacity="1" stop-color="rgb(97.993469%, 94.050598%, 99.031067%)" offset="0.804687"/><stop stop-opacity="1" stop-color="rgb(98.101807%, 94.367981%, 99.082947%)" offset="0.8125"/><stop stop-opacity="1" stop-color="rgb(98.208618%, 94.68689%, 99.134827%)" offset="0.820312"/><stop stop-opacity="1" stop-color="rgb(98.31543%, 95.004272%, 99.186707%)" offset="0.828125"/><stop stop-opacity="1" stop-color="rgb(98.422241%, 95.321655%, 99.238586%)" offset="0.835938"/><stop stop-opacity="1" stop-color="rgb(98.529053%, 95.640564%, 99.290466%)" offset="0.84375"/><stop stop-opacity="1" stop-color="rgb(98.63739%, 95.957947%, 99.34082%)" offset="0.851562"/><stop stop-opacity="1" stop-color="rgb(98.744202%, 96.276855%, 99.3927%)" offset="0.859375"/><stop stop-opacity="1" stop-color="rgb(98.851013%, 96.594238%, 99.44458%)" offset="0.867188"/><stop stop-opacity="1" stop-color="rgb(98.957825%, 96.911621%, 99.49646%)" offset="0.875"/><stop stop-opacity="1" stop-color="rgb(99.066162%, 97.23053%, 99.54834%)" offset="0.882812"/><stop stop-opacity="1" stop-color="rgb(99.172974%, 97.547913%, 99.60022%)" offset="0.890625"/><stop stop-opacity="1" stop-color="rgb(99.279785%, 97.865295%, 99.6521%)" offset="0.898437"/><stop stop-opacity="1" stop-color="rgb(99.386597%, 98.184204%, 99.703979%)" offset="0.90625"/><stop stop-opacity="1" stop-color="rgb(99.494934%, 98.501587%, 99.755859%)" offset="0.914062"/><stop stop-opacity="1" stop-color="rgb(99.601746%, 98.81897%, 99.807739%)" offset="0.921875"/><stop stop-opacity="1" stop-color="rgb(99.708557%, 99.137878%, 99.859619%)" offset="0.929687"/><stop stop-opacity="1" stop-color="rgb(99.815369%, 99.455261%, 99.909973%)" offset="0.9375"/><stop stop-opacity="1" stop-color="rgb(99.934387%, 99.807739%, 99.967957%)" offset="0.985624"/><stop stop-opacity="1" stop-color="rgb(100%, 100%, 100%)" offset="1"/></linearGradient><clipPath id="ddb10c63e6"><path d="M 75 2.816406 L 131 2.816406 L 131 59 L 75 59 Z M 75 2.816406 " clip-rule="nonzero"/></clipPath><clipPath id="e869cb1a24"><path d="M 130.683594 30.636719 C 130.683594 31.546875 130.640625 32.457031 130.550781 33.359375 C 130.460938 34.265625 130.328125 35.164062 130.152344 36.058594 C 129.972656 36.949219 129.753906 37.832031 129.488281 38.699219 C 129.226562 39.570312 128.917969 40.425781 128.570312 41.265625 C 128.222656 42.105469 127.835938 42.929688 127.40625 43.730469 C 126.976562 44.53125 126.507812 45.3125 126.003906 46.070312 C 125.5 46.824219 124.957031 47.554688 124.378906 48.257812 C 123.804688 48.960938 123.195312 49.632812 122.550781 50.277344 C 121.90625 50.921875 121.234375 51.53125 120.53125 52.109375 C 119.828125 52.683594 119.097656 53.226562 118.339844 53.730469 C 117.585938 54.238281 116.804688 54.703125 116.003906 55.132812 C 115.203125 55.5625 114.378906 55.949219 113.539062 56.296875 C 112.699219 56.644531 111.84375 56.953125 110.972656 57.214844 C 110.101562 57.480469 109.222656 57.699219 108.328125 57.878906 C 107.4375 58.054688 106.539062 58.1875 105.632812 58.277344 C 104.730469 58.367188 103.820312 58.410156 102.910156 58.410156 C 102.003906 58.410156 101.09375 58.367188 100.1875 58.277344 C 99.285156 58.1875 98.386719 58.054688 97.492188 57.878906 C 96.601562 57.699219 95.71875 57.480469 94.847656 57.214844 C 93.980469 56.953125 93.125 56.644531 92.28125 56.296875 C 91.441406 55.949219 90.621094 55.5625 89.820312 55.132812 C 89.015625 54.703125 88.238281 54.238281 87.480469 53.730469 C 86.726562 53.226562 85.996094 52.683594 85.292969 52.109375 C 84.589844 51.53125 83.917969 50.921875 83.273438 50.277344 C 82.628906 49.632812 82.019531 48.960938 81.441406 48.257812 C 80.867188 47.554688 80.324219 46.824219 79.820312 46.070312 C 79.3125 45.3125 78.847656 44.53125 78.417969 43.730469 C 77.988281 42.929688 77.601562 42.105469 77.253906 41.265625 C 76.902344 40.425781 76.597656 39.570312 76.335938 38.699219 C 76.070312 37.832031 75.847656 36.949219 75.671875 36.058594 C 75.496094 35.164062 75.359375 34.265625 75.273438 33.359375 C 75.183594 32.457031 75.136719 31.546875 75.136719 30.636719 C 75.136719 29.730469 75.183594 28.820312 75.273438 27.917969 C 75.359375 27.011719 75.496094 26.113281 75.671875 25.21875 C 75.847656 24.328125 76.070312 23.445312 76.335938 22.578125 C 76.597656 21.707031 76.902344 20.851562 77.253906 20.011719 C 77.601562 19.167969 77.988281 18.347656 78.417969 17.546875 C 78.847656 16.746094 79.3125 15.964844 79.820312 15.207031 C 80.324219 14.453125 80.867188 13.722656 81.441406 13.019531 C 82.019531 12.316406 82.628906 11.644531 83.273438 11 C 83.917969 10.355469 84.589844 9.746094 85.292969 9.167969 C 85.996094 8.59375 86.726562 8.050781 87.480469 7.546875 C 88.238281 7.039062 89.015625 6.574219 89.820312 6.144531 C 90.621094 5.714844 91.441406 5.328125 92.28125 4.980469 C 93.125 4.632812 93.980469 4.324219 94.847656 4.0625 C 95.71875 3.796875 96.601562 3.578125 97.492188 3.398438 C 98.386719 3.222656 99.285156 3.089844 100.1875 3 C 101.09375 2.910156 102.003906 2.867188 102.910156 2.867188 C 103.820312 2.867188 104.730469 2.910156 105.632812 3 C 106.539062 3.089844 107.4375 3.222656 108.328125 3.398438 C 109.222656 3.578125 110.101562 3.796875 110.972656 4.0625 C 111.84375 4.324219 112.699219 4.632812 113.539062 4.980469 C 114.378906 5.328125 115.203125 5.714844 116.003906 6.144531 C 116.804688 6.574219 117.585938 7.039062 118.339844 7.546875 C 119.097656 8.050781 119.828125 8.59375 120.53125 9.167969 C 121.234375 9.746094 121.90625 10.355469 122.550781 11 C 123.195312 11.644531 123.804688 12.316406 124.378906 13.019531 C 124.957031 13.722656 125.5 14.453125 126.003906 15.207031 C 126.507812 15.964844 126.976562 16.746094 127.40625 17.546875 C 127.835938 18.347656 128.222656 19.167969 128.570312 20.011719 C 128.917969 20.851562 129.226562 21.707031 129.488281 22.578125 C 129.753906 23.445312 129.972656 24.328125 130.152344 25.21875 C 130.328125 26.113281 130.460938 27.011719 130.550781 27.917969 C 130.640625 28.820312 130.683594 29.730469 130.683594 30.636719 Z M 130.683594 30.636719 " clip-rule="nonzero"/></clipPath><linearGradient x1="54.092003" gradientTransform="matrix(0, 0.657746, -0.657746, 0, 169.614944, -32.713496)" y1="101.411003" x2="138.542" gradientUnits="userSpaceOnUse" y2="101.411003" id="96a7c0a90f"><stop stop-opacity="1" stop-color="rgb(88.62915%, 66.268921%, 94.509888%)" offset="0"/><stop stop-opacity="1" stop-color="rgb(88.62915%, 66.268921%, 94.509888%)" offset="0.25"/><stop stop-opacity="1" stop-color="rgb(88.671875%, 66.395569%, 94.529724%)" offset="0.28125"/><stop stop-opacity="1" stop-color="rgb(88.75885%, 66.653442%, 94.572449%)" offset="0.289062"/><stop stop-opacity="1" stop-color="rgb(88.847351%, 66.917419%, 94.615173%)" offset="0.296875"/><stop stop-opacity="1" stop-color="rgb(88.935852%, 67.181396%, 94.657898%)" offset="0.304687"/><stop stop-opacity="1" stop-color="rgb(89.025879%, 67.443848%, 94.700623%)" offset="0.3125"/><stop stop-opacity="1" stop-color="rgb(89.11438%, 67.707825%, 94.743347%)" offset="0.320312"/><stop stop-opacity="1" stop-color="rgb(89.202881%, 67.971802%, 94.786072%)" offset="0.328125"/><stop stop-opacity="1" stop-color="rgb(89.291382%, 68.234253%, 94.828796%)" offset="0.335937"/><stop stop-opacity="1" stop-color="rgb(89.381409%, 68.49823%, 94.871521%)" offset="0.34375"/><stop stop-opacity="1" stop-color="rgb(89.46991%, 68.762207%, 94.914246%)" offset="0.351562"/><stop stop-opacity="1" stop-color="rgb(89.558411%, 69.026184%, 94.958496%)" offset="0.359375"/><stop stop-opacity="1" stop-color="rgb(89.646912%, 69.288635%, 95.001221%)" offset="0.367187"/><stop stop-opacity="1" stop-color="rgb(89.735413%, 69.552612%, 95.043945%)" offset="0.375"/><stop stop-opacity="1" stop-color="rgb(89.825439%, 69.816589%, 95.08667%)" offset="0.382812"/><stop stop-opacity="1" stop-color="rgb(89.91394%, 70.079041%, 95.129395%)" offset="0.390625"/><stop stop-opacity="1" stop-color="rgb(90.002441%, 70.343018%, 95.172119%)" offset="0.398437"/><stop stop-opacity="1" stop-color="rgb(90.090942%, 70.606995%, 95.214844%)" offset="0.40625"/><stop stop-opacity="1" stop-color="rgb(90.179443%, 70.869446%, 95.257568%)" offset="0.414062"/><stop stop-opacity="1" stop-color="rgb(90.26947%, 71.133423%, 95.300293%)" offset="0.421875"/><stop stop-opacity="1" stop-color="rgb(90.357971%, 71.3974%, 95.344543%)" offset="0.429687"/><stop stop-opacity="1" stop-color="rgb(90.446472%, 71.661377%, 95.387268%)" offset="0.4375"/><stop stop-opacity="1" stop-color="rgb(90.534973%, 71.923828%, 95.429993%)" offset="0.445312"/><stop stop-opacity="1" stop-color="rgb(90.625%, 72.187805%, 95.472717%)" offset="0.453125"/><stop stop-opacity="1" stop-color="rgb(90.713501%, 72.451782%, 95.515442%)" offset="0.460937"/><stop stop-opacity="1" stop-color="rgb(90.802002%, 72.714233%, 95.558167%)" offset="0.46875"/><stop stop-opacity="1" stop-color="rgb(90.890503%, 72.97821%, 95.600891%)" offset="0.476562"/><stop stop-opacity="1" stop-color="rgb(90.979004%, 73.242188%, 95.643616%)" offset="0.484375"/><stop stop-opacity="1" stop-color="rgb(91.069031%, 73.504639%, 95.68634%)" offset="0.492187"/><stop stop-opacity="1" stop-color="rgb(91.157532%, 73.768616%, 95.730591%)" offset="0.5"/><stop stop-opacity="1" stop-color="rgb(91.246033%, 74.032593%, 95.773315%)" offset="0.507812"/><stop stop-opacity="1" stop-color="rgb(91.334534%, 74.295044%, 95.81604%)" offset="0.515625"/><stop stop-opacity="1" stop-color="rgb(91.423035%, 74.559021%, 95.858765%)" offset="0.523438"/><stop stop-opacity="1" stop-color="rgb(91.513062%, 74.822998%, 95.901489%)" offset="0.53125"/><stop stop-opacity="1" stop-color="rgb(91.601562%, 75.086975%, 95.944214%)" offset="0.539062"/><stop stop-opacity="1" stop-color="rgb(91.690063%, 75.349426%, 95.986938%)" offset="0.546875"/><stop stop-opacity="1" stop-color="rgb(91.778564%, 75.613403%, 96.029663%)" offset="0.554687"/><stop stop-opacity="1" stop-color="rgb(91.868591%, 75.87738%, 96.072388%)" offset="0.5625"/><stop stop-opacity="1" stop-color="rgb(91.957092%, 76.139832%, 96.116638%)" offset="0.570312"/><stop stop-opacity="1" stop-color="rgb(92.045593%, 76.403809%, 96.159363%)" offset="0.578125"/><stop stop-opacity="1" stop-color="rgb(92.134094%, 76.667786%, 96.202087%)" offset="0.585938"/><stop stop-opacity="1" stop-color="rgb(92.222595%, 76.930237%, 96.244812%)" offset="0.59375"/><stop stop-opacity="1" stop-color="rgb(92.312622%, 77.194214%, 96.287537%)" offset="0.601562"/><stop stop-opacity="1" stop-color="rgb(92.401123%, 77.458191%, 96.330261%)" offset="0.609375"/><stop stop-opacity="1" stop-color="rgb(92.489624%, 77.722168%, 96.372986%)" offset="0.617187"/><stop stop-opacity="1" stop-color="rgb(92.578125%, 77.984619%, 96.41571%)" offset="0.625"/><stop stop-opacity="1" stop-color="rgb(92.666626%, 78.248596%, 96.458435%)" offset="0.632812"/><stop stop-opacity="1" stop-color="rgb(92.756653%, 78.512573%, 96.50116%)" offset="0.640625"/><stop stop-opacity="1" stop-color="rgb(92.845154%, 78.775024%, 96.54541%)" offset="0.648438"/><stop stop-opacity="1" stop-color="rgb(92.933655%, 79.039001%, 96.588135%)" offset="0.65625"/><stop stop-opacity="1" stop-color="rgb(93.022156%, 79.302979%, 96.630859%)" offset="0.664062"/><stop stop-opacity="1" stop-color="rgb(93.112183%, 79.56543%, 96.673584%)" offset="0.671875"/><stop stop-opacity="1" stop-color="rgb(93.200684%, 79.829407%, 96.716309%)" offset="0.679687"/><stop stop-opacity="1" stop-color="rgb(93.289185%, 80.093384%, 96.759033%)" offset="0.6875"/><stop stop-opacity="1" stop-color="rgb(93.377686%, 80.355835%, 96.801758%)" offset="0.695312"/><stop stop-opacity="1" stop-color="rgb(93.466187%, 80.619812%, 96.844482%)" offset="0.703125"/><stop stop-opacity="1" stop-color="rgb(93.556213%, 80.883789%, 96.887207%)" offset="0.710938"/><stop stop-opacity="1" stop-color="rgb(93.644714%, 81.147766%, 96.931458%)" offset="0.71875"/><stop stop-opacity="1" stop-color="rgb(93.733215%, 81.410217%, 96.974182%)" offset="0.726562"/><stop stop-opacity="1" stop-color="rgb(93.821716%, 81.674194%, 97.016907%)" offset="0.734375"/><stop stop-opacity="1" stop-color="rgb(93.910217%, 81.938171%, 97.059631%)" offset="0.742187"/><stop stop-opacity="1" stop-color="rgb(94.000244%, 82.200623%, 97.102356%)" offset="0.75"/><stop stop-opacity="1" stop-color="rgb(94.088745%, 82.4646%, 97.145081%)" offset="0.757812"/><stop stop-opacity="1" stop-color="rgb(94.177246%, 82.728577%, 97.187805%)" offset="0.765625"/><stop stop-opacity="1" stop-color="rgb(94.265747%, 82.991028%, 97.23053%)" offset="0.773438"/><stop stop-opacity="1" stop-color="rgb(94.355774%, 83.255005%, 97.273254%)" offset="0.78125"/><stop stop-opacity="1" stop-color="rgb(94.444275%, 83.518982%, 97.317505%)" offset="0.789062"/><stop stop-opacity="1" stop-color="rgb(94.532776%, 83.782959%, 97.360229%)" offset="0.796875"/><stop stop-opacity="1" stop-color="rgb(94.621277%, 84.04541%, 97.402954%)" offset="0.804687"/><stop stop-opacity="1" stop-color="rgb(94.709778%, 84.309387%, 97.445679%)" offset="0.8125"/><stop stop-opacity="1" stop-color="rgb(94.799805%, 84.573364%, 97.488403%)" offset="0.820312"/><stop stop-opacity="1" stop-color="rgb(94.888306%, 84.835815%, 97.531128%)" offset="0.828125"/><stop stop-opacity="1" stop-color="rgb(94.976807%, 85.099792%, 97.573853%)" offset="0.835938"/><stop stop-opacity="1" stop-color="rgb(95.065308%, 85.36377%, 97.616577%)" offset="0.84375"/><stop stop-opacity="1" stop-color="rgb(95.153809%, 85.626221%, 97.659302%)" offset="0.851562"/><stop stop-opacity="1" stop-color="rgb(95.243835%, 85.890198%, 97.703552%)" offset="0.859375"/><stop stop-opacity="1" stop-color="rgb(95.332336%, 86.154175%, 97.746277%)" offset="0.867187"/><stop stop-opacity="1" stop-color="rgb(95.420837%, 86.416626%, 97.789001%)" offset="0.875"/><stop stop-opacity="1" stop-color="rgb(95.509338%, 86.680603%, 97.831726%)" offset="0.882812"/><stop stop-opacity="1" stop-color="rgb(95.599365%, 86.94458%, 97.874451%)" offset="0.890625"/><stop stop-opacity="1" stop-color="rgb(95.687866%, 87.208557%, 97.917175%)" offset="0.898438"/><stop stop-opacity="1" stop-color="rgb(95.776367%, 87.471008%, 97.9599%)" offset="0.90625"/><stop stop-opacity="1" stop-color="rgb(95.864868%, 87.734985%, 98.002625%)" offset="0.914062"/><stop stop-opacity="1" stop-color="rgb(95.953369%, 87.998962%, 98.045349%)" offset="0.921875"/><stop stop-opacity="1" stop-color="rgb(96.043396%, 88.261414%, 98.0896%)" offset="0.929687"/><stop stop-opacity="1" stop-color="rgb(96.131897%, 88.525391%, 98.132324%)" offset="0.9375"/><stop stop-opacity="1" stop-color="rgb(96.220398%, 88.789368%, 98.175049%)" offset="0.945312"/><stop stop-opacity="1" stop-color="rgb(96.308899%, 89.051819%, 98.217773%)" offset="0.953125"/><stop stop-opacity="1" stop-color="rgb(96.3974%, 89.315796%, 98.260498%)" offset="0.960938"/><stop stop-opacity="1" stop-color="rgb(96.487427%, 89.579773%, 98.303223%)" offset="0.96875"/><stop stop-opacity="1" stop-color="rgb(96.575928%, 89.84375%, 98.345947%)" offset="0.976562"/><stop stop-opacity="1" stop-color="rgb(96.664429%, 90.106201%, 98.388672%)" offset="0.984375"/><stop stop-opacity="1" stop-color="rgb(96.75293%, 90.370178%, 98.431396%)" offset="0.992187"/><stop stop-opacity="1" stop-color="rgb(96.841431%, 90.634155%, 98.474121%)" offset="1"/></linearGradient><clipPath id="8dfb4bde55"><path d="M 70.839844 167 L 135.59375 167 L 135.59375 277.246094 L 70.839844 277.246094 Z M 70.839844 167 " clip-rule="nonzero"/></clipPath><clipPath id="9e7c41dc07"><path d="M 0.644531 181.710938 C 0.644531 181.710938 30.449219 156.695312 62.492188 172.390625 C 94.539062 188.085938 91.105469 199.367188 115.140625 191.519531 C 139.171875 183.671875 144.078125 178.765625 163.207031 191.519531 C 182.335938 204.273438 205.136719 189.066406 205.136719 189.066406 L 205.136719 229.492188 C 205.136719 285.960938 159.359375 331.738281 102.890625 331.738281 C 46.421875 331.738281 0.644531 285.960938 0.644531 229.492188 Z M 0.644531 181.710938 " clip-rule="nonzero"/></clipPath><linearGradient x1="156.151822" gradientTransform="matrix(0.657746, 0, 0, 0.657746, 0.645204, 2.865312)" y1="233.415907" x2="154.430567" gradientUnits="userSpaceOnUse" y2="417.601758" id="55c1382f51"><stop stop-opacity="1" stop-color="rgb(88.62915%, 66.268921%, 94.509888%)" offset="0"/><stop stop-opacity="1" stop-color="rgb(88.62915%, 66.268921%, 94.509888%)" offset="0.00499459"/><stop stop-opacity="1" stop-color="rgb(88.62915%, 66.268921%, 94.509888%)" offset="0.125"/><stop stop-opacity="1" stop-color="rgb(88.62915%, 66.268921%, 94.509888%)" offset="0.15625"/><stop stop-opacity="1" stop-color="rgb(88.648987%, 66.32843%, 94.519043%)" offset="0.171875"/><stop stop-opacity="1" stop-color="rgb(88.703918%, 66.490173%, 94.544983%)" offset="0.179688"/><stop stop-opacity="1" stop-color="rgb(88.772583%, 66.693115%, 94.578552%)" offset="0.1875"/><stop stop-opacity="1" stop-color="rgb(88.839722%, 66.896057%, 94.610596%)" offset="0.195312"/><stop stop-opacity="1" stop-color="rgb(88.908386%, 67.098999%, 94.644165%)" offset="0.203125"/><stop stop-opacity="1" stop-color="rgb(88.977051%, 67.301941%, 94.677734%)" offset="0.210937"/><stop stop-opacity="1" stop-color="rgb(89.045715%, 67.504883%, 94.709778%)" offset="0.21875"/><stop stop-opacity="1" stop-color="rgb(89.11438%, 67.707825%, 94.743347%)" offset="0.226562"/><stop stop-opacity="1" stop-color="rgb(89.181519%, 67.910767%, 94.775391%)" offset="0.234375"/><stop stop-opacity="1" stop-color="rgb(89.250183%, 68.112183%, 94.80896%)" offset="0.242187"/><stop stop-opacity="1" stop-color="rgb(89.318848%, 68.315125%, 94.842529%)" offset="0.25"/><stop stop-opacity="1" stop-color="rgb(89.387512%, 68.518066%, 94.874573%)" offset="0.257812"/><stop stop-opacity="1" stop-color="rgb(89.454651%, 68.721008%, 94.908142%)" offset="0.265625"/><stop stop-opacity="1" stop-color="rgb(89.523315%, 68.92395%, 94.941711%)" offset="0.273438"/><stop stop-opacity="1" stop-color="rgb(89.59198%, 69.126892%, 94.973755%)" offset="0.28125"/><stop stop-opacity="1" stop-color="rgb(89.660645%, 69.329834%, 95.007324%)" offset="0.289062"/><stop stop-opacity="1" stop-color="rgb(89.729309%, 69.532776%, 95.040894%)" offset="0.296875"/><stop stop-opacity="1" stop-color="rgb(89.796448%, 69.735718%, 95.072937%)" offset="0.304687"/><stop stop-opacity="1" stop-color="rgb(89.865112%, 69.937134%, 95.106506%)" offset="0.3125"/><stop stop-opacity="1" stop-color="rgb(89.933777%, 70.140076%, 95.13855%)" offset="0.320312"/><stop stop-opacity="1" stop-color="rgb(90.002441%, 70.343018%, 95.172119%)" offset="0.328125"/><stop stop-opacity="1" stop-color="rgb(90.071106%, 70.545959%, 95.205688%)" offset="0.335937"/><stop stop-opacity="1" stop-color="rgb(90.138245%, 70.748901%, 95.237732%)" offset="0.34375"/><stop stop-opacity="1" stop-color="rgb(90.206909%, 70.951843%, 95.271301%)" offset="0.351562"/><stop stop-opacity="1" stop-color="rgb(90.275574%, 71.154785%, 95.304871%)" offset="0.359375"/><stop stop-opacity="1" stop-color="rgb(90.344238%, 71.357727%, 95.336914%)" offset="0.367187"/><stop stop-opacity="1" stop-color="rgb(90.412903%, 71.559143%, 95.370483%)" offset="0.375"/><stop stop-opacity="1" stop-color="rgb(90.480042%, 71.762085%, 95.402527%)" offset="0.382812"/><stop stop-opacity="1" stop-color="rgb(90.548706%, 71.965027%, 95.436096%)" offset="0.390625"/><stop stop-opacity="1" stop-color="rgb(90.617371%, 72.167969%, 95.469666%)" offset="0.398438"/><stop stop-opacity="1" stop-color="rgb(90.686035%, 72.370911%, 95.501709%)" offset="0.40625"/><stop stop-opacity="1" stop-color="rgb(90.7547%, 72.573853%, 95.535278%)" offset="0.414062"/><stop stop-opacity="1" stop-color="rgb(90.821838%, 72.776794%, 95.568848%)" offset="0.421875"/><stop stop-opacity="1" stop-color="rgb(90.890503%, 72.979736%, 95.600891%)" offset="0.429688"/><stop stop-opacity="1" stop-color="rgb(90.959167%, 73.182678%, 95.63446%)" offset="0.4375"/><stop stop-opacity="1" stop-color="rgb(91.027832%, 73.384094%, 95.666504%)" offset="0.445312"/><stop stop-opacity="1" stop-color="rgb(91.096497%, 73.587036%, 95.700073%)" offset="0.453125"/><stop stop-opacity="1" stop-color="rgb(91.163635%, 73.789978%, 95.733643%)" offset="0.460937"/><stop stop-opacity="1" stop-color="rgb(91.2323%, 73.99292%, 95.765686%)" offset="0.46875"/><stop stop-opacity="1" stop-color="rgb(91.300964%, 74.195862%, 95.799255%)" offset="0.476562"/><stop stop-opacity="1" stop-color="rgb(91.369629%, 74.398804%, 95.832825%)" offset="0.484375"/><stop stop-opacity="1" stop-color="rgb(91.436768%, 74.601746%, 95.864868%)" offset="0.492188"/><stop stop-opacity="1" stop-color="rgb(91.505432%, 74.804688%, 95.898438%)" offset="0.5"/><stop stop-opacity="1" stop-color="rgb(91.574097%, 75.006104%, 95.930481%)" offset="0.507812"/><stop stop-opacity="1" stop-color="rgb(91.642761%, 75.209045%, 95.96405%)" offset="0.515625"/><stop stop-opacity="1" stop-color="rgb(91.711426%, 75.411987%, 95.99762%)" offset="0.523438"/><stop stop-opacity="1" stop-color="rgb(91.778564%, 75.614929%, 96.029663%)" offset="0.53125"/><stop stop-opacity="1" stop-color="rgb(91.847229%, 75.817871%, 96.063232%)" offset="0.539062"/><stop stop-opacity="1" stop-color="rgb(91.915894%, 76.020813%, 96.096802%)" offset="0.546875"/><stop stop-opacity="1" stop-color="rgb(91.984558%, 76.223755%, 96.128845%)" offset="0.554688"/><stop stop-opacity="1" stop-color="rgb(92.053223%, 76.426697%, 96.162415%)" offset="0.5625"/><stop stop-opacity="1" stop-color="rgb(92.120361%, 76.629639%, 96.195984%)" offset="0.570312"/><stop stop-opacity="1" stop-color="rgb(92.189026%, 76.831055%, 96.228027%)" offset="0.578125"/><stop stop-opacity="1" stop-color="rgb(92.25769%, 77.033997%, 96.261597%)" offset="0.585938"/><stop stop-opacity="1" stop-color="rgb(92.326355%, 77.236938%, 96.29364%)" offset="0.59375"/><stop stop-opacity="1" stop-color="rgb(92.39502%, 77.43988%, 96.327209%)" offset="0.601562"/><stop stop-opacity="1" stop-color="rgb(92.462158%, 77.642822%, 96.360779%)" offset="0.609375"/><stop stop-opacity="1" stop-color="rgb(92.530823%, 77.845764%, 96.392822%)" offset="0.617188"/><stop stop-opacity="1" stop-color="rgb(92.599487%, 78.048706%, 96.426392%)" offset="0.625"/><stop stop-opacity="1" stop-color="rgb(92.668152%, 78.251648%, 96.459961%)" offset="0.632812"/><stop stop-opacity="1" stop-color="rgb(92.736816%, 78.453064%, 96.492004%)" offset="0.640625"/><stop stop-opacity="1" stop-color="rgb(92.803955%, 78.656006%, 96.525574%)" offset="0.648438"/><stop stop-opacity="1" stop-color="rgb(92.87262%, 78.858948%, 96.557617%)" offset="0.65625"/><stop stop-opacity="1" stop-color="rgb(92.941284%, 79.06189%, 96.591187%)" offset="0.664062"/><stop stop-opacity="1" stop-color="rgb(93.009949%, 79.264832%, 96.624756%)" offset="0.671875"/><stop stop-opacity="1" stop-color="rgb(93.078613%, 79.467773%, 96.656799%)" offset="0.679688"/><stop stop-opacity="1" stop-color="rgb(93.145752%, 79.670715%, 96.690369%)" offset="0.6875"/><stop stop-opacity="1" stop-color="rgb(93.214417%, 79.873657%, 96.723938%)" offset="0.695312"/><stop stop-opacity="1" stop-color="rgb(93.283081%, 80.076599%, 96.755981%)" offset="0.703125"/><stop stop-opacity="1" stop-color="rgb(93.351746%, 80.278015%, 96.789551%)" offset="0.710938"/><stop stop-opacity="1" stop-color="rgb(93.418884%, 80.480957%, 96.821594%)" offset="0.71875"/><stop stop-opacity="1" stop-color="rgb(93.487549%, 80.683899%, 96.855164%)" offset="0.726562"/><stop stop-opacity="1" stop-color="rgb(93.556213%, 80.886841%, 96.888733%)" offset="0.734375"/><stop stop-opacity="1" stop-color="rgb(93.624878%, 81.089783%, 96.920776%)" offset="0.742188"/><stop stop-opacity="1" stop-color="rgb(93.693542%, 81.292725%, 96.954346%)" offset="0.75"/><stop stop-opacity="1" stop-color="rgb(93.760681%, 81.495667%, 96.987915%)" offset="0.757812"/><stop stop-opacity="1" stop-color="rgb(93.829346%, 81.698608%, 97.019958%)" offset="0.765625"/><stop stop-opacity="1" stop-color="rgb(93.89801%, 81.900024%, 97.053528%)" offset="0.773438"/><stop stop-opacity="1" stop-color="rgb(93.966675%, 82.102966%, 97.085571%)" offset="0.78125"/><stop stop-opacity="1" stop-color="rgb(94.035339%, 82.305908%, 97.119141%)" offset="0.789062"/><stop stop-opacity="1" stop-color="rgb(94.102478%, 82.50885%, 97.15271%)" offset="0.796875"/><stop stop-opacity="1" stop-color="rgb(94.171143%, 82.711792%, 97.184753%)" offset="0.804688"/><stop stop-opacity="1" stop-color="rgb(94.239807%, 82.914734%, 97.218323%)" offset="0.8125"/><stop stop-opacity="1" stop-color="rgb(94.308472%, 83.117676%, 97.251892%)" offset="0.820312"/><stop stop-opacity="1" stop-color="rgb(94.377136%, 83.320618%, 97.283936%)" offset="0.828125"/><stop stop-opacity="1" stop-color="rgb(94.444275%, 83.52356%, 97.317505%)" offset="0.835937"/><stop stop-opacity="1" stop-color="rgb(94.512939%, 83.724976%, 97.349548%)" offset="0.84375"/><stop stop-opacity="1" stop-color="rgb(94.581604%, 83.927917%, 97.383118%)" offset="0.851563"/><stop stop-opacity="1" stop-color="rgb(94.650269%, 84.130859%, 97.416687%)" offset="0.859375"/><stop stop-opacity="1" stop-color="rgb(94.718933%, 84.333801%, 97.44873%)" offset="0.867188"/><stop stop-opacity="1" stop-color="rgb(94.786072%, 84.536743%, 97.4823%)" offset="0.875"/><stop stop-opacity="1" stop-color="rgb(94.854736%, 84.739685%, 97.515869%)" offset="0.882812"/><stop stop-opacity="1" stop-color="rgb(94.923401%, 84.942627%, 97.547913%)" offset="0.890625"/><stop stop-opacity="1" stop-color="rgb(94.992065%, 85.145569%, 97.581482%)" offset="0.898438"/><stop stop-opacity="1" stop-color="rgb(95.06073%, 85.346985%, 97.615051%)" offset="0.90625"/><stop stop-opacity="1" stop-color="rgb(95.127869%, 85.549927%, 97.647095%)" offset="0.914063"/><stop stop-opacity="1" stop-color="rgb(95.196533%, 85.752869%, 97.680664%)" offset="0.921875"/><stop stop-opacity="1" stop-color="rgb(95.265198%, 85.955811%, 97.712708%)" offset="0.929688"/><stop stop-opacity="1" stop-color="rgb(95.333862%, 86.158752%, 97.746277%)" offset="0.9375"/><stop stop-opacity="1" stop-color="rgb(95.401001%, 86.361694%, 97.779846%)" offset="0.945313"/><stop stop-opacity="1" stop-color="rgb(95.469666%, 86.564636%, 97.81189%)" offset="0.953125"/><stop stop-opacity="1" stop-color="rgb(95.53833%, 86.767578%, 97.845459%)" offset="0.960938"/><stop stop-opacity="1" stop-color="rgb(95.606995%, 86.968994%, 97.879028%)" offset="0.96875"/><stop stop-opacity="1" stop-color="rgb(95.675659%, 87.171936%, 97.911072%)" offset="0.976562"/><stop stop-opacity="1" stop-color="rgb(95.742798%, 87.374878%, 97.944641%)" offset="0.984375"/><stop stop-opacity="1" stop-color="rgb(95.811462%, 87.57782%, 97.976685%)" offset="0.992187"/><stop stop-opacity="1" stop-color="rgb(95.880127%, 87.780762%, 98.010254%)" offset="0.995005"/><stop stop-opacity="1" stop-color="rgb(95.915222%, 87.882996%, 98.027039%)" offset="1"/></linearGradient><clipPath id="14d4d99f4d"><path d="M 70.839844 238 L 135.59375 238 L 135.59375 277.246094 L 70.839844 277.246094 Z M 70.839844 238 " clip-rule="nonzero"/></clipPath><clipPath id="c11965cae9"><path d="M 143.289062 243.34375 C 111.242188 259.039062 114.675781 270.320312 90.644531 262.472656 C 66.609375 254.625 61.703125 249.71875 42.574219 262.472656 C 29.4375 271.234375 14.5625 266.800781 6.539062 263.167969 C 20.417969 303.085938 58.367188 331.738281 103.015625 331.738281 C 152.09375 331.738281 193.078125 297.117188 202.894531 250.964844 C 195.398438 245.613281 170.132812 230.195312 143.289062 243.34375 Z M 143.289062 243.34375 " clip-rule="nonzero"/></clipPath><linearGradient x1="153.100545" gradientTransform="matrix(-0.657746, 0, 0, 0.657746, 205.164796, 2.865312)" y1="345.142929" x2="152.423495" gradientUnits="userSpaceOnUse" y2="417.591819" id="3ae4b6b047"><stop stop-opacity="1" stop-color="rgb(88.62915%, 66.268921%, 94.509888%)" offset="0"/><stop stop-opacity="1" stop-color="rgb(88.62915%, 66.268921%, 94.509888%)" offset="0.0126977"/><stop stop-opacity="1" stop-color="rgb(88.62915%, 66.268921%, 94.509888%)" offset="0.25"/><stop stop-opacity="1" stop-color="rgb(88.635254%, 66.285706%, 94.511414%)" offset="0.375"/><stop stop-opacity="1" stop-color="rgb(88.694763%, 66.462708%, 94.540405%)" offset="0.40625"/><stop stop-opacity="1" stop-color="rgb(88.801575%, 66.783142%, 94.592285%)" offset="0.4375"/><stop stop-opacity="1" stop-color="rgb(88.909912%, 67.102051%, 94.644165%)" offset="0.46875"/><stop stop-opacity="1" stop-color="rgb(89.016724%, 67.420959%, 94.696045%)" offset="0.5"/><stop stop-opacity="1" stop-color="rgb(89.125061%, 67.739868%, 94.747925%)" offset="0.53125"/><stop stop-opacity="1" stop-color="rgb(89.231873%, 68.058777%, 94.799805%)" offset="0.5625"/><stop stop-opacity="1" stop-color="rgb(89.34021%, 68.377686%, 94.85321%)" offset="0.59375"/><stop stop-opacity="1" stop-color="rgb(89.447021%, 68.696594%, 94.90509%)" offset="0.625"/><stop stop-opacity="1" stop-color="rgb(89.555359%, 69.015503%, 94.95697%)" offset="0.65625"/><stop stop-opacity="1" stop-color="rgb(89.66217%, 69.334412%, 95.00885%)" offset="0.6875"/><stop stop-opacity="1" stop-color="rgb(89.770508%, 69.65332%, 95.06073%)" offset="0.71875"/><stop stop-opacity="1" stop-color="rgb(89.877319%, 69.972229%, 95.11261%)" offset="0.75"/><stop stop-opacity="1" stop-color="rgb(89.985657%, 70.291138%, 95.16449%)" offset="0.78125"/><stop stop-opacity="1" stop-color="rgb(90.092468%, 70.610046%, 95.21637%)" offset="0.8125"/><stop stop-opacity="1" stop-color="rgb(90.200806%, 70.930481%, 95.26825%)" offset="0.84375"/><stop stop-opacity="1" stop-color="rgb(90.307617%, 71.24939%, 95.320129%)" offset="0.875"/><stop stop-opacity="1" stop-color="rgb(90.415955%, 71.568298%, 95.372009%)" offset="0.90625"/><stop stop-opacity="1" stop-color="rgb(90.522766%, 71.887207%, 95.423889%)" offset="0.9375"/><stop stop-opacity="1" stop-color="rgb(90.629578%, 72.206116%, 95.475769%)" offset="0.96875"/><stop stop-opacity="1" stop-color="rgb(90.737915%, 72.525024%, 95.527649%)" offset="0.987302"/><stop stop-opacity="1" stop-color="rgb(90.791321%, 72.685242%, 95.553589%)" offset="1"/></linearGradient><clipPath id="50988407c3"><rect x="0" width="1318" y="0" height="332"/></clipPath></defs><g transform="matrix(1, 0, 0, 1, 79, 215)"><g clip-path="url(#50988407c3)"><g transform="matrix(1, 0, 0, 1, 80, 125)"><g clip-path="url(#f9e56d3d13)"><g fill="#ffffff" fill-opacity="1"><g transform="translate(0.658078, 148.240208)"><g><path d="M 44.34375 -142.40625 L 44.34375 -3.0625 C 44.34375 -0.957031 43.253906 0.09375 41.078125 0.09375 L 20.5 0.09375 C 18.382812 0.09375 17.328125 -0.957031 17.328125 -3.0625 L 17.328125 -142.40625 C 17.328125 -144.570312 18.382812 -145.65625 20.5 -145.65625 L 41.078125 -145.65625 C 43.253906 -145.65625 44.34375 -144.570312 44.34375 -142.40625 Z M 44.34375 -142.40625 "/></g></g></g><g clip-path="url(#c7ef5dcae8)"><g fill="#ffffff" fill-opacity="1"><g transform="translate(81.941429, 148.240208)"><g><path d="M 143.640625 -145.65625 C 145.816406 -145.65625 146.90625 -144.601562 146.90625 -142.5 L 146.90625 -2.578125 C 146.90625 -1.179688 146.535156 -0.0820312 145.796875 0.71875 C 145.066406 1.519531 144.191406 1.921875 143.171875 1.921875 L 142.96875 1.921875 C 141.757812 1.921875 140.738281 1.566406 139.90625 0.859375 C 139.082031 0.160156 138.125 -0.632812 137.03125 -1.53125 L 44.4375 -89.4375 L 44.4375 -3.0625 C 44.4375 -0.957031 43.382812 0.09375 41.28125 0.09375 L 20.59375 0.09375 C 18.414062 0.09375 17.328125 -0.957031 17.328125 -3.0625 L 17.328125 -143.171875 C 17.328125 -144.378906 17.660156 -145.378906 18.328125 -146.171875 C 19.003906 -146.972656 19.851562 -147.375 20.875 -147.375 L 21.265625 -147.375 C 22.285156 -147.375 23.175781 -147.023438 23.9375 -146.328125 C 24.707031 -145.628906 25.601562 -144.832031 26.625 -143.9375 L 119.890625 -55.640625 L 119.890625 -142.5 C 119.890625 -144.601562 120.945312 -145.65625 123.0625 -145.65625 Z M 143.640625 -145.65625 "/></g></g></g></g><g clip-path="url(#3860cfb6cb)"><g fill="#ffffff" fill-opacity="1"><g transform="translate(265.785472, 148.240208)"><g><path d="M 143.640625 -145.65625 C 145.816406 -145.65625 146.90625 -144.601562 146.90625 -142.5 L 146.90625 -2.578125 C 146.90625 -1.179688 146.535156 -0.0820312 145.796875 0.71875 C 145.066406 1.519531 144.191406 1.921875 143.171875 1.921875 L 142.96875 1.921875 C 141.757812 1.921875 140.738281 1.566406 139.90625 0.859375 C 139.082031 0.160156 138.125 -0.632812 137.03125 -1.53125 L 44.4375 -89.4375 L 44.4375 -3.0625 C 44.4375 -0.957031 43.382812 0.09375 41.28125 0.09375 L 20.59375 0.09375 C 18.414062 0.09375 17.328125 -0.957031 17.328125 -3.0625 L 17.328125 -143.171875 C 17.328125 -144.378906 17.660156 -145.378906 18.328125 -146.171875 C 19.003906 -146.972656 19.851562 -147.375 20.875 -147.375 L 21.265625 -147.375 C 22.285156 -147.375 23.175781 -147.023438 23.9375 -146.328125 C 24.707031 -145.628906 25.601562 -144.832031 26.625 -143.9375 L 119.890625 -55.640625 L 119.890625 -142.5 C 119.890625 -144.601562 120.945312 -145.65625 123.0625 -145.65625 Z M 143.640625 -145.65625 "/></g></g></g></g><g clip-path="url(#03af51c6d6)"><g fill="#ffffff" fill-opacity="1"><g transform="translate(449.62954, 148.240208)"><g><path d="M 8.625 -72.5 C 8.625 -80.925781 9.867188 -88.921875 12.359375 -96.484375 C 14.847656 -104.046875 18.390625 -110.9375 22.984375 -117.15625 C 27.578125 -123.382812 33 -128.78125 39.25 -133.34375 C 45.507812 -137.914062 52.4375 -141.445312 60.03125 -143.9375 C 67.632812 -146.425781 75.648438 -147.671875 84.078125 -147.671875 C 92.503906 -147.671875 100.515625 -146.425781 108.109375 -143.9375 C 115.710938 -141.445312 122.640625 -137.914062 128.890625 -133.34375 C 135.148438 -128.78125 140.578125 -123.382812 145.171875 -117.15625 C 149.773438 -110.9375 153.320312 -104.046875 155.8125 -96.484375 C 158.300781 -88.921875 159.546875 -80.925781 159.546875 -72.5 C 159.546875 -64.070312 158.300781 -56.085938 155.8125 -48.546875 C 153.320312 -41.015625 149.773438 -34.148438 145.171875 -27.953125 C 140.578125 -21.765625 135.148438 -16.40625 128.890625 -11.875 C 122.640625 -7.34375 115.710938 -3.847656 108.109375 -1.390625 C 100.515625 1.066406 92.503906 2.296875 84.078125 2.296875 C 75.648438 2.296875 67.632812 1.066406 60.03125 -1.390625 C 52.4375 -3.847656 45.507812 -7.34375 39.25 -11.875 C 33 -16.40625 27.578125 -21.765625 22.984375 -27.953125 C 18.390625 -34.148438 14.847656 -41.015625 12.359375 -48.546875 C 9.867188 -56.085938 8.625 -64.070312 8.625 -72.5 Z M 35.625 -72.5 C 35.625 -65.726562 36.851562 -59.453125 39.3125 -53.671875 C 41.769531 -47.898438 45.21875 -42.84375 49.65625 -38.5 C 54.09375 -34.15625 59.25 -30.769531 65.125 -28.34375 C 71 -25.914062 77.316406 -24.703125 84.078125 -24.703125 C 90.910156 -24.703125 97.25 -25.914062 103.09375 -28.34375 C 108.9375 -30.769531 114.070312 -34.15625 118.5 -38.5 C 122.9375 -42.84375 126.382812 -47.898438 128.84375 -53.671875 C 131.300781 -59.453125 132.53125 -65.726562 132.53125 -72.5 C 132.53125 -79.320312 131.285156 -85.65625 128.796875 -91.5 C 126.304688 -97.34375 122.859375 -102.453125 118.453125 -106.828125 C 114.054688 -111.203125 108.921875 -114.617188 103.046875 -117.078125 C 97.171875 -119.535156 90.847656 -120.765625 84.078125 -120.765625 C 77.316406 -120.765625 71 -119.535156 65.125 -117.078125 C 59.25 -114.617188 54.109375 -111.203125 49.703125 -106.828125 C 45.296875 -102.453125 41.847656 -97.34375 39.359375 -91.5 C 36.867188 -85.65625 35.625 -79.320312 35.625 -72.5 Z M 35.625 -72.5 "/></g></g></g></g><g fill="#ffffff" fill-opacity="1"><g transform="translate(630.504803, 148.240208)"><g><path d="M 138.578125 -145.46875 C 140.171875 -145.46875 141.238281 -145.019531 141.78125 -144.125 C 142.320312 -143.226562 142.273438 -142.078125 141.640625 -140.671875 L 79.203125 -2.296875 C 77.796875 0.703125 75.910156 2.203125 73.546875 2.203125 L 73.15625 2.203125 C 70.601562 2.203125 68.691406 0.703125 67.421875 -2.296875 L 5.078125 -140.578125 C 4.441406 -142.046875 4.425781 -143.226562 5.03125 -144.125 C 5.632812 -145.019531 6.734375 -145.46875 8.328125 -145.46875 L 28.734375 -145.46875 C 30.003906 -145.46875 31.054688 -145.113281 31.890625 -144.40625 C 32.722656 -143.707031 33.363281 -142.847656 33.8125 -141.828125 L 73.453125 -49.984375 L 113 -141.828125 C 113.507812 -142.910156 114.175781 -143.785156 115 -144.453125 C 115.832031 -145.128906 116.796875 -145.46875 117.890625 -145.46875 Z M 138.578125 -145.46875 "/></g></g></g><g clip-path="url(#e8647ac105)"><g fill="#ffffff" fill-opacity="1"><g transform="translate(775.46915, 148.240208)"><g><path d="M 140.875 -4.6875 C 141.507812 -3.28125 141.539062 -2.113281 140.96875 -1.1875 C 140.394531 -0.269531 139.304688 0.1875 137.703125 0.1875 L 117.125 0.1875 C 116.03125 0.1875 115.050781 -0.175781 114.1875 -0.90625 C 113.332031 -1.644531 112.679688 -2.523438 112.234375 -3.546875 L 106.390625 -17.71875 L 39.546875 -17.71875 L 33.703125 -3.640625 C 33.253906 -2.617188 32.613281 -1.738281 31.78125 -1 C 30.957031 -0.269531 29.941406 0.09375 28.734375 0.09375 L 8.234375 0.09375 C 6.640625 0.09375 5.535156 -0.347656 4.921875 -1.234375 C 4.316406 -2.128906 4.335938 -3.3125 4.984375 -4.78125 L 66.9375 -143.640625 C 67.445312 -144.796875 68.195312 -145.707031 69.1875 -146.375 C 70.175781 -147.039062 71.179688 -147.375 72.203125 -147.375 L 73.453125 -147.375 C 74.597656 -147.375 75.632812 -147.023438 76.5625 -146.328125 C 77.488281 -145.628906 78.207031 -144.703125 78.71875 -143.546875 Z M 49.03125 -40.890625 L 96.8125 -40.890625 L 72.96875 -98.828125 Z M 49.03125 -40.890625 "/></g></g></g></g><g fill="#ffffff" fill-opacity="1"><g transform="translate(923.019083, 148.240208)"><g><path d="M 5.65625 -126.125 L 5.65625 -141.25 C 5.65625 -144.0625 7.054688 -145.46875 9.859375 -145.46875 L 109.546875 -145.46875 C 110.828125 -145.46875 111.832031 -145.082031 112.5625 -144.3125 C 113.300781 -143.550781 113.671875 -142.53125 113.671875 -141.25 L 113.671875 -126.125 C 113.671875 -123.25 112.296875 -121.8125 109.546875 -121.8125 L 73.0625 -121.8125 L 73.0625 -4.125 C 73.0625 -1.3125 71.628906 0.09375 68.765625 0.09375 L 50.28125 0.09375 C 47.46875 0.09375 46.0625 -1.3125 46.0625 -4.125 L 46.0625 -121.8125 L 9.859375 -121.8125 C 8.585938 -121.8125 7.566406 -122.175781 6.796875 -122.90625 C 6.035156 -123.644531 5.65625 -124.71875 5.65625 -126.125 Z M 5.65625 -126.125 "/></g></g></g><g fill="#ffffff" fill-opacity="1"><g transform="translate(1061.95092, 148.240208)"><g><path d="M 122.671875 -25.671875 C 124.460938 -25.671875 125.882812 -25.191406 126.9375 -24.234375 C 127.988281 -23.273438 128.515625 -21.960938 128.515625 -20.296875 L 128.515625 -4.21875 C 128.515625 -2.9375 128.113281 -1.910156 127.3125 -1.140625 C 126.519531 -0.378906 125.453125 0 124.109375 0 L 21.640625 0 C 18.765625 0 17.328125 -1.40625 17.328125 -4.21875 L 17.328125 -141.15625 C 17.328125 -144.03125 18.765625 -145.46875 21.640625 -145.46875 L 122.09375 -145.46875 C 123.5 -145.46875 124.582031 -145.082031 125.34375 -144.3125 C 126.113281 -143.550781 126.5 -142.53125 126.5 -141.25 L 126.5 -124.203125 C 126.5 -121.265625 125.03125 -119.796875 122.09375 -119.796875 L 44.4375 -119.796875 L 44.4375 -79.671875 L 105.25 -79.671875 C 106.84375 -79.671875 108.085938 -79.285156 108.984375 -78.515625 C 109.878906 -77.753906 110.328125 -76.640625 110.328125 -75.171875 L 110.328125 -59.1875 C 110.328125 -57.90625 109.878906 -56.863281 108.984375 -56.0625 C 108.085938 -55.269531 106.84375 -54.875 105.25 -54.875 L 44.4375 -54.875 L 44.4375 -25.671875 Z M 122.671875 -25.671875 "/></g></g></g></g></g><g clip-path="url(#e0287b3d7a)"><g transform="matrix(1, 0, 0, 1, 199, -0.000000000000113687)"><g clip-path="url(#b33068ea86)"><g fill="#ffffff" fill-opacity="1"><g transform="translate(5.470076, 66.096081)"><g><path d="M 55.65625 -31.3125 C 56.539062 -31.3125 56.984375 -30.851562 56.984375 -29.9375 L 56.984375 -6.8125 C 56.984375 -6.457031 56.894531 -6.085938 56.71875 -5.703125 C 56.550781 -5.328125 56.316406 -5.03125 56.015625 -4.8125 C 54.828125 -4.007812 53.441406 -3.253906 51.859375 -2.546875 C 50.285156 -1.847656 48.59375 -1.234375 46.78125 -0.703125 C 44.96875 -0.179688 43.128906 0.222656 41.265625 0.515625 C 39.410156 0.816406 37.617188 0.96875 35.890625 0.96875 C 32.296875 0.96875 28.878906 0.453125 25.640625 -0.578125 C 22.398438 -1.617188 19.4375 -3.097656 16.75 -5.015625 C 14.0625 -6.929688 11.738281 -9.207031 9.78125 -11.84375 C 7.820312 -14.476562 6.304688 -17.390625 5.234375 -20.578125 C 4.171875 -23.765625 3.640625 -27.15625 3.640625 -30.75 C 3.640625 -34.3125 4.171875 -37.691406 5.234375 -40.890625 C 6.304688 -44.085938 7.820312 -46.992188 9.78125 -49.609375 C 11.738281 -52.234375 14.050781 -54.507812 16.71875 -56.4375 C 19.394531 -58.375 22.351562 -59.859375 25.59375 -60.890625 C 28.832031 -61.929688 32.25 -62.453125 35.84375 -62.453125 C 37.925781 -62.453125 40.109375 -62.222656 42.390625 -61.765625 C 44.671875 -61.304688 46.882812 -60.609375 49.03125 -59.671875 C 51.175781 -58.742188 53.085938 -57.578125 54.765625 -56.171875 C 55.140625 -55.847656 55.367188 -55.453125 55.453125 -54.984375 C 55.535156 -54.515625 55.441406 -54.085938 55.171875 -53.703125 L 50.71875 -46.9375 C 50.414062 -46.507812 50.023438 -46.273438 49.546875 -46.234375 C 49.078125 -46.191406 48.640625 -46.347656 48.234375 -46.703125 C 47.023438 -47.753906 45.703125 -48.601562 44.265625 -49.25 C 42.835938 -49.894531 41.398438 -50.363281 39.953125 -50.65625 C 38.515625 -50.957031 37.160156 -51.109375 35.890625 -51.109375 C 32.972656 -51.109375 30.257812 -50.585938 27.75 -49.546875 C 25.238281 -48.515625 23.035156 -47.070312 21.140625 -45.21875 C 19.253906 -43.375 17.773438 -41.210938 16.703125 -38.734375 C 15.640625 -36.265625 15.109375 -33.601562 15.109375 -30.75 C 15.109375 -27.851562 15.617188 -25.148438 16.640625 -22.640625 C 17.671875 -20.128906 19.109375 -17.921875 20.953125 -16.015625 C 22.804688 -14.109375 25 -12.613281 27.53125 -11.53125 C 30.070312 -10.457031 32.859375 -9.921875 35.890625 -9.921875 C 36.941406 -9.921875 38.101562 -10.054688 39.375 -10.328125 C 40.644531 -10.597656 41.878906 -10.96875 43.078125 -11.4375 C 44.273438 -11.914062 45.28125 -12.4375 46.09375 -13 L 46.09375 -21.75 L 35.609375 -21.75 C 34.742188 -21.75 34.3125 -22.195312 34.3125 -23.09375 L 34.3125 -29.9375 C 34.3125 -30.851562 34.742188 -31.3125 35.609375 -31.3125 Z M 55.65625 -31.3125 "/></g></g></g><g fill="#ffffff" fill-opacity="1"><g transform="translate(134.16363, 66.096081)"><g><path d="M 18.75 -60.234375 L 18.75 -1.296875 C 18.75 -0.398438 18.289062 0.046875 17.375 0.046875 L 8.671875 0.046875 C 7.773438 0.046875 7.328125 -0.398438 7.328125 -1.296875 L 7.328125 -60.234375 C 7.328125 -61.148438 7.773438 -61.609375 8.671875 -61.609375 L 17.375 -61.609375 C 18.289062 -61.609375 18.75 -61.148438 18.75 -60.234375 Z M 18.75 -60.234375 "/></g></g></g><g fill="#ffffff" fill-opacity="1"><g transform="translate(226.625908, 66.096081)"><g><path d="M 45.96875 -18.1875 L 54.234375 -2.0625 C 54.535156 -1.46875 54.578125 -0.96875 54.359375 -0.5625 C 54.140625 -0.15625 53.707031 0.046875 53.0625 0.046875 L 44.15625 0.046875 C 43.769531 0.046875 43.378906 -0.09375 42.984375 -0.375 C 42.597656 -0.664062 42.296875 -1.023438 42.078125 -1.453125 L 35.71875 -14.5 C 35.050781 -14.394531 34.363281 -14.320312 33.65625 -14.28125 C 32.957031 -14.238281 32.242188 -14.21875 31.515625 -14.21875 L 18.796875 -14.21875 L 18.796875 -1.734375 C 18.796875 -1.203125 18.617188 -0.769531 18.265625 -0.4375 C 17.910156 -0.113281 17.46875 0.046875 16.9375 0.046875 L 9.15625 0.046875 C 8.644531 0.046875 8.210938 -0.113281 7.859375 -0.4375 C 7.503906 -0.769531 7.328125 -1.203125 7.328125 -1.734375 L 7.328125 -59.78125 C 7.328125 -60.289062 7.503906 -60.707031 7.859375 -61.03125 C 8.210938 -61.363281 8.644531 -61.53125 9.15625 -61.53125 L 11.171875 -61.53125 C 12.367188 -61.53125 13.539062 -61.53125 14.6875 -61.53125 C 15.832031 -61.53125 16.648438 -61.53125 17.140625 -61.53125 L 31.515625 -61.53125 C 35.128906 -61.53125 38.445312 -60.941406 41.46875 -59.765625 C 44.5 -58.585938 47.128906 -56.929688 49.359375 -54.796875 C 51.585938 -52.671875 53.3125 -50.148438 54.53125 -47.234375 C 55.757812 -44.316406 56.375 -41.128906 56.375 -37.671875 C 56.375 -33.484375 55.441406 -29.707031 53.578125 -26.34375 C 51.722656 -22.988281 49.1875 -20.269531 45.96875 -18.1875 Z M 30.78125 -23.78125 C 33.539062 -23.78125 35.984375 -24.375 38.109375 -25.5625 C 40.242188 -26.75 41.914062 -28.394531 43.125 -30.5 C 44.34375 -32.601562 44.953125 -35.019531 44.953125 -37.75 C 44.953125 -39.75 44.59375 -41.582031 43.875 -43.25 C 43.164062 -44.925781 42.175781 -46.382812 40.90625 -47.625 C 39.632812 -48.875 38.132812 -49.832031 36.40625 -50.5 C 34.6875 -51.175781 32.8125 -51.515625 30.78125 -51.515625 L 18.796875 -51.515625 L 18.796875 -23.78125 Z M 30.78125 -23.78125 "/></g></g></g><g fill="#ffffff" fill-opacity="1"><g transform="translate(354.428862, 66.096081)"><g><path d="M 46.578125 -10.046875 C 47.472656 -10.046875 47.921875 -9.585938 47.921875 -8.671875 L 47.921875 -1.375 C 47.921875 -0.457031 47.472656 0 46.578125 0 L 8.703125 0 C 7.785156 0 7.328125 -0.457031 7.328125 -1.375 L 7.328125 -60.234375 C 7.328125 -61.148438 7.785156 -61.609375 8.703125 -61.609375 L 17.453125 -61.609375 C 18.347656 -61.609375 18.796875 -61.148438 18.796875 -60.234375 L 18.796875 -10.046875 Z M 46.578125 -10.046875 "/></g></g></g><g fill="#ffffff" fill-opacity="1"><g transform="translate(470.289665, 66.096081)"><g><path d="M 27.78125 0.96875 C 25.457031 0.96875 23.148438 0.71875 20.859375 0.21875 C 18.566406 -0.28125 16.382812 -0.988281 14.3125 -1.90625 C 12.25 -2.820312 10.375 -3.90625 8.6875 -5.15625 C 7 -6.414062 5.601562 -7.800781 4.5 -9.3125 C 4.195312 -9.695312 4.070312 -10.125 4.125 -10.59375 C 4.1875 -11.0625 4.429688 -11.515625 4.859375 -11.953125 L 10.125 -17.21875 C 10.5 -17.5625 10.921875 -17.695312 11.390625 -17.625 C 11.867188 -17.5625 12.351562 -17.300781 12.84375 -16.84375 C 14.050781 -15.550781 15.453125 -14.382812 17.046875 -13.34375 C 18.640625 -12.300781 20.328125 -11.476562 22.109375 -10.875 C 23.890625 -10.269531 25.632812 -9.96875 27.34375 -9.96875 C 30.800781 -9.96875 33.445312 -10.640625 35.28125 -11.984375 C 37.113281 -13.335938 38.03125 -15.203125 38.03125 -17.578125 C 38.03125 -19.035156 37.523438 -20.285156 36.515625 -21.328125 C 35.503906 -22.367188 34.039062 -23.320312 32.125 -24.1875 C 30.207031 -25.050781 27.859375 -25.953125 25.078125 -26.890625 C 22.160156 -27.835938 19.566406 -28.859375 17.296875 -29.953125 C 15.023438 -31.046875 13.09375 -32.296875 11.5 -33.703125 C 9.90625 -35.109375 8.695312 -36.738281 7.875 -38.59375 C 7.050781 -40.457031 6.640625 -42.632812 6.640625 -45.125 C 6.640625 -48.601562 7.492188 -51.640625 9.203125 -54.234375 C 10.921875 -56.828125 13.351562 -58.84375 16.5 -60.28125 C 19.644531 -61.726562 23.367188 -62.453125 27.671875 -62.453125 C 29.984375 -62.453125 32.253906 -62.160156 34.484375 -61.578125 C 36.710938 -61.003906 38.75 -60.195312 40.59375 -59.15625 C 42.445312 -58.113281 43.96875 -56.890625 45.15625 -55.484375 C 45.59375 -55.023438 45.816406 -54.523438 45.828125 -53.984375 C 45.835938 -53.453125 45.65625 -52.957031 45.28125 -52.5 L 41.03125 -47.640625 C 40.46875 -46.960938 39.898438 -46.65625 39.328125 -46.71875 C 38.765625 -46.789062 38.15625 -47.039062 37.5 -47.46875 C 36.125 -48.769531 34.5 -49.773438 32.625 -50.484375 C 30.75 -51.203125 28.921875 -51.5625 27.140625 -51.5625 C 24.191406 -51.5625 21.90625 -50.945312 20.28125 -49.71875 C 18.664062 -48.488281 17.859375 -46.914062 17.859375 -45 C 17.859375 -43.457031 18.4375 -42.140625 19.59375 -41.046875 C 20.757812 -39.953125 22.328125 -38.972656 24.296875 -38.109375 C 26.273438 -37.242188 28.460938 -36.410156 30.859375 -35.609375 C 33.347656 -34.796875 35.722656 -33.914062 37.984375 -32.96875 C 40.253906 -32.019531 42.28125 -30.882812 44.0625 -29.5625 C 45.84375 -28.238281 47.253906 -26.617188 48.296875 -24.703125 C 49.335938 -22.785156 49.859375 -20.460938 49.859375 -17.734375 C 49.859375 -14.878906 49.316406 -12.296875 48.234375 -9.984375 C 47.160156 -7.671875 45.644531 -5.695312 43.6875 -4.0625 C 41.726562 -2.4375 39.394531 -1.191406 36.6875 -0.328125 C 33.988281 0.535156 31.019531 0.96875 27.78125 0.96875 Z M 27.78125 0.96875 "/></g></g></g><g fill="#ffffff" fill-opacity="1"><g transform="translate(590.401063, 66.096081)"><g/></g></g><g fill="#ffffff" fill-opacity="1"><g transform="translate(682.863341, 66.096081)"><g><path d="M 88.34375 -61.53125 C 89.019531 -61.53125 89.472656 -61.335938 89.703125 -60.953125 C 89.929688 -60.578125 89.910156 -60.09375 89.640625 -59.5 L 63.234375 -0.96875 C 62.640625 0.300781 61.84375 0.9375 60.84375 0.9375 L 60.671875 0.9375 C 59.648438 0.9375 58.84375 0.300781 58.25 -0.96875 L 45.734375 -28.109375 L 33.5 -0.96875 C 32.90625 0.300781 32.109375 0.9375 31.109375 0.9375 L 30.953125 0.9375 C 29.867188 0.9375 29.054688 0.300781 28.515625 -0.96875 L 2.140625 -59.453125 C 1.867188 -60.078125 1.863281 -60.578125 2.125 -60.953125 C 2.382812 -61.335938 2.851562 -61.53125 3.53125 -61.53125 L 12.15625 -61.53125 C 12.695312 -61.53125 13.140625 -61.378906 13.484375 -61.078125 C 13.835938 -60.785156 14.109375 -60.421875 14.296875 -59.984375 L 31.0625 -21.140625 L 47.796875 -59.984375 C 48.015625 -60.441406 48.296875 -60.8125 48.640625 -61.09375 C 48.992188 -61.382812 49.398438 -61.53125 49.859375 -61.53125 L 58.609375 -61.53125 C 59.285156 -61.53125 59.738281 -61.335938 59.96875 -60.953125 C 60.195312 -60.578125 60.175781 -60.09375 59.90625 -59.5 L 51.71875 -41.390625 L 60.75 -19.640625 L 77.53125 -59.984375 C 77.71875 -60.441406 77.992188 -60.8125 78.359375 -61.09375 C 78.722656 -61.382812 79.132812 -61.53125 79.59375 -61.53125 Z M 88.34375 -61.53125 "/></g></g></g><g fill="#ffffff" fill-opacity="1"><g transform="translate(840.987215, 66.096081)"><g><path d="M 59.453125 -61.609375 C 60.378906 -61.609375 60.84375 -61.148438 60.84375 -60.234375 L 60.84375 -1.296875 C 60.84375 -0.398438 60.378906 0.046875 59.453125 0.046875 L 50.71875 0.046875 C 49.851562 0.046875 49.421875 -0.398438 49.421875 -1.296875 L 49.421875 -19.5625 L 18.796875 -19.5625 L 18.796875 -1.296875 C 18.796875 -0.398438 18.347656 0.046875 17.453125 0.046875 L 8.703125 0.046875 C 7.785156 0.046875 7.328125 -0.398438 7.328125 -1.296875 L 7.328125 -60.234375 C 7.328125 -61.148438 7.785156 -61.609375 8.703125 -61.609375 L 17.453125 -61.609375 C 18.347656 -61.609375 18.796875 -61.148438 18.796875 -60.234375 L 18.796875 -29.609375 L 49.421875 -29.609375 L 49.421875 -60.234375 C 49.421875 -61.148438 49.851562 -61.609375 50.71875 -61.609375 Z M 59.453125 -61.609375 "/></g></g></g><g fill="#ffffff" fill-opacity="1"><g transform="translate(975.510159, 66.096081)"><g><path d="M 3.640625 -30.65625 C 3.640625 -34.226562 4.164062 -37.613281 5.21875 -40.8125 C 6.28125 -44.007812 7.78125 -46.921875 9.71875 -49.546875 C 11.664062 -52.179688 13.960938 -54.460938 16.609375 -56.390625 C 19.253906 -58.328125 22.179688 -59.820312 25.390625 -60.875 C 28.609375 -61.925781 32 -62.453125 35.5625 -62.453125 C 39.125 -62.453125 42.507812 -61.925781 45.71875 -60.875 C 48.9375 -59.820312 51.867188 -58.328125 54.515625 -56.390625 C 57.160156 -54.460938 59.457031 -52.179688 61.40625 -49.546875 C 63.351562 -46.921875 64.851562 -44.007812 65.90625 -40.8125 C 66.957031 -37.613281 67.484375 -34.226562 67.484375 -30.65625 C 67.484375 -27.09375 66.957031 -23.71875 65.90625 -20.53125 C 64.851562 -17.34375 63.351562 -14.4375 61.40625 -11.8125 C 59.457031 -9.195312 57.160156 -6.929688 54.515625 -5.015625 C 51.867188 -3.097656 48.9375 -1.617188 45.71875 -0.578125 C 42.507812 0.453125 39.125 0.96875 35.5625 0.96875 C 32 0.96875 28.609375 0.453125 25.390625 -0.578125 C 22.179688 -1.617188 19.253906 -3.097656 16.609375 -5.015625 C 13.960938 -6.929688 11.664062 -9.195312 9.71875 -11.8125 C 7.78125 -14.4375 6.28125 -17.34375 5.21875 -20.53125 C 4.164062 -23.71875 3.640625 -27.09375 3.640625 -30.65625 Z M 15.0625 -30.65625 C 15.0625 -27.800781 15.582031 -25.148438 16.625 -22.703125 C 17.664062 -20.253906 19.125 -18.113281 21 -16.28125 C 22.875 -14.445312 25.050781 -13.015625 27.53125 -11.984375 C 30.019531 -10.960938 32.695312 -10.453125 35.5625 -10.453125 C 38.445312 -10.453125 41.125 -10.960938 43.59375 -11.984375 C 46.070312 -13.015625 48.25 -14.445312 50.125 -16.28125 C 52 -18.113281 53.457031 -20.253906 54.5 -22.703125 C 55.539062 -25.148438 56.0625 -27.800781 56.0625 -30.65625 C 56.0625 -33.550781 55.535156 -36.234375 54.484375 -38.703125 C 53.429688 -41.171875 51.972656 -43.328125 50.109375 -45.171875 C 48.242188 -47.023438 46.066406 -48.472656 43.578125 -49.515625 C 41.097656 -50.554688 38.425781 -51.078125 35.5625 -51.078125 C 32.695312 -51.078125 30.019531 -50.554688 27.53125 -49.515625 C 25.050781 -48.472656 22.878906 -47.023438 21.015625 -45.171875 C 19.160156 -43.328125 17.703125 -41.171875 16.640625 -38.703125 C 15.585938 -36.234375 15.0625 -33.550781 15.0625 -30.65625 Z M 15.0625 -30.65625 "/></g></g></g></g></g></g><g clip-path="url(#02a6853dce)"><g clip-path="url(#51a74f08b7)"><path fill="url(#99dd52812a)" d="M 70.839844 70.316406 L 70.839844 277.246094 L 135.59375 277.246094 L 135.59375 70.316406 Z M 70.839844 70.316406 " fill-rule="nonzero"/></g></g><g clip-path="url(#ddb10c63e6)"><g clip-path="url(#e869cb1a24)"><path fill="url(#96a7c0a90f)" d="M 130.683594 2.867188 L 75.136719 2.867188 L 75.136719 58.410156 L 130.683594 58.410156 Z M 130.683594 2.867188 " fill-rule="nonzero"/></g></g><g clip-path="url(#8dfb4bde55)"><g clip-path="url(#9e7c41dc07)"><path fill="url(#55c1382f51)" d="M 70.839844 156.695312 L 70.839844 277.246094 L 135.59375 277.246094 L 135.59375 156.695312 Z M 70.839844 156.695312 " fill-rule="nonzero"/></g></g><g clip-path="url(#14d4d99f4d)"><g clip-path="url(#c11965cae9)"><path fill="url(#3ae4b6b047)" d="M 135.59375 230.195312 L 135.59375 277.246094 L 70.839844 277.246094 L 70.839844 230.195312 Z M 135.59375 230.195312 " fill-rule="nonzero"/></g></g></g></g></svg>