<svg xmlns="http://www.w3.org/2000/svg" xmlns:xlink="http://www.w3.org/1999/xlink" width="2000" zoomAndPan="magnify" viewBox="0 0 1500 374.999991" height="500" preserveAspectRatio="xMidYMid meet" version="1.0"><defs><g/><clipPath id="03ebdf0cce"><path d="M 120 0.160156 L 278 0.160156 L 278 183 L 120 183 Z M 120 0.160156 " clip-rule="nonzero"/></clipPath><clipPath id="8991e452a3"><path d="M 343 0.160156 L 502 0.160156 L 502 183 L 343 183 Z M 343 0.160156 " clip-rule="nonzero"/></clipPath><clipPath id="68e3235fae"><path d="M 556 0.160156 L 740 0.160156 L 740 183 L 556 183 Z M 556 0.160156 " clip-rule="nonzero"/></clipPath><clipPath id="11c36d5cb0"><path d="M 946 0.160156 L 1114 0.160156 L 1114 180 L 946 180 Z M 946 0.160156 " clip-rule="nonzero"/></clipPath><clipPath id="8db2ae31f0"><rect x="0" width="1467" y="0" height="211"/></clipPath><clipPath id="f5a22b356c"><rect x="0" width="1322" y="0" height="101"/></clipPath><clipPath id="578f7fca2e"><path d="M 22.03125 85 L 100.648438 85 L 100.648438 336.59375 L 22.03125 336.59375 Z M 22.03125 85 " clip-rule="nonzero"/></clipPath><clipPath id="f9cc6c2b4f"><path d="M 185.195312 213.496094 C 185.195312 191.753906 167.570312 174.132812 145.832031 174.132812 L 126.609375 174.132812 C 113.238281 174.132812 102.402344 163.292969 102.402344 149.925781 L 102.402344 126.761719 C 102.402344 103.898438 83.867188 85.363281 61.003906 85.363281 C 38.140625 85.363281 19.605469 103.898438 19.605469 126.761719 L 19.605469 162.75 C 19.605469 164.714844 16.929688 165.226562 16.160156 163.417969 C 16.136719 163.367188 16.113281 163.3125 16.089844 163.261719 C 9.667969 148.726562 -4.878906 138.582031 -21.792969 138.582031 C -44.65625 138.582031 -63.191406 157.117188 -63.191406 179.980469 L -63.191406 242.675781 L -62.890625 278.761719 C -62.890625 347.238281 -7.378906 402.75 61.09375 402.75 C 129.570312 402.75 185.082031 347.238281 185.082031 278.761719 Z M 185.195312 213.496094 " clip-rule="nonzero"/></clipPath><linearGradient x1="164.001505" gradientTransform="matrix(0.79856, 0, 0, 0.79856, -63.189815, 3.469401)" y1="100.632622" x2="149.156402" gradientUnits="userSpaceOnUse" y2="419.133889" id="c25bb845be"><stop stop-opacity="1" stop-color="rgb(88.62915%, 66.268921%, 94.509888%)" offset="0"/><stop stop-opacity="1" stop-color="rgb(88.676453%, 66.409302%, 94.53125%)" offset="0.0143755"/><stop stop-opacity="1" stop-color="rgb(88.723755%, 66.549683%, 94.554138%)" offset="0.125"/><stop stop-opacity="1" stop-color="rgb(88.777161%, 66.708374%, 94.580078%)" offset="0.132812"/><stop stop-opacity="1" stop-color="rgb(88.883972%, 67.025757%, 94.631958%)" offset="0.140625"/><stop stop-opacity="1" stop-color="rgb(88.990784%, 67.34314%, 94.683838%)" offset="0.148437"/><stop stop-opacity="1" stop-color="rgb(89.099121%, 67.662048%, 94.735718%)" offset="0.15625"/><stop stop-opacity="1" stop-color="rgb(89.205933%, 67.979431%, 94.787598%)" offset="0.164062"/><stop stop-opacity="1" stop-color="rgb(89.312744%, 68.29834%, 94.839478%)" offset="0.171875"/><stop stop-opacity="1" stop-color="rgb(89.419556%, 68.615723%, 94.891357%)" offset="0.179687"/><stop stop-opacity="1" stop-color="rgb(89.527893%, 68.933105%, 94.943237%)" offset="0.1875"/><stop stop-opacity="1" stop-color="rgb(89.634705%, 69.252014%, 94.995117%)" offset="0.195312"/><stop stop-opacity="1" stop-color="rgb(89.741516%, 69.569397%, 95.046997%)" offset="0.203125"/><stop stop-opacity="1" stop-color="rgb(89.848328%, 69.88678%, 95.097351%)" offset="0.210937"/><stop stop-opacity="1" stop-color="rgb(89.956665%, 70.205688%, 95.149231%)" offset="0.21875"/><stop stop-opacity="1" stop-color="rgb(90.063477%, 70.523071%, 95.201111%)" offset="0.226562"/><stop stop-opacity="1" stop-color="rgb(90.170288%, 70.840454%, 95.252991%)" offset="0.234375"/><stop stop-opacity="1" stop-color="rgb(90.2771%, 71.159363%, 95.304871%)" offset="0.242188"/><stop stop-opacity="1" stop-color="rgb(90.383911%, 71.476746%, 95.35675%)" offset="0.25"/><stop stop-opacity="1" stop-color="rgb(90.492249%, 71.795654%, 95.40863%)" offset="0.257812"/><stop stop-opacity="1" stop-color="rgb(90.59906%, 72.113037%, 95.46051%)" offset="0.265625"/><stop stop-opacity="1" stop-color="rgb(90.705872%, 72.43042%, 95.51239%)" offset="0.273438"/><stop stop-opacity="1" stop-color="rgb(90.812683%, 72.749329%, 95.56427%)" offset="0.28125"/><stop stop-opacity="1" stop-color="rgb(90.921021%, 73.066711%, 95.61615%)" offset="0.289062"/><stop stop-opacity="1" stop-color="rgb(91.027832%, 73.384094%, 95.66803%)" offset="0.296875"/><stop stop-opacity="1" stop-color="rgb(91.134644%, 73.703003%, 95.718384%)" offset="0.304687"/><stop stop-opacity="1" stop-color="rgb(91.241455%, 74.020386%, 95.770264%)" offset="0.3125"/><stop stop-opacity="1" stop-color="rgb(91.349792%, 74.337769%, 95.822144%)" offset="0.320312"/><stop stop-opacity="1" stop-color="rgb(91.456604%, 74.656677%, 95.874023%)" offset="0.328125"/><stop stop-opacity="1" stop-color="rgb(91.563416%, 74.97406%, 95.925903%)" offset="0.335937"/><stop stop-opacity="1" stop-color="rgb(91.670227%, 75.292969%, 95.977783%)" offset="0.34375"/><stop stop-opacity="1" stop-color="rgb(91.778564%, 75.610352%, 96.029663%)" offset="0.351562"/><stop stop-opacity="1" stop-color="rgb(91.885376%, 75.927734%, 96.081543%)" offset="0.359375"/><stop stop-opacity="1" stop-color="rgb(91.992188%, 76.246643%, 96.133423%)" offset="0.367188"/><stop stop-opacity="1" stop-color="rgb(92.098999%, 76.564026%, 96.185303%)" offset="0.375"/><stop stop-opacity="1" stop-color="rgb(92.207336%, 76.881409%, 96.237183%)" offset="0.382812"/><stop stop-opacity="1" stop-color="rgb(92.314148%, 77.200317%, 96.289062%)" offset="0.390625"/><stop stop-opacity="1" stop-color="rgb(92.420959%, 77.5177%, 96.339417%)" offset="0.398438"/><stop stop-opacity="1" stop-color="rgb(92.527771%, 77.835083%, 96.391296%)" offset="0.40625"/><stop stop-opacity="1" stop-color="rgb(92.634583%, 78.153992%, 96.443176%)" offset="0.414063"/><stop stop-opacity="1" stop-color="rgb(92.74292%, 78.471375%, 96.495056%)" offset="0.421875"/><stop stop-opacity="1" stop-color="rgb(92.849731%, 78.790283%, 96.546936%)" offset="0.429688"/><stop stop-opacity="1" stop-color="rgb(92.956543%, 79.107666%, 96.598816%)" offset="0.4375"/><stop stop-opacity="1" stop-color="rgb(93.063354%, 79.425049%, 96.650696%)" offset="0.445312"/><stop stop-opacity="1" stop-color="rgb(93.171692%, 79.743958%, 96.702576%)" offset="0.453125"/><stop stop-opacity="1" stop-color="rgb(93.278503%, 80.06134%, 96.754456%)" offset="0.460937"/><stop stop-opacity="1" stop-color="rgb(93.385315%, 80.378723%, 96.806335%)" offset="0.46875"/><stop stop-opacity="1" stop-color="rgb(93.492126%, 80.697632%, 96.858215%)" offset="0.476562"/><stop stop-opacity="1" stop-color="rgb(93.600464%, 81.015015%, 96.908569%)" offset="0.484375"/><stop stop-opacity="1" stop-color="rgb(93.707275%, 81.332397%, 96.960449%)" offset="0.492188"/><stop stop-opacity="1" stop-color="rgb(93.814087%, 81.651306%, 97.012329%)" offset="0.5"/><stop stop-opacity="1" stop-color="rgb(93.920898%, 81.968689%, 97.064209%)" offset="0.507812"/><stop stop-opacity="1" stop-color="rgb(94.029236%, 82.287598%, 97.116089%)" offset="0.515625"/><stop stop-opacity="1" stop-color="rgb(94.136047%, 82.60498%, 97.167969%)" offset="0.523438"/><stop stop-opacity="1" stop-color="rgb(94.242859%, 82.922363%, 97.219849%)" offset="0.53125"/><stop stop-opacity="1" stop-color="rgb(94.34967%, 83.241272%, 97.271729%)" offset="0.539062"/><stop stop-opacity="1" stop-color="rgb(94.456482%, 83.558655%, 97.323608%)" offset="0.546875"/><stop stop-opacity="1" stop-color="rgb(94.564819%, 83.876038%, 97.375488%)" offset="0.554688"/><stop stop-opacity="1" stop-color="rgb(94.671631%, 84.194946%, 97.427368%)" offset="0.5625"/><stop stop-opacity="1" stop-color="rgb(94.778442%, 84.512329%, 97.479248%)" offset="0.570312"/><stop stop-opacity="1" stop-color="rgb(94.885254%, 84.829712%, 97.529602%)" offset="0.578125"/><stop stop-opacity="1" stop-color="rgb(94.993591%, 85.148621%, 97.581482%)" offset="0.585938"/><stop stop-opacity="1" stop-color="rgb(95.100403%, 85.466003%, 97.633362%)" offset="0.59375"/><stop stop-opacity="1" stop-color="rgb(95.207214%, 85.784912%, 97.685242%)" offset="0.601563"/><stop stop-opacity="1" stop-color="rgb(95.314026%, 86.102295%, 97.737122%)" offset="0.609375"/><stop stop-opacity="1" stop-color="rgb(95.422363%, 86.419678%, 97.789001%)" offset="0.617188"/><stop stop-opacity="1" stop-color="rgb(95.529175%, 86.738586%, 97.840881%)" offset="0.625"/><stop stop-opacity="1" stop-color="rgb(95.635986%, 87.055969%, 97.892761%)" offset="0.632812"/><stop stop-opacity="1" stop-color="rgb(95.742798%, 87.373352%, 97.944641%)" offset="0.640625"/><stop stop-opacity="1" stop-color="rgb(95.851135%, 87.692261%, 97.996521%)" offset="0.648437"/><stop stop-opacity="1" stop-color="rgb(95.957947%, 88.009644%, 98.048401%)" offset="0.65625"/><stop stop-opacity="1" stop-color="rgb(96.064758%, 88.327026%, 98.100281%)" offset="0.664062"/><stop stop-opacity="1" stop-color="rgb(96.17157%, 88.645935%, 98.150635%)" offset="0.671875"/><stop stop-opacity="1" stop-color="rgb(96.279907%, 88.963318%, 98.202515%)" offset="0.679688"/><stop stop-opacity="1" stop-color="rgb(96.386719%, 89.282227%, 98.254395%)" offset="0.6875"/><stop stop-opacity="1" stop-color="rgb(96.49353%, 89.599609%, 98.306274%)" offset="0.695312"/><stop stop-opacity="1" stop-color="rgb(96.600342%, 89.916992%, 98.358154%)" offset="0.703125"/><stop stop-opacity="1" stop-color="rgb(96.707153%, 90.235901%, 98.410034%)" offset="0.710938"/><stop stop-opacity="1" stop-color="rgb(96.815491%, 90.553284%, 98.461914%)" offset="0.71875"/><stop stop-opacity="1" stop-color="rgb(96.922302%, 90.870667%, 98.513794%)" offset="0.726562"/><stop stop-opacity="1" stop-color="rgb(97.029114%, 91.189575%, 98.565674%)" offset="0.734375"/><stop stop-opacity="1" stop-color="rgb(97.135925%, 91.506958%, 98.617554%)" offset="0.742188"/><stop stop-opacity="1" stop-color="rgb(97.244263%, 91.824341%, 98.669434%)" offset="0.75"/><stop stop-opacity="1" stop-color="rgb(97.351074%, 92.14325%, 98.719788%)" offset="0.757812"/><stop stop-opacity="1" stop-color="rgb(97.457886%, 92.460632%, 98.771667%)" offset="0.765625"/><stop stop-opacity="1" stop-color="rgb(97.564697%, 92.779541%, 98.823547%)" offset="0.773438"/><stop stop-opacity="1" stop-color="rgb(97.673035%, 93.096924%, 98.875427%)" offset="0.78125"/><stop stop-opacity="1" stop-color="rgb(97.779846%, 93.414307%, 98.927307%)" offset="0.789062"/><stop stop-opacity="1" stop-color="rgb(97.886658%, 93.733215%, 98.979187%)" offset="0.796875"/><stop stop-opacity="1" stop-color="rgb(97.993469%, 94.050598%, 99.031067%)" offset="0.804688"/><stop stop-opacity="1" stop-color="rgb(98.101807%, 94.367981%, 99.082947%)" offset="0.8125"/><stop stop-opacity="1" stop-color="rgb(98.208618%, 94.68689%, 99.134827%)" offset="0.820312"/><stop stop-opacity="1" stop-color="rgb(98.31543%, 95.004272%, 99.186707%)" offset="0.828125"/><stop stop-opacity="1" stop-color="rgb(98.422241%, 95.321655%, 99.238586%)" offset="0.835938"/><stop stop-opacity="1" stop-color="rgb(98.529053%, 95.640564%, 99.290466%)" offset="0.84375"/><stop stop-opacity="1" stop-color="rgb(98.63739%, 95.957947%, 99.34082%)" offset="0.851563"/><stop stop-opacity="1" stop-color="rgb(98.744202%, 96.276855%, 99.3927%)" offset="0.859375"/><stop stop-opacity="1" stop-color="rgb(98.851013%, 96.594238%, 99.44458%)" offset="0.867188"/><stop stop-opacity="1" stop-color="rgb(98.957825%, 96.911621%, 99.49646%)" offset="0.875"/><stop stop-opacity="1" stop-color="rgb(99.066162%, 97.23053%, 99.54834%)" offset="0.882812"/><stop stop-opacity="1" stop-color="rgb(99.172974%, 97.547913%, 99.60022%)" offset="0.890625"/><stop stop-opacity="1" stop-color="rgb(99.279785%, 97.865295%, 99.6521%)" offset="0.898437"/><stop stop-opacity="1" stop-color="rgb(99.386597%, 98.184204%, 99.703979%)" offset="0.90625"/><stop stop-opacity="1" stop-color="rgb(99.494934%, 98.501587%, 99.755859%)" offset="0.914062"/><stop stop-opacity="1" stop-color="rgb(99.601746%, 98.81897%, 99.807739%)" offset="0.921875"/><stop stop-opacity="1" stop-color="rgb(99.708557%, 99.137878%, 99.859619%)" offset="0.929688"/><stop stop-opacity="1" stop-color="rgb(99.815369%, 99.455261%, 99.909973%)" offset="0.9375"/><stop stop-opacity="1" stop-color="rgb(99.934387%, 99.807739%, 99.967957%)" offset="0.985624"/><stop stop-opacity="1" stop-color="rgb(100%, 100%, 100%)" offset="1"/></linearGradient><clipPath id="1c422e0292"><path d="M 27 3.410156 L 95 3.410156 L 95 71 L 27 71 Z M 27 3.410156 " clip-rule="nonzero"/></clipPath><clipPath id="9e353f5a20"><path d="M 94.691406 37.1875 C 94.691406 38.292969 94.636719 39.394531 94.527344 40.492188 C 94.417969 41.59375 94.257812 42.683594 94.042969 43.765625 C 93.824219 44.851562 93.558594 45.921875 93.238281 46.976562 C 92.917969 48.035156 92.546875 49.070312 92.121094 50.09375 C 91.699219 51.113281 91.230469 52.109375 90.707031 53.082031 C 90.1875 54.058594 89.621094 55.003906 89.007812 55.921875 C 88.394531 56.839844 87.734375 57.726562 87.035156 58.578125 C 86.335938 59.433594 85.59375 60.25 84.8125 61.03125 C 84.03125 61.8125 83.214844 62.554688 82.363281 63.253906 C 81.507812 63.953125 80.621094 64.613281 79.703125 65.226562 C 78.785156 65.839844 77.839844 66.40625 76.867188 66.925781 C 75.890625 67.445312 74.894531 67.917969 73.875 68.339844 C 72.855469 68.765625 71.816406 69.136719 70.757812 69.457031 C 69.703125 69.777344 68.632812 70.042969 67.546875 70.261719 C 66.464844 70.476562 65.375 70.636719 64.273438 70.746094 C 63.175781 70.855469 62.074219 70.90625 60.96875 70.90625 C 59.867188 70.90625 58.765625 70.855469 57.664062 70.746094 C 56.566406 70.636719 55.476562 70.476562 54.390625 70.261719 C 53.308594 70.042969 52.238281 69.777344 51.183594 69.457031 C 50.125 69.136719 49.085938 68.765625 48.066406 68.339844 C 47.046875 67.917969 46.050781 67.445312 45.074219 66.925781 C 44.101562 66.40625 43.15625 65.839844 42.238281 65.226562 C 41.320312 64.613281 40.433594 63.953125 39.578125 63.253906 C 38.726562 62.554688 37.90625 61.8125 37.128906 61.03125 C 36.347656 60.25 35.605469 59.433594 34.90625 58.578125 C 34.203125 57.726562 33.546875 56.839844 32.933594 55.921875 C 32.320312 55.003906 31.753906 54.058594 31.234375 53.082031 C 30.710938 52.109375 30.242188 51.113281 29.816406 50.09375 C 29.394531 49.070312 29.023438 48.035156 28.703125 46.976562 C 28.382812 45.921875 28.113281 44.851562 27.898438 43.765625 C 27.683594 42.683594 27.523438 41.59375 27.414062 40.492188 C 27.304688 39.394531 27.25 38.292969 27.25 37.1875 C 27.25 36.085938 27.304688 34.984375 27.414062 33.882812 C 27.523438 32.785156 27.683594 31.695312 27.898438 30.609375 C 28.113281 29.527344 28.382812 28.457031 28.703125 27.402344 C 29.023438 26.34375 29.394531 25.304688 29.816406 24.285156 C 30.242188 23.265625 30.710938 22.265625 31.234375 21.292969 C 31.753906 20.320312 32.320312 19.375 32.933594 18.457031 C 33.546875 17.535156 34.203125 16.652344 34.90625 15.796875 C 35.605469 14.945312 36.347656 14.125 37.128906 13.34375 C 37.90625 12.566406 38.726562 11.824219 39.578125 11.125 C 40.433594 10.421875 41.320312 9.765625 42.238281 9.152344 C 43.15625 8.539062 44.101562 7.972656 45.074219 7.449219 C 46.050781 6.929688 47.046875 6.457031 48.066406 6.035156 C 49.085938 5.613281 50.125 5.242188 51.183594 4.921875 C 52.238281 4.601562 53.308594 4.332031 54.390625 4.117188 C 55.476562 3.902344 56.566406 3.738281 57.664062 3.632812 C 58.765625 3.523438 59.867188 3.46875 60.96875 3.46875 C 62.074219 3.46875 63.175781 3.523438 64.273438 3.632812 C 65.375 3.738281 66.464844 3.902344 67.546875 4.117188 C 68.632812 4.332031 69.703125 4.601562 70.757812 4.921875 C 71.816406 5.242188 72.855469 5.613281 73.875 6.035156 C 74.894531 6.457031 75.890625 6.929688 76.867188 7.449219 C 77.839844 7.972656 78.785156 8.539062 79.703125 9.152344 C 80.621094 9.765625 81.507812 10.421875 82.363281 11.125 C 83.214844 11.824219 84.03125 12.566406 84.8125 13.34375 C 85.59375 14.125 86.335938 14.945312 87.035156 15.796875 C 87.734375 16.652344 88.394531 17.535156 89.007812 18.457031 C 89.621094 19.375 90.1875 20.320312 90.707031 21.292969 C 91.230469 22.265625 91.699219 23.265625 92.121094 24.285156 C 92.546875 25.304688 92.917969 26.34375 93.238281 27.402344 C 93.558594 28.457031 93.824219 29.527344 94.042969 30.609375 C 94.257812 31.695312 94.417969 32.785156 94.527344 33.882812 C 94.636719 34.984375 94.691406 36.085938 94.691406 37.1875 Z M 94.691406 37.1875 " clip-rule="nonzero"/></clipPath><linearGradient x1="54.092" gradientTransform="matrix(0, 0.79856, -0.79856, 0, 141.953886, -39.726315)" y1="101.411003" x2="138.541997" gradientUnits="userSpaceOnUse" y2="101.411003" id="701404f030"><stop stop-opacity="1" stop-color="rgb(88.62915%, 66.268921%, 94.509888%)" offset="0"/><stop stop-opacity="1" stop-color="rgb(88.62915%, 66.268921%, 94.509888%)" offset="0.25"/><stop stop-opacity="1" stop-color="rgb(88.671875%, 66.395569%, 94.529724%)" offset="0.28125"/><stop stop-opacity="1" stop-color="rgb(88.75885%, 66.653442%, 94.572449%)" offset="0.289063"/><stop stop-opacity="1" stop-color="rgb(88.847351%, 66.917419%, 94.615173%)" offset="0.296875"/><stop stop-opacity="1" stop-color="rgb(88.935852%, 67.181396%, 94.657898%)" offset="0.304688"/><stop stop-opacity="1" stop-color="rgb(89.025879%, 67.443848%, 94.700623%)" offset="0.3125"/><stop stop-opacity="1" stop-color="rgb(89.11438%, 67.707825%, 94.743347%)" offset="0.320312"/><stop stop-opacity="1" stop-color="rgb(89.202881%, 67.971802%, 94.786072%)" offset="0.328125"/><stop stop-opacity="1" stop-color="rgb(89.291382%, 68.234253%, 94.828796%)" offset="0.335938"/><stop stop-opacity="1" stop-color="rgb(89.381409%, 68.49823%, 94.871521%)" offset="0.34375"/><stop stop-opacity="1" stop-color="rgb(89.46991%, 68.762207%, 94.914246%)" offset="0.351562"/><stop stop-opacity="1" stop-color="rgb(89.558411%, 69.026184%, 94.958496%)" offset="0.359375"/><stop stop-opacity="1" stop-color="rgb(89.646912%, 69.288635%, 95.001221%)" offset="0.367188"/><stop stop-opacity="1" stop-color="rgb(89.735413%, 69.552612%, 95.043945%)" offset="0.375"/><stop stop-opacity="1" stop-color="rgb(89.825439%, 69.816589%, 95.08667%)" offset="0.382813"/><stop stop-opacity="1" stop-color="rgb(89.91394%, 70.079041%, 95.129395%)" offset="0.390625"/><stop stop-opacity="1" stop-color="rgb(90.002441%, 70.343018%, 95.172119%)" offset="0.398438"/><stop stop-opacity="1" stop-color="rgb(90.090942%, 70.606995%, 95.214844%)" offset="0.40625"/><stop stop-opacity="1" stop-color="rgb(90.179443%, 70.869446%, 95.257568%)" offset="0.414062"/><stop stop-opacity="1" stop-color="rgb(90.26947%, 71.133423%, 95.300293%)" offset="0.421875"/><stop stop-opacity="1" stop-color="rgb(90.357971%, 71.3974%, 95.344543%)" offset="0.429688"/><stop stop-opacity="1" stop-color="rgb(90.446472%, 71.661377%, 95.387268%)" offset="0.4375"/><stop stop-opacity="1" stop-color="rgb(90.534973%, 71.923828%, 95.429993%)" offset="0.445312"/><stop stop-opacity="1" stop-color="rgb(90.625%, 72.187805%, 95.472717%)" offset="0.453125"/><stop stop-opacity="1" stop-color="rgb(90.713501%, 72.451782%, 95.515442%)" offset="0.460938"/><stop stop-opacity="1" stop-color="rgb(90.802002%, 72.714233%, 95.558167%)" offset="0.46875"/><stop stop-opacity="1" stop-color="rgb(90.890503%, 72.97821%, 95.600891%)" offset="0.476562"/><stop stop-opacity="1" stop-color="rgb(90.979004%, 73.242188%, 95.643616%)" offset="0.484375"/><stop stop-opacity="1" stop-color="rgb(91.069031%, 73.504639%, 95.68634%)" offset="0.492188"/><stop stop-opacity="1" stop-color="rgb(91.157532%, 73.768616%, 95.730591%)" offset="0.5"/><stop stop-opacity="1" stop-color="rgb(91.246033%, 74.032593%, 95.773315%)" offset="0.507812"/><stop stop-opacity="1" stop-color="rgb(91.334534%, 74.295044%, 95.81604%)" offset="0.515625"/><stop stop-opacity="1" stop-color="rgb(91.423035%, 74.559021%, 95.858765%)" offset="0.523438"/><stop stop-opacity="1" stop-color="rgb(91.513062%, 74.822998%, 95.901489%)" offset="0.53125"/><stop stop-opacity="1" stop-color="rgb(91.601562%, 75.086975%, 95.944214%)" offset="0.539062"/><stop stop-opacity="1" stop-color="rgb(91.690063%, 75.349426%, 95.986938%)" offset="0.546875"/><stop stop-opacity="1" stop-color="rgb(91.778564%, 75.613403%, 96.029663%)" offset="0.554688"/><stop stop-opacity="1" stop-color="rgb(91.868591%, 75.87738%, 96.072388%)" offset="0.5625"/><stop stop-opacity="1" stop-color="rgb(91.957092%, 76.139832%, 96.116638%)" offset="0.570312"/><stop stop-opacity="1" stop-color="rgb(92.045593%, 76.403809%, 96.159363%)" offset="0.578125"/><stop stop-opacity="1" stop-color="rgb(92.134094%, 76.667786%, 96.202087%)" offset="0.585938"/><stop stop-opacity="1" stop-color="rgb(92.222595%, 76.930237%, 96.244812%)" offset="0.59375"/><stop stop-opacity="1" stop-color="rgb(92.312622%, 77.194214%, 96.287537%)" offset="0.601563"/><stop stop-opacity="1" stop-color="rgb(92.401123%, 77.458191%, 96.330261%)" offset="0.609375"/><stop stop-opacity="1" stop-color="rgb(92.489624%, 77.722168%, 96.372986%)" offset="0.617188"/><stop stop-opacity="1" stop-color="rgb(92.578125%, 77.984619%, 96.41571%)" offset="0.625"/><stop stop-opacity="1" stop-color="rgb(92.666626%, 78.248596%, 96.458435%)" offset="0.632812"/><stop stop-opacity="1" stop-color="rgb(92.756653%, 78.512573%, 96.50116%)" offset="0.640625"/><stop stop-opacity="1" stop-color="rgb(92.845154%, 78.775024%, 96.54541%)" offset="0.648438"/><stop stop-opacity="1" stop-color="rgb(92.933655%, 79.039001%, 96.588135%)" offset="0.65625"/><stop stop-opacity="1" stop-color="rgb(93.022156%, 79.302979%, 96.630859%)" offset="0.664063"/><stop stop-opacity="1" stop-color="rgb(93.112183%, 79.56543%, 96.673584%)" offset="0.671875"/><stop stop-opacity="1" stop-color="rgb(93.200684%, 79.829407%, 96.716309%)" offset="0.679687"/><stop stop-opacity="1" stop-color="rgb(93.289185%, 80.093384%, 96.759033%)" offset="0.6875"/><stop stop-opacity="1" stop-color="rgb(93.377686%, 80.355835%, 96.801758%)" offset="0.695312"/><stop stop-opacity="1" stop-color="rgb(93.466187%, 80.619812%, 96.844482%)" offset="0.703125"/><stop stop-opacity="1" stop-color="rgb(93.556213%, 80.883789%, 96.887207%)" offset="0.710938"/><stop stop-opacity="1" stop-color="rgb(93.644714%, 81.147766%, 96.931458%)" offset="0.71875"/><stop stop-opacity="1" stop-color="rgb(93.733215%, 81.410217%, 96.974182%)" offset="0.726563"/><stop stop-opacity="1" stop-color="rgb(93.821716%, 81.674194%, 97.016907%)" offset="0.734375"/><stop stop-opacity="1" stop-color="rgb(93.910217%, 81.938171%, 97.059631%)" offset="0.742188"/><stop stop-opacity="1" stop-color="rgb(94.000244%, 82.200623%, 97.102356%)" offset="0.75"/><stop stop-opacity="1" stop-color="rgb(94.088745%, 82.4646%, 97.145081%)" offset="0.757812"/><stop stop-opacity="1" stop-color="rgb(94.177246%, 82.728577%, 97.187805%)" offset="0.765625"/><stop stop-opacity="1" stop-color="rgb(94.265747%, 82.991028%, 97.23053%)" offset="0.773438"/><stop stop-opacity="1" stop-color="rgb(94.355774%, 83.255005%, 97.273254%)" offset="0.78125"/><stop stop-opacity="1" stop-color="rgb(94.444275%, 83.518982%, 97.317505%)" offset="0.789063"/><stop stop-opacity="1" stop-color="rgb(94.532776%, 83.782959%, 97.360229%)" offset="0.796875"/><stop stop-opacity="1" stop-color="rgb(94.621277%, 84.04541%, 97.402954%)" offset="0.804688"/><stop stop-opacity="1" stop-color="rgb(94.709778%, 84.309387%, 97.445679%)" offset="0.8125"/><stop stop-opacity="1" stop-color="rgb(94.799805%, 84.573364%, 97.488403%)" offset="0.820313"/><stop stop-opacity="1" stop-color="rgb(94.888306%, 84.835815%, 97.531128%)" offset="0.828125"/><stop stop-opacity="1" stop-color="rgb(94.976807%, 85.099792%, 97.573853%)" offset="0.835938"/><stop stop-opacity="1" stop-color="rgb(95.065308%, 85.36377%, 97.616577%)" offset="0.84375"/><stop stop-opacity="1" stop-color="rgb(95.153809%, 85.626221%, 97.659302%)" offset="0.851563"/><stop stop-opacity="1" stop-color="rgb(95.243835%, 85.890198%, 97.703552%)" offset="0.859375"/><stop stop-opacity="1" stop-color="rgb(95.332336%, 86.154175%, 97.746277%)" offset="0.867188"/><stop stop-opacity="1" stop-color="rgb(95.420837%, 86.416626%, 97.789001%)" offset="0.875"/><stop stop-opacity="1" stop-color="rgb(95.509338%, 86.680603%, 97.831726%)" offset="0.882813"/><stop stop-opacity="1" stop-color="rgb(95.599365%, 86.94458%, 97.874451%)" offset="0.890625"/><stop stop-opacity="1" stop-color="rgb(95.687866%, 87.208557%, 97.917175%)" offset="0.898438"/><stop stop-opacity="1" stop-color="rgb(95.776367%, 87.471008%, 97.9599%)" offset="0.90625"/><stop stop-opacity="1" stop-color="rgb(95.864868%, 87.734985%, 98.002625%)" offset="0.914063"/><stop stop-opacity="1" stop-color="rgb(95.953369%, 87.998962%, 98.045349%)" offset="0.921875"/><stop stop-opacity="1" stop-color="rgb(96.043396%, 88.261414%, 98.0896%)" offset="0.929688"/><stop stop-opacity="1" stop-color="rgb(96.131897%, 88.525391%, 98.132324%)" offset="0.9375"/><stop stop-opacity="1" stop-color="rgb(96.220398%, 88.789368%, 98.175049%)" offset="0.945313"/><stop stop-opacity="1" stop-color="rgb(96.308899%, 89.051819%, 98.217773%)" offset="0.953125"/><stop stop-opacity="1" stop-color="rgb(96.3974%, 89.315796%, 98.260498%)" offset="0.960938"/><stop stop-opacity="1" stop-color="rgb(96.487427%, 89.579773%, 98.303223%)" offset="0.96875"/><stop stop-opacity="1" stop-color="rgb(96.575928%, 89.84375%, 98.345947%)" offset="0.976562"/><stop stop-opacity="1" stop-color="rgb(96.664429%, 90.106201%, 98.388672%)" offset="0.984375"/><stop stop-opacity="1" stop-color="rgb(96.75293%, 90.370178%, 98.431396%)" offset="0.992188"/><stop stop-opacity="1" stop-color="rgb(96.841431%, 90.634155%, 98.474121%)" offset="1"/></linearGradient><clipPath id="dad2c69a9d"><path d="M 22.03125 203 L 100.648438 203 L 100.648438 336.59375 L 22.03125 336.59375 Z M 22.03125 203 " clip-rule="nonzero"/></clipPath><clipPath id="cbb1c46529"><path d="M -63.191406 220.601562 C -63.191406 220.601562 -27.003906 190.230469 11.898438 209.289062 C 50.804688 228.34375 46.636719 242.039062 75.816406 232.511719 C 104.996094 222.984375 110.949219 217.027344 134.175781 232.511719 C 157.398438 247.996094 185.082031 229.535156 185.082031 229.535156 L 185.082031 278.613281 C 185.082031 347.171875 129.503906 402.75 60.945312 402.75 C -7.613281 402.75 -63.191406 347.171875 -63.191406 278.613281 Z M -63.191406 220.601562 " clip-rule="nonzero"/></clipPath><linearGradient x1="156.151822" gradientTransform="matrix(0.79856, 0, 0, 0.79856, -63.189815, 3.469401)" y1="233.415907" x2="154.430567" gradientUnits="userSpaceOnUse" y2="417.601748" id="e821bb5293"><stop stop-opacity="1" stop-color="rgb(88.62915%, 66.268921%, 94.509888%)" offset="0"/><stop stop-opacity="1" stop-color="rgb(88.62915%, 66.268921%, 94.509888%)" offset="0.00499459"/><stop stop-opacity="1" stop-color="rgb(88.62915%, 66.268921%, 94.509888%)" offset="0.125"/><stop stop-opacity="1" stop-color="rgb(88.62915%, 66.268921%, 94.509888%)" offset="0.15625"/><stop stop-opacity="1" stop-color="rgb(88.648987%, 66.32843%, 94.519043%)" offset="0.171875"/><stop stop-opacity="1" stop-color="rgb(88.703918%, 66.490173%, 94.544983%)" offset="0.179688"/><stop stop-opacity="1" stop-color="rgb(88.772583%, 66.693115%, 94.578552%)" offset="0.1875"/><stop stop-opacity="1" stop-color="rgb(88.839722%, 66.896057%, 94.610596%)" offset="0.195312"/><stop stop-opacity="1" stop-color="rgb(88.908386%, 67.098999%, 94.644165%)" offset="0.203125"/><stop stop-opacity="1" stop-color="rgb(88.977051%, 67.301941%, 94.677734%)" offset="0.210938"/><stop stop-opacity="1" stop-color="rgb(89.045715%, 67.504883%, 94.709778%)" offset="0.21875"/><stop stop-opacity="1" stop-color="rgb(89.11438%, 67.707825%, 94.743347%)" offset="0.226563"/><stop stop-opacity="1" stop-color="rgb(89.181519%, 67.910767%, 94.775391%)" offset="0.234375"/><stop stop-opacity="1" stop-color="rgb(89.250183%, 68.112183%, 94.80896%)" offset="0.242188"/><stop stop-opacity="1" stop-color="rgb(89.318848%, 68.315125%, 94.842529%)" offset="0.25"/><stop stop-opacity="1" stop-color="rgb(89.387512%, 68.518066%, 94.874573%)" offset="0.257812"/><stop stop-opacity="1" stop-color="rgb(89.454651%, 68.721008%, 94.908142%)" offset="0.265625"/><stop stop-opacity="1" stop-color="rgb(89.523315%, 68.92395%, 94.941711%)" offset="0.273438"/><stop stop-opacity="1" stop-color="rgb(89.59198%, 69.126892%, 94.973755%)" offset="0.28125"/><stop stop-opacity="1" stop-color="rgb(89.660645%, 69.329834%, 95.007324%)" offset="0.289062"/><stop stop-opacity="1" stop-color="rgb(89.729309%, 69.532776%, 95.040894%)" offset="0.296875"/><stop stop-opacity="1" stop-color="rgb(89.796448%, 69.735718%, 95.072937%)" offset="0.304688"/><stop stop-opacity="1" stop-color="rgb(89.865112%, 69.937134%, 95.106506%)" offset="0.3125"/><stop stop-opacity="1" stop-color="rgb(89.933777%, 70.140076%, 95.13855%)" offset="0.320313"/><stop stop-opacity="1" stop-color="rgb(90.002441%, 70.343018%, 95.172119%)" offset="0.328125"/><stop stop-opacity="1" stop-color="rgb(90.071106%, 70.545959%, 95.205688%)" offset="0.335938"/><stop stop-opacity="1" stop-color="rgb(90.138245%, 70.748901%, 95.237732%)" offset="0.34375"/><stop stop-opacity="1" stop-color="rgb(90.206909%, 70.951843%, 95.271301%)" offset="0.351562"/><stop stop-opacity="1" stop-color="rgb(90.275574%, 71.154785%, 95.304871%)" offset="0.359375"/><stop stop-opacity="1" stop-color="rgb(90.344238%, 71.357727%, 95.336914%)" offset="0.367188"/><stop stop-opacity="1" stop-color="rgb(90.412903%, 71.559143%, 95.370483%)" offset="0.375"/><stop stop-opacity="1" stop-color="rgb(90.480042%, 71.762085%, 95.402527%)" offset="0.382813"/><stop stop-opacity="1" stop-color="rgb(90.548706%, 71.965027%, 95.436096%)" offset="0.390625"/><stop stop-opacity="1" stop-color="rgb(90.617371%, 72.167969%, 95.469666%)" offset="0.398438"/><stop stop-opacity="1" stop-color="rgb(90.686035%, 72.370911%, 95.501709%)" offset="0.40625"/><stop stop-opacity="1" stop-color="rgb(90.7547%, 72.573853%, 95.535278%)" offset="0.414062"/><stop stop-opacity="1" stop-color="rgb(90.821838%, 72.776794%, 95.568848%)" offset="0.421875"/><stop stop-opacity="1" stop-color="rgb(90.890503%, 72.979736%, 95.600891%)" offset="0.429688"/><stop stop-opacity="1" stop-color="rgb(90.959167%, 73.182678%, 95.63446%)" offset="0.4375"/><stop stop-opacity="1" stop-color="rgb(91.027832%, 73.384094%, 95.666504%)" offset="0.445313"/><stop stop-opacity="1" stop-color="rgb(91.096497%, 73.587036%, 95.700073%)" offset="0.453125"/><stop stop-opacity="1" stop-color="rgb(91.163635%, 73.789978%, 95.733643%)" offset="0.460938"/><stop stop-opacity="1" stop-color="rgb(91.2323%, 73.99292%, 95.765686%)" offset="0.46875"/><stop stop-opacity="1" stop-color="rgb(91.300964%, 74.195862%, 95.799255%)" offset="0.476562"/><stop stop-opacity="1" stop-color="rgb(91.369629%, 74.398804%, 95.832825%)" offset="0.484375"/><stop stop-opacity="1" stop-color="rgb(91.436768%, 74.601746%, 95.864868%)" offset="0.492188"/><stop stop-opacity="1" stop-color="rgb(91.505432%, 74.804688%, 95.898438%)" offset="0.5"/><stop stop-opacity="1" stop-color="rgb(91.574097%, 75.006104%, 95.930481%)" offset="0.507812"/><stop stop-opacity="1" stop-color="rgb(91.642761%, 75.209045%, 95.96405%)" offset="0.515625"/><stop stop-opacity="1" stop-color="rgb(91.711426%, 75.411987%, 95.99762%)" offset="0.523438"/><stop stop-opacity="1" stop-color="rgb(91.778564%, 75.614929%, 96.029663%)" offset="0.53125"/><stop stop-opacity="1" stop-color="rgb(91.847229%, 75.817871%, 96.063232%)" offset="0.539062"/><stop stop-opacity="1" stop-color="rgb(91.915894%, 76.020813%, 96.096802%)" offset="0.546875"/><stop stop-opacity="1" stop-color="rgb(91.984558%, 76.223755%, 96.128845%)" offset="0.554688"/><stop stop-opacity="1" stop-color="rgb(92.053223%, 76.426697%, 96.162415%)" offset="0.5625"/><stop stop-opacity="1" stop-color="rgb(92.120361%, 76.629639%, 96.195984%)" offset="0.570312"/><stop stop-opacity="1" stop-color="rgb(92.189026%, 76.831055%, 96.228027%)" offset="0.578125"/><stop stop-opacity="1" stop-color="rgb(92.25769%, 77.033997%, 96.261597%)" offset="0.585937"/><stop stop-opacity="1" stop-color="rgb(92.326355%, 77.236938%, 96.29364%)" offset="0.59375"/><stop stop-opacity="1" stop-color="rgb(92.39502%, 77.43988%, 96.327209%)" offset="0.601562"/><stop stop-opacity="1" stop-color="rgb(92.462158%, 77.642822%, 96.360779%)" offset="0.609375"/><stop stop-opacity="1" stop-color="rgb(92.530823%, 77.845764%, 96.392822%)" offset="0.617188"/><stop stop-opacity="1" stop-color="rgb(92.599487%, 78.048706%, 96.426392%)" offset="0.625"/><stop stop-opacity="1" stop-color="rgb(92.668152%, 78.251648%, 96.459961%)" offset="0.632812"/><stop stop-opacity="1" stop-color="rgb(92.736816%, 78.453064%, 96.492004%)" offset="0.640625"/><stop stop-opacity="1" stop-color="rgb(92.803955%, 78.656006%, 96.525574%)" offset="0.648437"/><stop stop-opacity="1" stop-color="rgb(92.87262%, 78.858948%, 96.557617%)" offset="0.65625"/><stop stop-opacity="1" stop-color="rgb(92.941284%, 79.06189%, 96.591187%)" offset="0.664062"/><stop stop-opacity="1" stop-color="rgb(93.009949%, 79.264832%, 96.624756%)" offset="0.671875"/><stop stop-opacity="1" stop-color="rgb(93.078613%, 79.467773%, 96.656799%)" offset="0.679688"/><stop stop-opacity="1" stop-color="rgb(93.145752%, 79.670715%, 96.690369%)" offset="0.6875"/><stop stop-opacity="1" stop-color="rgb(93.214417%, 79.873657%, 96.723938%)" offset="0.695312"/><stop stop-opacity="1" stop-color="rgb(93.283081%, 80.076599%, 96.755981%)" offset="0.703125"/><stop stop-opacity="1" stop-color="rgb(93.351746%, 80.278015%, 96.789551%)" offset="0.710937"/><stop stop-opacity="1" stop-color="rgb(93.418884%, 80.480957%, 96.821594%)" offset="0.71875"/><stop stop-opacity="1" stop-color="rgb(93.487549%, 80.683899%, 96.855164%)" offset="0.726562"/><stop stop-opacity="1" stop-color="rgb(93.556213%, 80.886841%, 96.888733%)" offset="0.734375"/><stop stop-opacity="1" stop-color="rgb(93.624878%, 81.089783%, 96.920776%)" offset="0.742188"/><stop stop-opacity="1" stop-color="rgb(93.693542%, 81.292725%, 96.954346%)" offset="0.75"/><stop stop-opacity="1" stop-color="rgb(93.760681%, 81.495667%, 96.987915%)" offset="0.757812"/><stop stop-opacity="1" stop-color="rgb(93.829346%, 81.698608%, 97.019958%)" offset="0.765625"/><stop stop-opacity="1" stop-color="rgb(93.89801%, 81.900024%, 97.053528%)" offset="0.773437"/><stop stop-opacity="1" stop-color="rgb(93.966675%, 82.102966%, 97.085571%)" offset="0.78125"/><stop stop-opacity="1" stop-color="rgb(94.035339%, 82.305908%, 97.119141%)" offset="0.789062"/><stop stop-opacity="1" stop-color="rgb(94.102478%, 82.50885%, 97.15271%)" offset="0.796875"/><stop stop-opacity="1" stop-color="rgb(94.171143%, 82.711792%, 97.184753%)" offset="0.804688"/><stop stop-opacity="1" stop-color="rgb(94.239807%, 82.914734%, 97.218323%)" offset="0.8125"/><stop stop-opacity="1" stop-color="rgb(94.308472%, 83.117676%, 97.251892%)" offset="0.820312"/><stop stop-opacity="1" stop-color="rgb(94.377136%, 83.320618%, 97.283936%)" offset="0.828125"/><stop stop-opacity="1" stop-color="rgb(94.444275%, 83.522034%, 97.317505%)" offset="0.835937"/><stop stop-opacity="1" stop-color="rgb(94.512939%, 83.724976%, 97.349548%)" offset="0.84375"/><stop stop-opacity="1" stop-color="rgb(94.581604%, 83.927917%, 97.383118%)" offset="0.851562"/><stop stop-opacity="1" stop-color="rgb(94.650269%, 84.130859%, 97.416687%)" offset="0.859375"/><stop stop-opacity="1" stop-color="rgb(94.718933%, 84.333801%, 97.44873%)" offset="0.867188"/><stop stop-opacity="1" stop-color="rgb(94.786072%, 84.536743%, 97.4823%)" offset="0.875"/><stop stop-opacity="1" stop-color="rgb(94.854736%, 84.739685%, 97.515869%)" offset="0.882812"/><stop stop-opacity="1" stop-color="rgb(94.923401%, 84.942627%, 97.547913%)" offset="0.890625"/><stop stop-opacity="1" stop-color="rgb(94.992065%, 85.145569%, 97.581482%)" offset="0.898438"/><stop stop-opacity="1" stop-color="rgb(95.06073%, 85.346985%, 97.615051%)" offset="0.90625"/><stop stop-opacity="1" stop-color="rgb(95.127869%, 85.549927%, 97.647095%)" offset="0.914062"/><stop stop-opacity="1" stop-color="rgb(95.196533%, 85.752869%, 97.680664%)" offset="0.921875"/><stop stop-opacity="1" stop-color="rgb(95.265198%, 85.955811%, 97.712708%)" offset="0.929688"/><stop stop-opacity="1" stop-color="rgb(95.333862%, 86.158752%, 97.746277%)" offset="0.9375"/><stop stop-opacity="1" stop-color="rgb(95.401001%, 86.361694%, 97.779846%)" offset="0.945312"/><stop stop-opacity="1" stop-color="rgb(95.469666%, 86.564636%, 97.81189%)" offset="0.953125"/><stop stop-opacity="1" stop-color="rgb(95.53833%, 86.767578%, 97.845459%)" offset="0.960937"/><stop stop-opacity="1" stop-color="rgb(95.606995%, 86.968994%, 97.879028%)" offset="0.96875"/><stop stop-opacity="1" stop-color="rgb(95.675659%, 87.171936%, 97.911072%)" offset="0.976562"/><stop stop-opacity="1" stop-color="rgb(95.742798%, 87.374878%, 97.944641%)" offset="0.984375"/><stop stop-opacity="1" stop-color="rgb(95.811462%, 87.57782%, 97.976685%)" offset="0.992188"/><stop stop-opacity="1" stop-color="rgb(95.880127%, 87.780762%, 98.010254%)" offset="0.995005"/><stop stop-opacity="1" stop-color="rgb(95.915222%, 87.882996%, 98.027039%)" offset="1"/></linearGradient><clipPath id="a1d4f929c0"><path d="M 22.03125 289 L 100.648438 289 L 100.648438 336.59375 L 22.03125 336.59375 Z M 22.03125 289 " clip-rule="nonzero"/></clipPath><clipPath id="a7bafa4db2"><path d="M 109.992188 295.429688 C 71.085938 314.488281 75.253906 328.183594 46.074219 318.65625 C 16.898438 309.128906 10.941406 303.171875 -12.28125 318.65625 C -28.234375 329.289062 -46.292969 323.910156 -56.035156 319.5 C -39.183594 367.960938 6.890625 402.75 61.09375 402.75 L 61.097656 402.75 C 120.679688 402.75 170.441406 360.714844 182.359375 304.683594 C 173.257812 298.1875 142.582031 279.46875 109.992188 295.429688 Z M 109.992188 295.429688 " clip-rule="nonzero"/></clipPath><linearGradient x1="153.100545" gradientTransform="matrix(-0.79856, 0, 0, 0.79856, 185.114478, 3.469401)" y1="345.142929" x2="152.423495" gradientUnits="userSpaceOnUse" y2="417.591808" id="1ad7ee2f68"><stop stop-opacity="1" stop-color="rgb(88.62915%, 66.268921%, 94.509888%)" offset="0"/><stop stop-opacity="1" stop-color="rgb(88.62915%, 66.268921%, 94.509888%)" offset="0.0126977"/><stop stop-opacity="1" stop-color="rgb(88.62915%, 66.268921%, 94.509888%)" offset="0.25"/><stop stop-opacity="1" stop-color="rgb(88.635254%, 66.285706%, 94.511414%)" offset="0.375"/><stop stop-opacity="1" stop-color="rgb(88.694763%, 66.462708%, 94.540405%)" offset="0.40625"/><stop stop-opacity="1" stop-color="rgb(88.801575%, 66.783142%, 94.592285%)" offset="0.4375"/><stop stop-opacity="1" stop-color="rgb(88.909912%, 67.102051%, 94.644165%)" offset="0.46875"/><stop stop-opacity="1" stop-color="rgb(89.016724%, 67.420959%, 94.696045%)" offset="0.5"/><stop stop-opacity="1" stop-color="rgb(89.125061%, 67.739868%, 94.747925%)" offset="0.53125"/><stop stop-opacity="1" stop-color="rgb(89.231873%, 68.058777%, 94.799805%)" offset="0.5625"/><stop stop-opacity="1" stop-color="rgb(89.34021%, 68.377686%, 94.85321%)" offset="0.59375"/><stop stop-opacity="1" stop-color="rgb(89.447021%, 68.696594%, 94.90509%)" offset="0.625"/><stop stop-opacity="1" stop-color="rgb(89.555359%, 69.015503%, 94.95697%)" offset="0.65625"/><stop stop-opacity="1" stop-color="rgb(89.66217%, 69.334412%, 95.00885%)" offset="0.6875"/><stop stop-opacity="1" stop-color="rgb(89.770508%, 69.65332%, 95.06073%)" offset="0.71875"/><stop stop-opacity="1" stop-color="rgb(89.877319%, 69.972229%, 95.11261%)" offset="0.75"/><stop stop-opacity="1" stop-color="rgb(89.985657%, 70.291138%, 95.16449%)" offset="0.78125"/><stop stop-opacity="1" stop-color="rgb(90.092468%, 70.610046%, 95.21637%)" offset="0.8125"/><stop stop-opacity="1" stop-color="rgb(90.200806%, 70.930481%, 95.26825%)" offset="0.84375"/><stop stop-opacity="1" stop-color="rgb(90.307617%, 71.24939%, 95.320129%)" offset="0.875"/><stop stop-opacity="1" stop-color="rgb(90.415955%, 71.568298%, 95.372009%)" offset="0.90625"/><stop stop-opacity="1" stop-color="rgb(90.522766%, 71.887207%, 95.423889%)" offset="0.9375"/><stop stop-opacity="1" stop-color="rgb(90.629578%, 72.206116%, 95.475769%)" offset="0.96875"/><stop stop-opacity="1" stop-color="rgb(90.737915%, 72.525024%, 95.527649%)" offset="0.987302"/><stop stop-opacity="1" stop-color="rgb(90.791321%, 72.685242%, 95.553589%)" offset="1"/></linearGradient><clipPath id="bc729a6d2f"><rect x="0" width="1500" y="0" height="363"/></clipPath></defs><g transform="matrix(1, 0, 0, 1, 0, 12)"><g clip-path="url(#bc729a6d2f)"><g transform="matrix(1, 0, 0, 1, 33, 152)"><g clip-path="url(#8db2ae31f0)"><g fill="#ffffff" fill-opacity="1"><g transform="translate(0.952644, 179.727611)"><g><path d="M 53.828125 -172.890625 L 53.828125 -3.71875 C 53.828125 -1.164062 52.507812 0.109375 49.875 0.109375 L 24.875 0.109375 C 22.320312 0.109375 21.046875 -1.164062 21.046875 -3.71875 L 21.046875 -172.890625 C 21.046875 -175.523438 22.320312 -176.84375 24.875 -176.84375 L 49.875 -176.84375 C 52.507812 -176.84375 53.828125 -175.523438 53.828125 -172.890625 Z M 53.828125 -172.890625 "/></g></g></g><g clip-path="url(#03ebdf0cce)"><g fill="#ffffff" fill-opacity="1"><g transform="translate(99.637582, 179.727611)"><g><path d="M 174.390625 -176.84375 C 177.023438 -176.84375 178.34375 -175.5625 178.34375 -173 L 178.34375 -3.140625 C 178.34375 -1.429688 177.894531 -0.09375 177 0.875 C 176.113281 1.84375 175.050781 2.328125 173.8125 2.328125 L 173.578125 2.328125 C 172.109375 2.328125 170.867188 1.898438 169.859375 1.046875 C 168.847656 0.191406 167.6875 -0.773438 166.375 -1.859375 L 53.953125 -108.59375 L 53.953125 -3.71875 C 53.953125 -1.164062 52.671875 0.109375 50.109375 0.109375 L 25 0.109375 C 22.363281 0.109375 21.046875 -1.164062 21.046875 -3.71875 L 21.046875 -173.8125 C 21.046875 -175.289062 21.453125 -176.515625 22.265625 -177.484375 C 23.078125 -178.453125 24.101562 -178.9375 25.34375 -178.9375 L 25.8125 -178.9375 C 27.050781 -178.9375 28.132812 -178.507812 29.0625 -177.65625 C 30 -176.800781 31.085938 -175.832031 32.328125 -174.75 L 145.5625 -67.546875 L 145.5625 -173 C 145.5625 -175.5625 146.84375 -176.84375 149.40625 -176.84375 Z M 174.390625 -176.84375 "/></g></g></g></g><g clip-path="url(#8991e452a3)"><g fill="#ffffff" fill-opacity="1"><g transform="translate(322.839971, 179.727611)"><g><path d="M 174.390625 -176.84375 C 177.023438 -176.84375 178.34375 -175.5625 178.34375 -173 L 178.34375 -3.140625 C 178.34375 -1.429688 177.894531 -0.09375 177 0.875 C 176.113281 1.84375 175.050781 2.328125 173.8125 2.328125 L 173.578125 2.328125 C 172.109375 2.328125 170.867188 1.898438 169.859375 1.046875 C 168.847656 0.191406 167.6875 -0.773438 166.375 -1.859375 L 53.953125 -108.59375 L 53.953125 -3.71875 C 53.953125 -1.164062 52.671875 0.109375 50.109375 0.109375 L 25 0.109375 C 22.363281 0.109375 21.046875 -1.164062 21.046875 -3.71875 L 21.046875 -173.8125 C 21.046875 -175.289062 21.453125 -176.515625 22.265625 -177.484375 C 23.078125 -178.453125 24.101562 -178.9375 25.34375 -178.9375 L 25.8125 -178.9375 C 27.050781 -178.9375 28.132812 -178.507812 29.0625 -177.65625 C 30 -176.800781 31.085938 -175.832031 32.328125 -174.75 L 145.5625 -67.546875 L 145.5625 -173 C 145.5625 -175.5625 146.84375 -176.84375 149.40625 -176.84375 Z M 174.390625 -176.84375 "/></g></g></g></g><g clip-path="url(#68e3235fae)"><g fill="#ffffff" fill-opacity="1"><g transform="translate(546.042391, 179.727611)"><g><path d="M 10.46875 -88.015625 C 10.46875 -98.242188 11.976562 -107.945312 15 -117.125 C 18.019531 -126.3125 22.320312 -134.679688 27.90625 -142.234375 C 33.488281 -149.796875 40.078125 -156.347656 47.671875 -161.890625 C 55.265625 -167.441406 63.671875 -171.726562 72.890625 -174.75 C 82.117188 -177.769531 91.847656 -179.28125 102.078125 -179.28125 C 112.304688 -179.28125 122.03125 -177.769531 131.25 -174.75 C 140.476562 -171.726562 148.890625 -167.441406 156.484375 -161.890625 C 164.085938 -156.347656 170.675781 -149.796875 176.25 -142.234375 C 181.832031 -134.679688 186.132812 -126.3125 189.15625 -117.125 C 192.1875 -107.945312 193.703125 -98.242188 193.703125 -88.015625 C 193.703125 -77.785156 192.1875 -68.097656 189.15625 -58.953125 C 186.132812 -49.804688 181.832031 -41.472656 176.25 -33.953125 C 170.675781 -26.429688 164.085938 -19.914062 156.484375 -14.40625 C 148.890625 -8.90625 140.476562 -4.660156 131.25 -1.671875 C 122.03125 1.304688 112.304688 2.796875 102.078125 2.796875 C 91.847656 2.796875 82.117188 1.304688 72.890625 -1.671875 C 63.671875 -4.660156 55.265625 -8.90625 47.671875 -14.40625 C 40.078125 -19.914062 33.488281 -26.429688 27.90625 -33.953125 C 22.320312 -41.472656 18.019531 -49.804688 15 -58.953125 C 11.976562 -68.097656 10.46875 -77.785156 10.46875 -88.015625 Z M 43.25 -88.015625 C 43.25 -79.796875 44.738281 -72.175781 47.71875 -65.15625 C 50.707031 -58.144531 54.894531 -52.003906 60.28125 -46.734375 C 65.664062 -41.460938 71.921875 -37.351562 79.046875 -34.40625 C 86.179688 -31.46875 93.859375 -30 102.078125 -30 C 110.367188 -30 118.0625 -31.46875 125.15625 -34.40625 C 132.25 -37.351562 138.488281 -41.460938 143.875 -46.734375 C 149.257812 -52.003906 153.441406 -58.144531 156.421875 -65.15625 C 159.410156 -72.175781 160.90625 -79.796875 160.90625 -88.015625 C 160.90625 -96.304688 159.394531 -104 156.375 -111.09375 C 153.351562 -118.1875 149.164062 -124.382812 143.8125 -129.6875 C 138.46875 -135 132.226562 -139.144531 125.09375 -142.125 C 117.96875 -145.113281 110.296875 -146.609375 102.078125 -146.609375 C 93.859375 -146.609375 86.179688 -145.113281 79.046875 -142.125 C 71.921875 -139.144531 65.679688 -135 60.328125 -129.6875 C 54.984375 -124.382812 50.800781 -118.1875 47.78125 -111.09375 C 44.757812 -104 43.25 -96.304688 43.25 -88.015625 Z M 43.25 -88.015625 "/></g></g></g></g><g fill="#ffffff" fill-opacity="1"><g transform="translate(765.640426, 179.727611)"><g><path d="M 168.234375 -176.609375 C 170.171875 -176.609375 171.46875 -176.0625 172.125 -174.96875 C 172.789062 -173.882812 172.734375 -172.492188 171.953125 -170.796875 L 96.15625 -2.796875 C 94.445312 0.847656 92.160156 2.671875 89.296875 2.671875 L 88.828125 2.671875 C 85.722656 2.671875 83.394531 0.847656 81.84375 -2.796875 L 6.15625 -170.671875 C 5.382812 -172.453125 5.363281 -173.882812 6.09375 -174.96875 C 6.832031 -176.0625 8.171875 -176.609375 10.109375 -176.609375 L 34.875 -176.609375 C 36.425781 -176.609375 37.707031 -176.179688 38.71875 -175.328125 C 39.726562 -174.472656 40.503906 -173.425781 41.046875 -172.1875 L 89.171875 -60.6875 L 137.1875 -172.1875 C 137.8125 -173.5 138.625 -174.5625 139.625 -175.375 C 140.632812 -176.195312 141.800781 -176.609375 143.125 -176.609375 Z M 168.234375 -176.609375 "/></g></g></g><g clip-path="url(#11c36d5cb0)"><g fill="#ffffff" fill-opacity="1"><g transform="translate(941.639539, 179.727611)"><g><path d="M 171.03125 -5.703125 C 171.800781 -3.992188 171.835938 -2.578125 171.140625 -1.453125 C 170.441406 -0.328125 169.125 0.234375 167.1875 0.234375 L 142.1875 0.234375 C 140.875 0.234375 139.691406 -0.207031 138.640625 -1.09375 C 137.597656 -1.988281 136.804688 -3.054688 136.265625 -4.296875 L 129.171875 -21.515625 L 48.015625 -21.515625 L 40.921875 -4.421875 C 40.378906 -3.179688 39.601562 -2.113281 38.59375 -1.21875 C 37.59375 -0.332031 36.351562 0.109375 34.875 0.109375 L 10 0.109375 C 8.0625 0.109375 6.722656 -0.429688 5.984375 -1.515625 C 5.253906 -2.597656 5.273438 -4.03125 6.046875 -5.8125 L 81.265625 -174.390625 C 81.890625 -175.785156 82.800781 -176.890625 84 -177.703125 C 85.195312 -178.523438 86.414062 -178.9375 87.65625 -178.9375 L 89.171875 -178.9375 C 90.566406 -178.9375 91.828125 -178.507812 92.953125 -177.65625 C 94.078125 -176.800781 94.945312 -175.675781 95.5625 -174.28125 Z M 59.53125 -49.640625 L 117.546875 -49.640625 L 88.59375 -119.984375 Z M 59.53125 -49.640625 "/></g></g></g></g><g fill="#ffffff" fill-opacity="1"><g transform="translate(1120.777775, 179.727611)"><g><path d="M 6.859375 -153.125 L 6.859375 -171.484375 C 6.859375 -174.898438 8.5625 -176.609375 11.96875 -176.609375 L 133 -176.609375 C 134.550781 -176.609375 135.769531 -176.140625 136.65625 -175.203125 C 137.550781 -174.273438 138 -173.035156 138 -171.484375 L 138 -153.125 C 138 -149.632812 136.332031 -147.890625 133 -147.890625 L 88.703125 -147.890625 L 88.703125 -5 C 88.703125 -1.59375 86.960938 0.109375 83.484375 0.109375 L 61.03125 0.109375 C 57.625 0.109375 55.921875 -1.59375 55.921875 -5 L 55.921875 -147.890625 L 11.96875 -147.890625 C 10.425781 -147.890625 9.1875 -148.332031 8.25 -149.21875 C 7.320312 -150.113281 6.859375 -151.414062 6.859375 -153.125 Z M 6.859375 -153.125 "/></g></g></g><g fill="#ffffff" fill-opacity="1"><g transform="translate(1289.452904, 179.727611)"><g><path d="M 148.9375 -31.15625 C 151.101562 -31.15625 152.828125 -30.570312 154.109375 -29.40625 C 155.390625 -28.25 156.03125 -26.660156 156.03125 -24.640625 L 156.03125 -5.109375 C 156.03125 -3.566406 155.546875 -2.328125 154.578125 -1.390625 C 153.609375 -0.460938 152.304688 0 150.671875 0 L 26.28125 0 C 22.789062 0 21.046875 -1.703125 21.046875 -5.109375 L 21.046875 -171.375 C 21.046875 -174.863281 22.789062 -176.609375 26.28125 -176.609375 L 148.234375 -176.609375 C 149.941406 -176.609375 151.257812 -176.140625 152.1875 -175.203125 C 153.113281 -174.273438 153.578125 -173.035156 153.578125 -171.484375 L 153.578125 -150.796875 C 153.578125 -147.234375 151.796875 -145.453125 148.234375 -145.453125 L 53.953125 -145.453125 L 53.953125 -96.734375 L 127.78125 -96.734375 C 129.71875 -96.734375 131.226562 -96.265625 132.3125 -95.328125 C 133.394531 -94.398438 133.9375 -93.046875 133.9375 -91.265625 L 133.9375 -71.84375 C 133.9375 -70.300781 133.394531 -69.046875 132.3125 -68.078125 C 131.226562 -67.109375 129.71875 -66.625 127.78125 -66.625 L 53.953125 -66.625 L 53.953125 -31.15625 Z M 148.9375 -31.15625 "/></g></g></g></g></g><g transform="matrix(1, 0, 0, 1, 178, 0)"><g clip-path="url(#f5a22b356c)"><g fill="#ffffff" fill-opacity="1"><g transform="translate(6.270997, 80.236938)"><g><path d="M 67.5625 -38.015625 C 68.644531 -38.015625 69.1875 -37.457031 69.1875 -36.34375 L 69.1875 -8.265625 C 69.1875 -7.835938 69.078125 -7.394531 68.859375 -6.9375 C 68.648438 -6.476562 68.363281 -6.113281 68 -5.84375 C 66.5625 -4.863281 64.882812 -3.945312 62.96875 -3.09375 C 61.050781 -2.238281 58.992188 -1.492188 56.796875 -0.859375 C 54.597656 -0.222656 52.367188 0.273438 50.109375 0.640625 C 47.847656 1.003906 45.664062 1.1875 43.5625 1.1875 C 39.207031 1.1875 35.0625 0.554688 31.125 -0.703125 C 27.1875 -1.972656 23.585938 -3.769531 20.328125 -6.09375 C 17.066406 -8.425781 14.25 -11.1875 11.875 -14.375 C 9.5 -17.570312 7.660156 -21.101562 6.359375 -24.96875 C 5.066406 -28.84375 4.421875 -32.960938 4.421875 -37.328125 C 4.421875 -41.648438 5.066406 -45.753906 6.359375 -49.640625 C 7.660156 -53.523438 9.5 -57.054688 11.875 -60.234375 C 14.25 -63.410156 17.054688 -66.171875 20.296875 -68.515625 C 23.546875 -70.859375 27.140625 -72.660156 31.078125 -73.921875 C 35.015625 -75.191406 39.160156 -75.828125 43.515625 -75.828125 C 46.035156 -75.828125 48.679688 -75.546875 51.453125 -74.984375 C 54.222656 -74.429688 56.910156 -73.585938 59.515625 -72.453125 C 62.128906 -71.316406 64.453125 -69.898438 66.484375 -68.203125 C 66.941406 -67.804688 67.21875 -67.320312 67.3125 -66.75 C 67.414062 -66.175781 67.300781 -65.660156 66.96875 -65.203125 L 61.5625 -56.984375 C 61.195312 -56.460938 60.726562 -56.175781 60.15625 -56.125 C 59.582031 -56.082031 59.050781 -56.269531 58.5625 -56.6875 C 57.082031 -57.96875 55.472656 -59 53.734375 -59.78125 C 52.003906 -60.570312 50.257812 -61.144531 48.5 -61.5 C 46.75 -61.863281 45.101562 -62.046875 43.5625 -62.046875 C 40.019531 -62.046875 36.722656 -61.414062 33.671875 -60.15625 C 30.628906 -58.894531 27.957031 -57.140625 25.65625 -54.890625 C 23.363281 -52.648438 21.570312 -50.03125 20.28125 -47.03125 C 18.988281 -44.03125 18.34375 -40.796875 18.34375 -37.328125 C 18.34375 -33.816406 18.960938 -30.535156 20.203125 -27.484375 C 21.453125 -24.429688 23.195312 -21.75 25.4375 -19.4375 C 27.6875 -17.132812 30.351562 -15.328125 33.4375 -14.015625 C 36.519531 -12.703125 39.894531 -12.046875 43.5625 -12.046875 C 44.84375 -12.046875 46.253906 -12.207031 47.796875 -12.53125 C 49.335938 -12.863281 50.835938 -13.316406 52.296875 -13.890625 C 53.753906 -14.460938 54.972656 -15.09375 55.953125 -15.78125 L 55.953125 -26.40625 L 43.21875 -26.40625 C 42.164062 -26.40625 41.640625 -26.945312 41.640625 -28.03125 L 41.640625 -36.34375 C 41.640625 -37.457031 42.164062 -38.015625 43.21875 -38.015625 Z M 67.5625 -38.015625 "/></g></g></g><g fill="#ffffff" fill-opacity="1"><g transform="translate(162.51598, 80.236938)"><g><path d="M 22.765625 -73.125 L 22.765625 -1.578125 C 22.765625 -0.492188 22.207031 0.046875 21.09375 0.046875 L 10.515625 0.046875 C 9.441406 0.046875 8.90625 -0.492188 8.90625 -1.578125 L 8.90625 -73.125 C 8.90625 -74.238281 9.441406 -74.796875 10.515625 -74.796875 L 21.09375 -74.796875 C 22.207031 -74.796875 22.765625 -74.238281 22.765625 -73.125 Z M 22.765625 -73.125 "/></g></g></g><g fill="#ffffff" fill-opacity="1"><g transform="translate(274.773095, 80.236938)"><g><path d="M 55.8125 -22.078125 L 65.84375 -2.5 C 66.195312 -1.78125 66.242188 -1.175781 65.984375 -0.6875 C 65.722656 -0.195312 65.203125 0.046875 64.421875 0.046875 L 53.59375 0.046875 C 53.132812 0.046875 52.664062 -0.125 52.1875 -0.46875 C 51.71875 -0.8125 51.351562 -1.242188 51.09375 -1.765625 L 43.375 -17.609375 C 42.550781 -17.472656 41.710938 -17.378906 40.859375 -17.328125 C 40.003906 -17.285156 39.132812 -17.265625 38.25 -17.265625 L 22.8125 -17.265625 L 22.8125 -2.109375 C 22.8125 -1.453125 22.597656 -0.925781 22.171875 -0.53125 C 21.742188 -0.144531 21.203125 0.046875 20.546875 0.046875 L 11.109375 0.046875 C 10.484375 0.046875 9.957031 -0.144531 9.53125 -0.53125 C 9.113281 -0.925781 8.90625 -1.453125 8.90625 -2.109375 L 8.90625 -72.578125 C 8.90625 -73.203125 9.113281 -73.707031 9.53125 -74.09375 C 9.957031 -74.488281 10.484375 -74.6875 11.109375 -74.6875 L 13.578125 -74.6875 C 15.015625 -74.6875 16.429688 -74.6875 17.828125 -74.6875 C 19.222656 -74.6875 20.210938 -74.6875 20.796875 -74.6875 L 38.25 -74.6875 C 42.644531 -74.6875 46.675781 -73.972656 50.34375 -72.546875 C 54.019531 -71.117188 57.207031 -69.109375 59.90625 -66.515625 C 62.613281 -63.929688 64.710938 -60.867188 66.203125 -57.328125 C 67.703125 -53.785156 68.453125 -49.921875 68.453125 -45.734375 C 68.453125 -40.648438 67.316406 -36.066406 65.046875 -31.984375 C 62.785156 -27.898438 59.707031 -24.597656 55.8125 -22.078125 Z M 37.375 -28.859375 C 40.71875 -28.859375 43.679688 -29.578125 46.265625 -31.015625 C 48.859375 -32.460938 50.890625 -34.460938 52.359375 -37.015625 C 53.835938 -39.578125 54.578125 -42.515625 54.578125 -45.828125 C 54.578125 -48.253906 54.140625 -50.484375 53.265625 -52.515625 C 52.398438 -54.546875 51.195312 -56.316406 49.65625 -57.828125 C 48.125 -59.335938 46.304688 -60.5 44.203125 -61.3125 C 42.109375 -62.132812 39.832031 -62.546875 37.375 -62.546875 L 22.8125 -62.546875 L 22.8125 -28.859375 Z M 37.375 -28.859375 "/></g></g></g><g fill="#ffffff" fill-opacity="1"><g transform="translate(429.936813, 80.236938)"><g><path d="M 56.546875 -12.1875 C 57.628906 -12.1875 58.171875 -11.628906 58.171875 -10.515625 L 58.171875 -1.671875 C 58.171875 -0.554688 57.628906 0 56.546875 0 L 10.578125 0 C 9.460938 0 8.90625 -0.554688 8.90625 -1.671875 L 8.90625 -73.125 C 8.90625 -74.238281 9.460938 -74.796875 10.578125 -74.796875 L 21.1875 -74.796875 C 22.269531 -74.796875 22.8125 -74.238281 22.8125 -73.125 L 22.8125 -12.1875 Z M 56.546875 -12.1875 "/></g></g></g><g fill="#ffffff" fill-opacity="1"><g transform="translate(570.601738, 80.236938)"><g><path d="M 33.734375 1.1875 C 30.910156 1.1875 28.101562 0.878906 25.3125 0.265625 C 22.53125 -0.335938 19.882812 -1.195312 17.375 -2.3125 C 14.875 -3.425781 12.597656 -4.742188 10.546875 -6.265625 C 8.492188 -7.796875 6.796875 -9.476562 5.453125 -11.3125 C 5.097656 -11.769531 4.953125 -12.285156 5.015625 -12.859375 C 5.078125 -13.429688 5.375 -13.976562 5.90625 -14.5 L 12.296875 -20.890625 C 12.753906 -21.316406 13.269531 -21.488281 13.84375 -21.40625 C 14.414062 -21.332031 15 -21.015625 15.59375 -20.453125 C 17.0625 -18.878906 18.765625 -17.460938 20.703125 -16.203125 C 22.640625 -14.941406 24.6875 -13.941406 26.84375 -13.203125 C 29.007812 -12.460938 31.125 -12.09375 33.1875 -12.09375 C 37.382812 -12.09375 40.597656 -12.910156 42.828125 -14.546875 C 45.054688 -16.191406 46.171875 -18.457031 46.171875 -21.34375 C 46.171875 -23.113281 45.554688 -24.628906 44.328125 -25.890625 C 43.097656 -27.148438 41.316406 -28.300781 38.984375 -29.34375 C 36.660156 -30.394531 33.8125 -31.5 30.4375 -32.65625 C 26.894531 -33.800781 23.742188 -35.035156 20.984375 -36.359375 C 18.234375 -37.691406 15.890625 -39.207031 13.953125 -40.90625 C 12.023438 -42.613281 10.5625 -44.597656 9.5625 -46.859375 C 8.5625 -49.117188 8.0625 -51.757812 8.0625 -54.78125 C 8.0625 -59.007812 9.101562 -62.695312 11.1875 -65.84375 C 13.269531 -68.988281 16.21875 -71.4375 20.03125 -73.1875 C 23.851562 -74.945312 28.367188 -75.828125 33.578125 -75.828125 C 36.398438 -75.828125 39.160156 -75.472656 41.859375 -74.765625 C 44.566406 -74.054688 47.039062 -73.070312 49.28125 -71.8125 C 51.53125 -70.550781 53.378906 -69.066406 54.828125 -67.359375 C 55.347656 -66.804688 55.613281 -66.203125 55.625 -65.546875 C 55.644531 -64.890625 55.425781 -64.28125 54.96875 -63.71875 L 49.8125 -57.828125 C 49.125 -57.003906 48.4375 -56.632812 47.75 -56.71875 C 47.0625 -56.800781 46.320312 -57.101562 45.53125 -57.625 C 43.863281 -59.195312 41.890625 -60.414062 39.609375 -61.28125 C 37.328125 -62.15625 35.101562 -62.59375 32.9375 -62.59375 C 29.363281 -62.59375 26.59375 -61.847656 24.625 -60.359375 C 22.664062 -58.867188 21.6875 -56.957031 21.6875 -54.625 C 21.6875 -52.757812 22.390625 -51.160156 23.796875 -49.828125 C 25.203125 -48.503906 27.101562 -47.316406 29.5 -46.265625 C 31.894531 -45.222656 34.550781 -44.207031 37.46875 -43.21875 C 40.488281 -42.238281 43.375 -41.171875 46.125 -40.015625 C 48.875 -38.867188 51.332031 -37.492188 53.5 -35.890625 C 55.664062 -34.285156 57.378906 -32.316406 58.640625 -29.984375 C 59.898438 -27.660156 60.53125 -24.84375 60.53125 -21.53125 C 60.53125 -18.0625 59.875 -14.925781 58.5625 -12.125 C 57.25 -9.320312 55.40625 -6.925781 53.03125 -4.9375 C 50.65625 -2.957031 47.828125 -1.441406 44.546875 -0.390625 C 41.265625 0.660156 37.660156 1.1875 33.734375 1.1875 Z M 33.734375 1.1875 "/></g></g></g><g fill="#ffffff" fill-opacity="1"><g transform="translate(716.427248, 80.236938)"><g/></g></g><g fill="#ffffff" fill-opacity="1"><g transform="translate(828.684363, 80.236938)"><g><path d="M 107.25 -74.6875 C 108.0625 -74.6875 108.609375 -74.457031 108.890625 -74 C 109.171875 -73.539062 109.144531 -72.953125 108.8125 -72.234375 L 76.75 -1.1875 C 76.03125 0.351562 75.066406 1.125 73.859375 1.125 L 73.65625 1.125 C 72.414062 1.125 71.429688 0.351562 70.703125 -1.1875 L 55.515625 -34.125 L 40.671875 -1.1875 C 39.941406 0.351562 38.972656 1.125 37.765625 1.125 L 37.5625 1.125 C 36.25 1.125 35.265625 0.351562 34.609375 -1.1875 L 2.609375 -72.1875 C 2.273438 -72.9375 2.265625 -73.539062 2.578125 -74 C 2.890625 -74.457031 3.457031 -74.6875 4.28125 -74.6875 L 14.75 -74.6875 C 15.40625 -74.6875 15.945312 -74.503906 16.375 -74.140625 C 16.800781 -73.785156 17.128906 -73.347656 17.359375 -72.828125 L 37.71875 -25.671875 L 58.015625 -72.828125 C 58.285156 -73.378906 58.628906 -73.828125 59.046875 -74.171875 C 59.472656 -74.515625 59.96875 -74.6875 60.53125 -74.6875 L 71.15625 -74.6875 C 71.96875 -74.6875 72.515625 -74.457031 72.796875 -74 C 73.078125 -73.539062 73.050781 -72.953125 72.71875 -72.234375 L 62.796875 -50.25 L 73.75 -23.84375 L 94.109375 -72.828125 C 94.335938 -73.378906 94.671875 -73.828125 95.109375 -74.171875 C 95.554688 -74.515625 96.0625 -74.6875 96.625 -74.6875 Z M 107.25 -74.6875 "/></g></g></g><g fill="#ffffff" fill-opacity="1"><g transform="translate(1020.660271, 80.236938)"><g><path d="M 72.1875 -74.796875 C 73.300781 -74.796875 73.859375 -74.238281 73.859375 -73.125 L 73.859375 -1.578125 C 73.859375 -0.492188 73.300781 0.046875 72.1875 0.046875 L 61.5625 0.046875 C 60.507812 0.046875 59.984375 -0.492188 59.984375 -1.578125 L 59.984375 -23.75 L 22.8125 -23.75 L 22.8125 -1.578125 C 22.8125 -0.492188 22.269531 0.046875 21.1875 0.046875 L 10.578125 0.046875 C 9.460938 0.046875 8.90625 -0.492188 8.90625 -1.578125 L 8.90625 -73.125 C 8.90625 -74.238281 9.460938 -74.796875 10.578125 -74.796875 L 21.1875 -74.796875 C 22.269531 -74.796875 22.8125 -74.238281 22.8125 -73.125 L 22.8125 -35.9375 L 59.984375 -35.9375 L 59.984375 -73.125 C 59.984375 -74.238281 60.507812 -74.796875 61.5625 -74.796875 Z M 72.1875 -74.796875 "/></g></g></g><g fill="#ffffff" fill-opacity="1"><g transform="translate(1183.982632, 80.236938)"><g><path d="M 4.421875 -37.21875 C 4.421875 -41.550781 5.0625 -45.65625 6.34375 -49.53125 C 7.625 -53.414062 9.441406 -56.957031 11.796875 -60.15625 C 14.160156 -63.351562 16.945312 -66.125 20.15625 -68.46875 C 23.375 -70.8125 26.929688 -72.625 30.828125 -73.90625 C 34.734375 -75.1875 38.847656 -75.828125 43.171875 -75.828125 C 47.492188 -75.828125 51.601562 -75.1875 55.5 -73.90625 C 59.40625 -72.625 62.960938 -70.8125 66.171875 -68.46875 C 69.390625 -66.125 72.175781 -63.351562 74.53125 -60.15625 C 76.894531 -56.957031 78.71875 -53.414062 80 -49.53125 C 81.28125 -45.65625 81.921875 -41.550781 81.921875 -37.21875 C 81.921875 -32.894531 81.28125 -28.796875 80 -24.921875 C 78.71875 -21.054688 76.894531 -17.535156 74.53125 -14.359375 C 72.175781 -11.179688 69.390625 -8.425781 66.171875 -6.09375 C 62.960938 -3.769531 59.40625 -1.972656 55.5 -0.703125 C 51.601562 0.554688 47.492188 1.1875 43.171875 1.1875 C 38.847656 1.1875 34.734375 0.554688 30.828125 -0.703125 C 26.929688 -1.972656 23.375 -3.769531 20.15625 -6.09375 C 16.945312 -8.425781 14.160156 -11.179688 11.796875 -14.359375 C 9.441406 -17.535156 7.625 -21.054688 6.34375 -24.921875 C 5.0625 -28.796875 4.421875 -32.894531 4.421875 -37.21875 Z M 18.296875 -37.21875 C 18.296875 -33.75 18.925781 -30.53125 20.1875 -27.5625 C 21.445312 -24.59375 23.210938 -21.992188 25.484375 -19.765625 C 27.765625 -17.535156 30.410156 -15.796875 33.421875 -14.546875 C 36.441406 -13.304688 39.691406 -12.6875 43.171875 -12.6875 C 46.679688 -12.6875 49.9375 -13.304688 52.9375 -14.546875 C 55.9375 -15.796875 58.570312 -17.535156 60.84375 -19.765625 C 63.125 -21.992188 64.894531 -24.59375 66.15625 -27.5625 C 67.414062 -30.53125 68.046875 -33.75 68.046875 -37.21875 C 68.046875 -40.726562 67.40625 -43.984375 66.125 -46.984375 C 64.851562 -49.984375 63.085938 -52.601562 60.828125 -54.84375 C 58.566406 -57.09375 55.925781 -58.847656 52.90625 -60.109375 C 49.894531 -61.367188 46.648438 -62 43.171875 -62 C 39.691406 -62 36.441406 -61.367188 33.421875 -60.109375 C 30.410156 -58.847656 27.773438 -57.09375 25.515625 -54.84375 C 23.253906 -52.601562 21.484375 -49.984375 20.203125 -46.984375 C 18.929688 -43.984375 18.296875 -40.726562 18.296875 -37.21875 Z M 18.296875 -37.21875 "/></g></g></g></g></g><g clip-path="url(#578f7fca2e)"><g clip-path="url(#f9cc6c2b4f)"><path fill="url(#c25bb845be)" d="M 22.03125 85.363281 L 22.03125 336.59375 L 100.648438 336.59375 L 100.648438 85.363281 Z M 22.03125 85.363281 " fill-rule="nonzero"/></g></g><g clip-path="url(#1c422e0292)"><g clip-path="url(#9e353f5a20)"><path fill="url(#701404f030)" d="M 94.691406 3.46875 L 27.25 3.46875 L 27.25 70.90625 L 94.691406 70.90625 Z M 94.691406 3.46875 " fill-rule="nonzero"/></g></g><g clip-path="url(#dad2c69a9d)"><g clip-path="url(#cbb1c46529)"><path fill="url(#e821bb5293)" d="M 22.03125 190.230469 L 22.03125 336.59375 L 100.648438 336.59375 L 100.648438 190.230469 Z M 22.03125 190.230469 " fill-rule="nonzero"/></g></g><g clip-path="url(#a1d4f929c0)"><g clip-path="url(#a7bafa4db2)"><path fill="url(#1ad7ee2f68)" d="M 100.648438 279.46875 L 100.648438 336.59375 L 22.03125 336.59375 L 22.03125 279.46875 Z M 100.648438 279.46875 " fill-rule="nonzero"/></g></g></g></g></svg>