<svg xmlns="http://www.w3.org/2000/svg" xmlns:xlink="http://www.w3.org/1999/xlink" width="2000" zoomAndPan="magnify" viewBox="0 0 1500 1499.999933" height="2000" preserveAspectRatio="xMidYMid meet" version="1.0"><defs><g/><clipPath id="d43636923f"><rect x="0" width="998" y="0" height="75"/></clipPath><clipPath id="8541c26a3f"><path d="M 232.601562 660 L 292.601562 660 L 292.601562 854.644531 L 232.601562 854.644531 Z M 232.601562 660 " clip-rule="nonzero"/></clipPath><clipPath id="f3d1d13563"><path d="M 358.3125 759.257812 C 358.3125 742.507812 344.734375 728.929688 327.984375 728.929688 L 313.171875 728.929688 C 302.871094 728.929688 294.523438 720.578125 294.523438 710.277344 L 294.523438 692.429688 C 294.523438 674.816406 280.242188 660.535156 262.628906 660.535156 C 245.011719 660.535156 230.734375 674.816406 230.734375 692.429688 L 230.734375 720.160156 C 230.734375 721.671875 228.671875 722.066406 228.078125 720.671875 C 228.058594 720.632812 228.042969 720.59375 228.023438 720.554688 C 223.074219 709.355469 211.871094 701.539062 198.835938 701.539062 C 181.222656 701.539062 166.941406 715.820312 166.941406 733.433594 L 166.941406 781.738281 L 167.171875 809.542969 C 167.171875 862.300781 209.941406 905.066406 262.699219 905.066406 C 315.457031 905.066406 358.222656 862.300781 358.222656 809.542969 Z M 358.3125 759.257812 " clip-rule="nonzero"/></clipPath><linearGradient x1="163.999503" gradientTransform="matrix(0.615253, 0, 0, 0.615253, 166.942836, 597.441113)" y1="100.675578" x2="149.115176" gradientUnits="userSpaceOnUse" y2="420.018381" id="461b8d24e4"><stop stop-opacity="1" stop-color="rgb(88.62915%, 66.268921%, 94.509888%)" offset="0"/><stop stop-opacity="1" stop-color="rgb(88.679504%, 66.418457%, 94.532776%)" offset="0.0142027"/><stop stop-opacity="1" stop-color="rgb(88.729858%, 66.567993%, 94.55719%)" offset="0.125"/><stop stop-opacity="1" stop-color="rgb(88.783264%, 66.726685%, 94.58313%)" offset="0.132813"/><stop stop-opacity="1" stop-color="rgb(88.891602%, 67.045593%, 94.63501%)" offset="0.140625"/><stop stop-opacity="1" stop-color="rgb(88.998413%, 67.364502%, 94.68689%)" offset="0.148438"/><stop stop-opacity="1" stop-color="rgb(89.105225%, 67.683411%, 94.73877%)" offset="0.15625"/><stop stop-opacity="1" stop-color="rgb(89.213562%, 68.002319%, 94.790649%)" offset="0.164063"/><stop stop-opacity="1" stop-color="rgb(89.320374%, 68.321228%, 94.842529%)" offset="0.171875"/><stop stop-opacity="1" stop-color="rgb(89.428711%, 68.640137%, 94.894409%)" offset="0.179688"/><stop stop-opacity="1" stop-color="rgb(89.535522%, 68.959045%, 94.946289%)" offset="0.1875"/><stop stop-opacity="1" stop-color="rgb(89.642334%, 69.276428%, 94.998169%)" offset="0.195313"/><stop stop-opacity="1" stop-color="rgb(89.750671%, 69.595337%, 95.050049%)" offset="0.203125"/><stop stop-opacity="1" stop-color="rgb(89.857483%, 69.914246%, 95.101929%)" offset="0.210938"/><stop stop-opacity="1" stop-color="rgb(89.96582%, 70.233154%, 95.153809%)" offset="0.21875"/><stop stop-opacity="1" stop-color="rgb(90.072632%, 70.552063%, 95.207214%)" offset="0.226563"/><stop stop-opacity="1" stop-color="rgb(90.180969%, 70.870972%, 95.259094%)" offset="0.234375"/><stop stop-opacity="1" stop-color="rgb(90.287781%, 71.18988%, 95.310974%)" offset="0.242188"/><stop stop-opacity="1" stop-color="rgb(90.394592%, 71.508789%, 95.362854%)" offset="0.25"/><stop stop-opacity="1" stop-color="rgb(90.50293%, 71.827698%, 95.414734%)" offset="0.257812"/><stop stop-opacity="1" stop-color="rgb(90.609741%, 72.146606%, 95.466614%)" offset="0.265625"/><stop stop-opacity="1" stop-color="rgb(90.718079%, 72.465515%, 95.518494%)" offset="0.273438"/><stop stop-opacity="1" stop-color="rgb(90.82489%, 72.782898%, 95.570374%)" offset="0.28125"/><stop stop-opacity="1" stop-color="rgb(90.933228%, 73.101807%, 95.622253%)" offset="0.289062"/><stop stop-opacity="1" stop-color="rgb(91.040039%, 73.420715%, 95.674133%)" offset="0.296875"/><stop stop-opacity="1" stop-color="rgb(91.146851%, 73.739624%, 95.726013%)" offset="0.304688"/><stop stop-opacity="1" stop-color="rgb(91.255188%, 74.058533%, 95.777893%)" offset="0.3125"/><stop stop-opacity="1" stop-color="rgb(91.362%, 74.377441%, 95.829773%)" offset="0.320313"/><stop stop-opacity="1" stop-color="rgb(91.470337%, 74.69635%, 95.881653%)" offset="0.328125"/><stop stop-opacity="1" stop-color="rgb(91.577148%, 75.015259%, 95.933533%)" offset="0.335938"/><stop stop-opacity="1" stop-color="rgb(91.685486%, 75.334167%, 95.985413%)" offset="0.34375"/><stop stop-opacity="1" stop-color="rgb(91.792297%, 75.653076%, 96.037292%)" offset="0.351562"/><stop stop-opacity="1" stop-color="rgb(91.899109%, 75.971985%, 96.089172%)" offset="0.359375"/><stop stop-opacity="1" stop-color="rgb(92.007446%, 76.290894%, 96.141052%)" offset="0.367188"/><stop stop-opacity="1" stop-color="rgb(92.114258%, 76.608276%, 96.192932%)" offset="0.375"/><stop stop-opacity="1" stop-color="rgb(92.222595%, 76.927185%, 96.244812%)" offset="0.382813"/><stop stop-opacity="1" stop-color="rgb(92.329407%, 77.246094%, 96.296692%)" offset="0.390625"/><stop stop-opacity="1" stop-color="rgb(92.436218%, 77.565002%, 96.348572%)" offset="0.398438"/><stop stop-opacity="1" stop-color="rgb(92.544556%, 77.883911%, 96.400452%)" offset="0.40625"/><stop stop-opacity="1" stop-color="rgb(92.651367%, 78.20282%, 96.452332%)" offset="0.414062"/><stop stop-opacity="1" stop-color="rgb(92.759705%, 78.521729%, 96.504211%)" offset="0.421875"/><stop stop-opacity="1" stop-color="rgb(92.866516%, 78.840637%, 96.556091%)" offset="0.429688"/><stop stop-opacity="1" stop-color="rgb(92.974854%, 79.159546%, 96.607971%)" offset="0.4375"/><stop stop-opacity="1" stop-color="rgb(93.081665%, 79.478455%, 96.659851%)" offset="0.445313"/><stop stop-opacity="1" stop-color="rgb(93.188477%, 79.797363%, 96.711731%)" offset="0.453125"/><stop stop-opacity="1" stop-color="rgb(93.296814%, 80.116272%, 96.763611%)" offset="0.460938"/><stop stop-opacity="1" stop-color="rgb(93.403625%, 80.433655%, 96.815491%)" offset="0.46875"/><stop stop-opacity="1" stop-color="rgb(93.511963%, 80.752563%, 96.867371%)" offset="0.476563"/><stop stop-opacity="1" stop-color="rgb(93.618774%, 81.071472%, 96.91925%)" offset="0.484375"/><stop stop-opacity="1" stop-color="rgb(93.727112%, 81.390381%, 96.97113%)" offset="0.492188"/><stop stop-opacity="1" stop-color="rgb(93.833923%, 81.70929%, 97.02301%)" offset="0.5"/><stop stop-opacity="1" stop-color="rgb(93.940735%, 82.028198%, 97.07489%)" offset="0.507812"/><stop stop-opacity="1" stop-color="rgb(94.049072%, 82.347107%, 97.12677%)" offset="0.515625"/><stop stop-opacity="1" stop-color="rgb(94.155884%, 82.666016%, 97.17865%)" offset="0.523438"/><stop stop-opacity="1" stop-color="rgb(94.264221%, 82.984924%, 97.23053%)" offset="0.53125"/><stop stop-opacity="1" stop-color="rgb(94.371033%, 83.303833%, 97.28241%)" offset="0.539062"/><stop stop-opacity="1" stop-color="rgb(94.47937%, 83.622742%, 97.33429%)" offset="0.546875"/><stop stop-opacity="1" stop-color="rgb(94.586182%, 83.94165%, 97.386169%)" offset="0.554688"/><stop stop-opacity="1" stop-color="rgb(94.692993%, 84.259033%, 97.438049%)" offset="0.5625"/><stop stop-opacity="1" stop-color="rgb(94.801331%, 84.577942%, 97.489929%)" offset="0.570312"/><stop stop-opacity="1" stop-color="rgb(94.908142%, 84.896851%, 97.541809%)" offset="0.578125"/><stop stop-opacity="1" stop-color="rgb(95.016479%, 85.215759%, 97.593689%)" offset="0.585938"/><stop stop-opacity="1" stop-color="rgb(95.123291%, 85.534668%, 97.645569%)" offset="0.59375"/><stop stop-opacity="1" stop-color="rgb(95.230103%, 85.853577%, 97.697449%)" offset="0.601563"/><stop stop-opacity="1" stop-color="rgb(95.33844%, 86.172485%, 97.749329%)" offset="0.609375"/><stop stop-opacity="1" stop-color="rgb(95.445251%, 86.491394%, 97.801208%)" offset="0.617188"/><stop stop-opacity="1" stop-color="rgb(95.553589%, 86.810303%, 97.853088%)" offset="0.625"/><stop stop-opacity="1" stop-color="rgb(95.6604%, 87.129211%, 97.904968%)" offset="0.632812"/><stop stop-opacity="1" stop-color="rgb(95.768738%, 87.44812%, 97.956848%)" offset="0.640625"/><stop stop-opacity="1" stop-color="rgb(95.875549%, 87.765503%, 98.008728%)" offset="0.648438"/><stop stop-opacity="1" stop-color="rgb(95.982361%, 88.084412%, 98.060608%)" offset="0.65625"/><stop stop-opacity="1" stop-color="rgb(96.090698%, 88.40332%, 98.112488%)" offset="0.664062"/><stop stop-opacity="1" stop-color="rgb(96.19751%, 88.722229%, 98.164368%)" offset="0.671875"/><stop stop-opacity="1" stop-color="rgb(96.305847%, 89.041138%, 98.216248%)" offset="0.679688"/><stop stop-opacity="1" stop-color="rgb(96.412659%, 89.360046%, 98.268127%)" offset="0.6875"/><stop stop-opacity="1" stop-color="rgb(96.520996%, 89.678955%, 98.320007%)" offset="0.695313"/><stop stop-opacity="1" stop-color="rgb(96.627808%, 89.997864%, 98.371887%)" offset="0.703125"/><stop stop-opacity="1" stop-color="rgb(96.734619%, 90.316772%, 98.423767%)" offset="0.710938"/><stop stop-opacity="1" stop-color="rgb(96.842957%, 90.635681%, 98.475647%)" offset="0.71875"/><stop stop-opacity="1" stop-color="rgb(96.949768%, 90.95459%, 98.527527%)" offset="0.726563"/><stop stop-opacity="1" stop-color="rgb(97.058105%, 91.273499%, 98.579407%)" offset="0.734375"/><stop stop-opacity="1" stop-color="rgb(97.164917%, 91.590881%, 98.631287%)" offset="0.742188"/><stop stop-opacity="1" stop-color="rgb(97.271729%, 91.90979%, 98.683167%)" offset="0.75"/><stop stop-opacity="1" stop-color="rgb(97.380066%, 92.228699%, 98.735046%)" offset="0.757812"/><stop stop-opacity="1" stop-color="rgb(97.486877%, 92.547607%, 98.786926%)" offset="0.765625"/><stop stop-opacity="1" stop-color="rgb(97.595215%, 92.866516%, 98.838806%)" offset="0.773438"/><stop stop-opacity="1" stop-color="rgb(97.702026%, 93.185425%, 98.890686%)" offset="0.78125"/><stop stop-opacity="1" stop-color="rgb(97.810364%, 93.504333%, 98.942566%)" offset="0.789063"/><stop stop-opacity="1" stop-color="rgb(97.917175%, 93.823242%, 98.994446%)" offset="0.796875"/><stop stop-opacity="1" stop-color="rgb(98.023987%, 94.142151%, 99.046326%)" offset="0.804688"/><stop stop-opacity="1" stop-color="rgb(98.132324%, 94.46106%, 99.098206%)" offset="0.8125"/><stop stop-opacity="1" stop-color="rgb(98.239136%, 94.779968%, 99.150085%)" offset="0.820313"/><stop stop-opacity="1" stop-color="rgb(98.347473%, 95.098877%, 99.201965%)" offset="0.828125"/><stop stop-opacity="1" stop-color="rgb(98.454285%, 95.41626%, 99.253845%)" offset="0.835938"/><stop stop-opacity="1" stop-color="rgb(98.562622%, 95.735168%, 99.305725%)" offset="0.84375"/><stop stop-opacity="1" stop-color="rgb(98.669434%, 96.054077%, 99.357605%)" offset="0.851562"/><stop stop-opacity="1" stop-color="rgb(98.776245%, 96.372986%, 99.409485%)" offset="0.859375"/><stop stop-opacity="1" stop-color="rgb(98.884583%, 96.691895%, 99.461365%)" offset="0.867187"/><stop stop-opacity="1" stop-color="rgb(98.991394%, 97.010803%, 99.513245%)" offset="0.875"/><stop stop-opacity="1" stop-color="rgb(99.099731%, 97.329712%, 99.565125%)" offset="0.882812"/><stop stop-opacity="1" stop-color="rgb(99.206543%, 97.648621%, 99.617004%)" offset="0.890625"/><stop stop-opacity="1" stop-color="rgb(99.31488%, 97.967529%, 99.668884%)" offset="0.898438"/><stop stop-opacity="1" stop-color="rgb(99.421692%, 98.286438%, 99.720764%)" offset="0.90625"/><stop stop-opacity="1" stop-color="rgb(99.528503%, 98.605347%, 99.772644%)" offset="0.914062"/><stop stop-opacity="1" stop-color="rgb(99.636841%, 98.922729%, 99.824524%)" offset="0.921875"/><stop stop-opacity="1" stop-color="rgb(99.743652%, 99.241638%, 99.876404%)" offset="0.929688"/><stop stop-opacity="1" stop-color="rgb(99.85199%, 99.560547%, 99.928284%)" offset="0.9375"/><stop stop-opacity="1" stop-color="rgb(99.952698%, 99.859619%, 99.977112%)" offset="0.985797"/><stop stop-opacity="1" stop-color="rgb(100%, 100%, 100%)" offset="1"/></linearGradient><clipPath id="55128eaf6d"><path d="M 236 597.394531 L 289 597.394531 L 289 650 L 236 650 Z M 236 597.394531 " clip-rule="nonzero"/></clipPath><clipPath id="3addce256d"><path d="M 288.582031 623.421875 C 288.582031 624.269531 288.539062 625.121094 288.457031 625.964844 C 288.371094 626.8125 288.25 627.652344 288.082031 628.488281 C 287.917969 629.324219 287.710938 630.148438 287.460938 630.960938 C 287.214844 631.777344 286.929688 632.574219 286.605469 633.363281 C 286.277344 634.148438 285.914062 634.917969 285.515625 635.667969 C 285.113281 636.417969 284.675781 637.144531 284.203125 637.851562 C 283.730469 638.5625 283.222656 639.242188 282.683594 639.902344 C 282.144531 640.558594 281.574219 641.1875 280.972656 641.789062 C 280.371094 642.390625 279.742188 642.960938 279.082031 643.503906 C 278.425781 644.042969 277.742188 644.546875 277.035156 645.019531 C 276.328125 645.492188 275.597656 645.929688 274.847656 646.332031 C 274.097656 646.734375 273.332031 647.097656 272.542969 647.421875 C 271.757812 647.746094 270.957031 648.035156 270.144531 648.28125 C 269.328125 648.527344 268.503906 648.734375 267.671875 648.898438 C 266.835938 649.066406 265.996094 649.191406 265.148438 649.273438 C 264.300781 649.359375 263.453125 649.398438 262.601562 649.398438 C 261.75 649.398438 260.902344 649.359375 260.054688 649.273438 C 259.210938 649.191406 258.367188 649.066406 257.535156 648.898438 C 256.699219 648.734375 255.875 648.527344 255.0625 648.28125 C 254.246094 648.035156 253.445312 647.746094 252.660156 647.421875 C 251.875 647.097656 251.105469 646.734375 250.355469 646.332031 C 249.605469 645.929688 248.875 645.492188 248.167969 645.019531 C 247.460938 644.546875 246.777344 644.042969 246.121094 643.503906 C 245.464844 642.960938 244.835938 642.390625 244.230469 641.789062 C 243.628906 641.1875 243.058594 640.558594 242.519531 639.902344 C 241.980469 639.242188 241.472656 638.5625 241 637.851562 C 240.527344 637.144531 240.09375 636.417969 239.691406 635.667969 C 239.289062 634.917969 238.925781 634.148438 238.601562 633.363281 C 238.273438 632.574219 237.988281 631.777344 237.742188 630.960938 C 237.496094 630.148438 237.289062 629.324219 237.121094 628.488281 C 236.957031 627.652344 236.832031 626.8125 236.75 625.964844 C 236.664062 625.121094 236.625 624.269531 236.625 623.421875 C 236.625 622.570312 236.664062 621.71875 236.75 620.875 C 236.832031 620.027344 236.957031 619.1875 237.121094 618.351562 C 237.289062 617.515625 237.496094 616.691406 237.742188 615.878906 C 237.988281 615.066406 238.273438 614.265625 238.601562 613.476562 C 238.925781 612.691406 239.289062 611.925781 239.691406 611.171875 C 240.09375 610.421875 240.527344 609.695312 241 608.988281 C 241.472656 608.28125 241.980469 607.597656 242.519531 606.9375 C 243.058594 606.28125 243.628906 605.652344 244.230469 605.050781 C 244.835938 604.449219 245.464844 603.878906 246.121094 603.339844 C 246.777344 602.796875 247.460938 602.292969 248.167969 601.820312 C 248.875 601.347656 249.605469 600.910156 250.355469 600.507812 C 251.105469 600.109375 251.875 599.746094 252.660156 599.417969 C 253.445312 599.09375 254.246094 598.808594 255.0625 598.558594 C 255.875 598.3125 256.699219 598.105469 257.535156 597.941406 C 258.367188 597.773438 259.210938 597.648438 260.054688 597.566406 C 260.902344 597.484375 261.75 597.441406 262.601562 597.441406 C 263.453125 597.441406 264.300781 597.484375 265.148438 597.566406 C 265.996094 597.648438 266.835938 597.773438 267.671875 597.941406 C 268.503906 598.105469 269.328125 598.3125 270.144531 598.558594 C 270.957031 598.808594 271.757812 599.09375 272.542969 599.417969 C 273.332031 599.746094 274.097656 600.109375 274.847656 600.507812 C 275.597656 600.910156 276.328125 601.347656 277.035156 601.820312 C 277.742188 602.292969 278.425781 602.796875 279.082031 603.339844 C 279.742188 603.878906 280.371094 604.449219 280.972656 605.050781 C 281.574219 605.652344 282.144531 606.28125 282.683594 606.9375 C 283.222656 607.597656 283.730469 608.28125 284.203125 608.988281 C 284.675781 609.695312 285.113281 610.421875 285.515625 611.171875 C 285.914062 611.925781 286.277344 612.691406 286.605469 613.476562 C 286.929688 614.265625 287.214844 615.066406 287.460938 615.878906 C 287.710938 616.691406 287.917969 617.515625 288.082031 618.351562 C 288.25 619.1875 288.371094 620.027344 288.457031 620.875 C 288.539062 621.71875 288.582031 622.570312 288.582031 623.421875 Z M 288.582031 623.421875 " clip-rule="nonzero"/></clipPath><linearGradient x1="54.091923" gradientTransform="matrix(0, 0.615253, -0.615253, 0, 324.996449, 564.160845)" y1="101.411003" x2="138.541915" gradientUnits="userSpaceOnUse" y2="101.411003" id="20e0f778c2"><stop stop-opacity="1" stop-color="rgb(88.62915%, 66.268921%, 94.509888%)" offset="0"/><stop stop-opacity="1" stop-color="rgb(88.62915%, 66.268921%, 94.509888%)" offset="0.25"/><stop stop-opacity="1" stop-color="rgb(88.671875%, 66.395569%, 94.529724%)" offset="0.28125"/><stop stop-opacity="1" stop-color="rgb(88.75885%, 66.653442%, 94.572449%)" offset="0.289063"/><stop stop-opacity="1" stop-color="rgb(88.847351%, 66.917419%, 94.615173%)" offset="0.296875"/><stop stop-opacity="1" stop-color="rgb(88.935852%, 67.181396%, 94.657898%)" offset="0.304688"/><stop stop-opacity="1" stop-color="rgb(89.025879%, 67.443848%, 94.700623%)" offset="0.3125"/><stop stop-opacity="1" stop-color="rgb(89.11438%, 67.707825%, 94.743347%)" offset="0.320312"/><stop stop-opacity="1" stop-color="rgb(89.202881%, 67.971802%, 94.786072%)" offset="0.328125"/><stop stop-opacity="1" stop-color="rgb(89.291382%, 68.234253%, 94.828796%)" offset="0.335938"/><stop stop-opacity="1" stop-color="rgb(89.381409%, 68.49823%, 94.871521%)" offset="0.34375"/><stop stop-opacity="1" stop-color="rgb(89.46991%, 68.762207%, 94.914246%)" offset="0.351562"/><stop stop-opacity="1" stop-color="rgb(89.558411%, 69.026184%, 94.958496%)" offset="0.359375"/><stop stop-opacity="1" stop-color="rgb(89.646912%, 69.288635%, 95.001221%)" offset="0.367188"/><stop stop-opacity="1" stop-color="rgb(89.735413%, 69.552612%, 95.043945%)" offset="0.375"/><stop stop-opacity="1" stop-color="rgb(89.825439%, 69.816589%, 95.08667%)" offset="0.382812"/><stop stop-opacity="1" stop-color="rgb(89.91394%, 70.079041%, 95.129395%)" offset="0.390625"/><stop stop-opacity="1" stop-color="rgb(90.002441%, 70.343018%, 95.172119%)" offset="0.398438"/><stop stop-opacity="1" stop-color="rgb(90.090942%, 70.606995%, 95.214844%)" offset="0.40625"/><stop stop-opacity="1" stop-color="rgb(90.179443%, 70.869446%, 95.257568%)" offset="0.414062"/><stop stop-opacity="1" stop-color="rgb(90.26947%, 71.133423%, 95.300293%)" offset="0.421875"/><stop stop-opacity="1" stop-color="rgb(90.357971%, 71.3974%, 95.344543%)" offset="0.429688"/><stop stop-opacity="1" stop-color="rgb(90.446472%, 71.661377%, 95.387268%)" offset="0.4375"/><stop stop-opacity="1" stop-color="rgb(90.534973%, 71.923828%, 95.429993%)" offset="0.445312"/><stop stop-opacity="1" stop-color="rgb(90.625%, 72.187805%, 95.472717%)" offset="0.453125"/><stop stop-opacity="1" stop-color="rgb(90.713501%, 72.451782%, 95.515442%)" offset="0.460938"/><stop stop-opacity="1" stop-color="rgb(90.802002%, 72.714233%, 95.558167%)" offset="0.46875"/><stop stop-opacity="1" stop-color="rgb(90.890503%, 72.97821%, 95.600891%)" offset="0.476563"/><stop stop-opacity="1" stop-color="rgb(90.979004%, 73.242188%, 95.643616%)" offset="0.484375"/><stop stop-opacity="1" stop-color="rgb(91.069031%, 73.504639%, 95.68634%)" offset="0.492188"/><stop stop-opacity="1" stop-color="rgb(91.157532%, 73.768616%, 95.730591%)" offset="0.5"/><stop stop-opacity="1" stop-color="rgb(91.246033%, 74.032593%, 95.773315%)" offset="0.507813"/><stop stop-opacity="1" stop-color="rgb(91.334534%, 74.295044%, 95.81604%)" offset="0.515625"/><stop stop-opacity="1" stop-color="rgb(91.423035%, 74.559021%, 95.858765%)" offset="0.523438"/><stop stop-opacity="1" stop-color="rgb(91.513062%, 74.822998%, 95.901489%)" offset="0.53125"/><stop stop-opacity="1" stop-color="rgb(91.601562%, 75.086975%, 95.944214%)" offset="0.539062"/><stop stop-opacity="1" stop-color="rgb(91.690063%, 75.349426%, 95.986938%)" offset="0.546875"/><stop stop-opacity="1" stop-color="rgb(91.778564%, 75.613403%, 96.029663%)" offset="0.554688"/><stop stop-opacity="1" stop-color="rgb(91.868591%, 75.87738%, 96.072388%)" offset="0.5625"/><stop stop-opacity="1" stop-color="rgb(91.957092%, 76.139832%, 96.116638%)" offset="0.570312"/><stop stop-opacity="1" stop-color="rgb(92.045593%, 76.403809%, 96.159363%)" offset="0.578125"/><stop stop-opacity="1" stop-color="rgb(92.134094%, 76.667786%, 96.202087%)" offset="0.585937"/><stop stop-opacity="1" stop-color="rgb(92.222595%, 76.930237%, 96.244812%)" offset="0.59375"/><stop stop-opacity="1" stop-color="rgb(92.312622%, 77.194214%, 96.287537%)" offset="0.601563"/><stop stop-opacity="1" stop-color="rgb(92.401123%, 77.458191%, 96.330261%)" offset="0.609375"/><stop stop-opacity="1" stop-color="rgb(92.489624%, 77.720642%, 96.372986%)" offset="0.617188"/><stop stop-opacity="1" stop-color="rgb(92.578125%, 77.984619%, 96.41571%)" offset="0.625"/><stop stop-opacity="1" stop-color="rgb(92.666626%, 78.248596%, 96.458435%)" offset="0.632813"/><stop stop-opacity="1" stop-color="rgb(92.756653%, 78.512573%, 96.50116%)" offset="0.640625"/><stop stop-opacity="1" stop-color="rgb(92.845154%, 78.775024%, 96.54541%)" offset="0.648438"/><stop stop-opacity="1" stop-color="rgb(92.933655%, 79.039001%, 96.588135%)" offset="0.65625"/><stop stop-opacity="1" stop-color="rgb(93.022156%, 79.302979%, 96.630859%)" offset="0.664062"/><stop stop-opacity="1" stop-color="rgb(93.112183%, 79.56543%, 96.673584%)" offset="0.671875"/><stop stop-opacity="1" stop-color="rgb(93.200684%, 79.829407%, 96.716309%)" offset="0.679688"/><stop stop-opacity="1" stop-color="rgb(93.289185%, 80.093384%, 96.759033%)" offset="0.6875"/><stop stop-opacity="1" stop-color="rgb(93.377686%, 80.355835%, 96.801758%)" offset="0.695312"/><stop stop-opacity="1" stop-color="rgb(93.466187%, 80.619812%, 96.844482%)" offset="0.703125"/><stop stop-opacity="1" stop-color="rgb(93.556213%, 80.883789%, 96.887207%)" offset="0.710938"/><stop stop-opacity="1" stop-color="rgb(93.644714%, 81.147766%, 96.931458%)" offset="0.71875"/><stop stop-opacity="1" stop-color="rgb(93.733215%, 81.410217%, 96.974182%)" offset="0.726563"/><stop stop-opacity="1" stop-color="rgb(93.821716%, 81.674194%, 97.016907%)" offset="0.734375"/><stop stop-opacity="1" stop-color="rgb(93.910217%, 81.938171%, 97.059631%)" offset="0.742188"/><stop stop-opacity="1" stop-color="rgb(94.000244%, 82.200623%, 97.102356%)" offset="0.75"/><stop stop-opacity="1" stop-color="rgb(94.088745%, 82.4646%, 97.145081%)" offset="0.757812"/><stop stop-opacity="1" stop-color="rgb(94.177246%, 82.728577%, 97.187805%)" offset="0.765625"/><stop stop-opacity="1" stop-color="rgb(94.265747%, 82.991028%, 97.23053%)" offset="0.773438"/><stop stop-opacity="1" stop-color="rgb(94.355774%, 83.255005%, 97.273254%)" offset="0.78125"/><stop stop-opacity="1" stop-color="rgb(94.444275%, 83.518982%, 97.317505%)" offset="0.789062"/><stop stop-opacity="1" stop-color="rgb(94.532776%, 83.781433%, 97.360229%)" offset="0.796875"/><stop stop-opacity="1" stop-color="rgb(94.621277%, 84.04541%, 97.402954%)" offset="0.804688"/><stop stop-opacity="1" stop-color="rgb(94.709778%, 84.309387%, 97.445679%)" offset="0.8125"/><stop stop-opacity="1" stop-color="rgb(94.799805%, 84.573364%, 97.488403%)" offset="0.820313"/><stop stop-opacity="1" stop-color="rgb(94.888306%, 84.835815%, 97.531128%)" offset="0.828125"/><stop stop-opacity="1" stop-color="rgb(94.976807%, 85.099792%, 97.573853%)" offset="0.835938"/><stop stop-opacity="1" stop-color="rgb(95.065308%, 85.36377%, 97.616577%)" offset="0.84375"/><stop stop-opacity="1" stop-color="rgb(95.153809%, 85.626221%, 97.659302%)" offset="0.851563"/><stop stop-opacity="1" stop-color="rgb(95.243835%, 85.890198%, 97.703552%)" offset="0.859375"/><stop stop-opacity="1" stop-color="rgb(95.332336%, 86.154175%, 97.746277%)" offset="0.867188"/><stop stop-opacity="1" stop-color="rgb(95.420837%, 86.416626%, 97.789001%)" offset="0.875"/><stop stop-opacity="1" stop-color="rgb(95.509338%, 86.680603%, 97.831726%)" offset="0.882812"/><stop stop-opacity="1" stop-color="rgb(95.597839%, 86.94458%, 97.874451%)" offset="0.890625"/><stop stop-opacity="1" stop-color="rgb(95.687866%, 87.208557%, 97.917175%)" offset="0.898438"/><stop stop-opacity="1" stop-color="rgb(95.776367%, 87.471008%, 97.9599%)" offset="0.90625"/><stop stop-opacity="1" stop-color="rgb(95.864868%, 87.734985%, 98.002625%)" offset="0.914062"/><stop stop-opacity="1" stop-color="rgb(95.953369%, 87.998962%, 98.045349%)" offset="0.921875"/><stop stop-opacity="1" stop-color="rgb(96.043396%, 88.261414%, 98.088074%)" offset="0.929687"/><stop stop-opacity="1" stop-color="rgb(96.131897%, 88.525391%, 98.132324%)" offset="0.9375"/><stop stop-opacity="1" stop-color="rgb(96.220398%, 88.789368%, 98.175049%)" offset="0.945313"/><stop stop-opacity="1" stop-color="rgb(96.308899%, 89.051819%, 98.217773%)" offset="0.953125"/><stop stop-opacity="1" stop-color="rgb(96.3974%, 89.315796%, 98.260498%)" offset="0.960938"/><stop stop-opacity="1" stop-color="rgb(96.487427%, 89.579773%, 98.303223%)" offset="0.96875"/><stop stop-opacity="1" stop-color="rgb(96.575928%, 89.842224%, 98.345947%)" offset="0.976562"/><stop stop-opacity="1" stop-color="rgb(96.664429%, 90.106201%, 98.388672%)" offset="0.984375"/><stop stop-opacity="1" stop-color="rgb(96.75293%, 90.370178%, 98.431396%)" offset="0.992188"/><stop stop-opacity="1" stop-color="rgb(96.841431%, 90.634155%, 98.474121%)" offset="1"/></linearGradient><clipPath id="9cd6953442"><path d="M 232.601562 751 L 292.601562 751 L 292.601562 854.644531 L 232.601562 854.644531 Z M 232.601562 751 " clip-rule="nonzero"/></clipPath><clipPath id="08a7196a53"><path d="M 166.941406 764.730469 C 166.941406 764.730469 194.820312 741.332031 224.796875 756.015625 C 254.769531 770.695312 251.558594 781.25 274.039062 773.90625 C 296.523438 766.566406 301.109375 761.980469 319.003906 773.90625 C 336.894531 785.835938 358.222656 771.613281 358.222656 771.613281 L 358.222656 809.425781 C 358.222656 862.246094 315.40625 905.066406 262.582031 905.066406 C 209.761719 905.066406 166.941406 862.246094 166.941406 809.425781 Z M 166.941406 764.730469 " clip-rule="nonzero"/></clipPath><linearGradient x1="156.151742" gradientTransform="matrix(0.615253, 0, 0, 0.615253, 166.942836, 597.441113)" y1="233.424472" x2="154.422284" gradientUnits="userSpaceOnUse" y2="418.488146" id="b4055ed388"><stop stop-opacity="1" stop-color="rgb(88.62915%, 66.268921%, 94.509888%)" offset="0"/><stop stop-opacity="1" stop-color="rgb(88.62915%, 66.268921%, 94.509888%)" offset="0.0049241"/><stop stop-opacity="1" stop-color="rgb(88.62915%, 66.268921%, 94.509888%)" offset="0.125"/><stop stop-opacity="1" stop-color="rgb(88.62915%, 66.268921%, 94.509888%)" offset="0.15625"/><stop stop-opacity="1" stop-color="rgb(88.653564%, 66.340637%, 94.520569%)" offset="0.171875"/><stop stop-opacity="1" stop-color="rgb(88.711548%, 66.514587%, 94.549561%)" offset="0.179687"/><stop stop-opacity="1" stop-color="rgb(88.780212%, 66.717529%, 94.581604%)" offset="0.1875"/><stop stop-opacity="1" stop-color="rgb(88.848877%, 66.921997%, 94.615173%)" offset="0.195312"/><stop stop-opacity="1" stop-color="rgb(88.917542%, 67.124939%, 94.648743%)" offset="0.203125"/><stop stop-opacity="1" stop-color="rgb(88.986206%, 67.329407%, 94.682312%)" offset="0.210937"/><stop stop-opacity="1" stop-color="rgb(89.054871%, 67.532349%, 94.714355%)" offset="0.21875"/><stop stop-opacity="1" stop-color="rgb(89.123535%, 67.736816%, 94.747925%)" offset="0.226562"/><stop stop-opacity="1" stop-color="rgb(89.1922%, 67.939758%, 94.781494%)" offset="0.234375"/><stop stop-opacity="1" stop-color="rgb(89.260864%, 68.144226%, 94.813538%)" offset="0.242187"/><stop stop-opacity="1" stop-color="rgb(89.329529%, 68.347168%, 94.847107%)" offset="0.25"/><stop stop-opacity="1" stop-color="rgb(89.398193%, 68.551636%, 94.880676%)" offset="0.257812"/><stop stop-opacity="1" stop-color="rgb(89.466858%, 68.754578%, 94.914246%)" offset="0.265625"/><stop stop-opacity="1" stop-color="rgb(89.535522%, 68.959045%, 94.946289%)" offset="0.273437"/><stop stop-opacity="1" stop-color="rgb(89.604187%, 69.161987%, 94.979858%)" offset="0.28125"/><stop stop-opacity="1" stop-color="rgb(89.672852%, 69.366455%, 95.013428%)" offset="0.289062"/><stop stop-opacity="1" stop-color="rgb(89.741516%, 69.569397%, 95.046997%)" offset="0.296875"/><stop stop-opacity="1" stop-color="rgb(89.810181%, 69.773865%, 95.079041%)" offset="0.304687"/><stop stop-opacity="1" stop-color="rgb(89.878845%, 69.976807%, 95.11261%)" offset="0.3125"/><stop stop-opacity="1" stop-color="rgb(89.94751%, 70.181274%, 95.146179%)" offset="0.320312"/><stop stop-opacity="1" stop-color="rgb(90.016174%, 70.384216%, 95.178223%)" offset="0.328125"/><stop stop-opacity="1" stop-color="rgb(90.084839%, 70.588684%, 95.211792%)" offset="0.335938"/><stop stop-opacity="1" stop-color="rgb(90.153503%, 70.791626%, 95.245361%)" offset="0.34375"/><stop stop-opacity="1" stop-color="rgb(90.222168%, 70.996094%, 95.278931%)" offset="0.351562"/><stop stop-opacity="1" stop-color="rgb(90.290833%, 71.200562%, 95.310974%)" offset="0.359375"/><stop stop-opacity="1" stop-color="rgb(90.359497%, 71.403503%, 95.344543%)" offset="0.367187"/><stop stop-opacity="1" stop-color="rgb(90.428162%, 71.607971%, 95.378113%)" offset="0.375"/><stop stop-opacity="1" stop-color="rgb(90.496826%, 71.810913%, 95.411682%)" offset="0.382812"/><stop stop-opacity="1" stop-color="rgb(90.565491%, 72.015381%, 95.443726%)" offset="0.390625"/><stop stop-opacity="1" stop-color="rgb(90.634155%, 72.218323%, 95.477295%)" offset="0.398437"/><stop stop-opacity="1" stop-color="rgb(90.70282%, 72.422791%, 95.510864%)" offset="0.40625"/><stop stop-opacity="1" stop-color="rgb(90.771484%, 72.625732%, 95.544434%)" offset="0.414062"/><stop stop-opacity="1" stop-color="rgb(90.840149%, 72.8302%, 95.576477%)" offset="0.421875"/><stop stop-opacity="1" stop-color="rgb(90.908813%, 73.033142%, 95.610046%)" offset="0.429687"/><stop stop-opacity="1" stop-color="rgb(90.977478%, 73.23761%, 95.643616%)" offset="0.4375"/><stop stop-opacity="1" stop-color="rgb(91.046143%, 73.440552%, 95.675659%)" offset="0.445312"/><stop stop-opacity="1" stop-color="rgb(91.114807%, 73.64502%, 95.709229%)" offset="0.453125"/><stop stop-opacity="1" stop-color="rgb(91.183472%, 73.847961%, 95.742798%)" offset="0.460937"/><stop stop-opacity="1" stop-color="rgb(91.252136%, 74.052429%, 95.776367%)" offset="0.46875"/><stop stop-opacity="1" stop-color="rgb(91.320801%, 74.255371%, 95.808411%)" offset="0.476562"/><stop stop-opacity="1" stop-color="rgb(91.389465%, 74.459839%, 95.84198%)" offset="0.484375"/><stop stop-opacity="1" stop-color="rgb(91.45813%, 74.662781%, 95.875549%)" offset="0.492188"/><stop stop-opacity="1" stop-color="rgb(91.526794%, 74.867249%, 95.909119%)" offset="0.5"/><stop stop-opacity="1" stop-color="rgb(91.595459%, 75.07019%, 95.941162%)" offset="0.507812"/><stop stop-opacity="1" stop-color="rgb(91.664124%, 75.274658%, 95.974731%)" offset="0.515625"/><stop stop-opacity="1" stop-color="rgb(91.732788%, 75.4776%, 96.008301%)" offset="0.523437"/><stop stop-opacity="1" stop-color="rgb(91.801453%, 75.682068%, 96.04187%)" offset="0.53125"/><stop stop-opacity="1" stop-color="rgb(91.870117%, 75.88501%, 96.073914%)" offset="0.539062"/><stop stop-opacity="1" stop-color="rgb(91.938782%, 76.089478%, 96.107483%)" offset="0.546875"/><stop stop-opacity="1" stop-color="rgb(92.007446%, 76.292419%, 96.141052%)" offset="0.554688"/><stop stop-opacity="1" stop-color="rgb(92.076111%, 76.496887%, 96.173096%)" offset="0.5625"/><stop stop-opacity="1" stop-color="rgb(92.144775%, 76.699829%, 96.206665%)" offset="0.570312"/><stop stop-opacity="1" stop-color="rgb(92.21344%, 76.904297%, 96.240234%)" offset="0.578125"/><stop stop-opacity="1" stop-color="rgb(92.282104%, 77.107239%, 96.273804%)" offset="0.585937"/><stop stop-opacity="1" stop-color="rgb(92.350769%, 77.311707%, 96.305847%)" offset="0.59375"/><stop stop-opacity="1" stop-color="rgb(92.419434%, 77.514648%, 96.339417%)" offset="0.601562"/><stop stop-opacity="1" stop-color="rgb(92.488098%, 77.719116%, 96.372986%)" offset="0.609375"/><stop stop-opacity="1" stop-color="rgb(92.556763%, 77.923584%, 96.406555%)" offset="0.617187"/><stop stop-opacity="1" stop-color="rgb(92.625427%, 78.126526%, 96.438599%)" offset="0.625"/><stop stop-opacity="1" stop-color="rgb(92.694092%, 78.330994%, 96.472168%)" offset="0.632812"/><stop stop-opacity="1" stop-color="rgb(92.762756%, 78.533936%, 96.505737%)" offset="0.640625"/><stop stop-opacity="1" stop-color="rgb(92.831421%, 78.738403%, 96.537781%)" offset="0.648437"/><stop stop-opacity="1" stop-color="rgb(92.900085%, 78.941345%, 96.57135%)" offset="0.65625"/><stop stop-opacity="1" stop-color="rgb(92.96875%, 79.145813%, 96.604919%)" offset="0.664062"/><stop stop-opacity="1" stop-color="rgb(93.037415%, 79.348755%, 96.638489%)" offset="0.671875"/><stop stop-opacity="1" stop-color="rgb(93.106079%, 79.553223%, 96.670532%)" offset="0.679687"/><stop stop-opacity="1" stop-color="rgb(93.174744%, 79.756165%, 96.704102%)" offset="0.6875"/><stop stop-opacity="1" stop-color="rgb(93.243408%, 79.960632%, 96.737671%)" offset="0.695312"/><stop stop-opacity="1" stop-color="rgb(93.312073%, 80.163574%, 96.77124%)" offset="0.703125"/><stop stop-opacity="1" stop-color="rgb(93.380737%, 80.368042%, 96.803284%)" offset="0.710937"/><stop stop-opacity="1" stop-color="rgb(93.449402%, 80.570984%, 96.836853%)" offset="0.71875"/><stop stop-opacity="1" stop-color="rgb(93.518066%, 80.775452%, 96.870422%)" offset="0.726562"/><stop stop-opacity="1" stop-color="rgb(93.586731%, 80.978394%, 96.903992%)" offset="0.734375"/><stop stop-opacity="1" stop-color="rgb(93.655396%, 81.182861%, 96.936035%)" offset="0.742187"/><stop stop-opacity="1" stop-color="rgb(93.72406%, 81.385803%, 96.969604%)" offset="0.75"/><stop stop-opacity="1" stop-color="rgb(93.792725%, 81.590271%, 97.003174%)" offset="0.757812"/><stop stop-opacity="1" stop-color="rgb(93.861389%, 81.793213%, 97.035217%)" offset="0.765625"/><stop stop-opacity="1" stop-color="rgb(93.930054%, 81.997681%, 97.068787%)" offset="0.773438"/><stop stop-opacity="1" stop-color="rgb(93.998718%, 82.200623%, 97.102356%)" offset="0.78125"/><stop stop-opacity="1" stop-color="rgb(94.067383%, 82.40509%, 97.135925%)" offset="0.789062"/><stop stop-opacity="1" stop-color="rgb(94.136047%, 82.608032%, 97.167969%)" offset="0.796875"/><stop stop-opacity="1" stop-color="rgb(94.204712%, 82.8125%, 97.201538%)" offset="0.804687"/><stop stop-opacity="1" stop-color="rgb(94.273376%, 83.015442%, 97.235107%)" offset="0.8125"/><stop stop-opacity="1" stop-color="rgb(94.342041%, 83.21991%, 97.268677%)" offset="0.820312"/><stop stop-opacity="1" stop-color="rgb(94.410706%, 83.422852%, 97.30072%)" offset="0.828125"/><stop stop-opacity="1" stop-color="rgb(94.47937%, 83.627319%, 97.33429%)" offset="0.835938"/><stop stop-opacity="1" stop-color="rgb(94.548035%, 83.830261%, 97.367859%)" offset="0.84375"/><stop stop-opacity="1" stop-color="rgb(94.616699%, 84.034729%, 97.399902%)" offset="0.851562"/><stop stop-opacity="1" stop-color="rgb(94.685364%, 84.237671%, 97.433472%)" offset="0.859375"/><stop stop-opacity="1" stop-color="rgb(94.754028%, 84.442139%, 97.467041%)" offset="0.867187"/><stop stop-opacity="1" stop-color="rgb(94.822693%, 84.646606%, 97.50061%)" offset="0.875"/><stop stop-opacity="1" stop-color="rgb(94.891357%, 84.849548%, 97.532654%)" offset="0.882813"/><stop stop-opacity="1" stop-color="rgb(94.960022%, 85.054016%, 97.566223%)" offset="0.890625"/><stop stop-opacity="1" stop-color="rgb(95.028687%, 85.256958%, 97.599792%)" offset="0.898438"/><stop stop-opacity="1" stop-color="rgb(95.097351%, 85.461426%, 97.633362%)" offset="0.90625"/><stop stop-opacity="1" stop-color="rgb(95.166016%, 85.664368%, 97.665405%)" offset="0.914062"/><stop stop-opacity="1" stop-color="rgb(95.23468%, 85.868835%, 97.698975%)" offset="0.921875"/><stop stop-opacity="1" stop-color="rgb(95.303345%, 86.071777%, 97.732544%)" offset="0.929688"/><stop stop-opacity="1" stop-color="rgb(95.372009%, 86.276245%, 97.766113%)" offset="0.9375"/><stop stop-opacity="1" stop-color="rgb(95.440674%, 86.479187%, 97.798157%)" offset="0.945312"/><stop stop-opacity="1" stop-color="rgb(95.509338%, 86.683655%, 97.831726%)" offset="0.953125"/><stop stop-opacity="1" stop-color="rgb(95.578003%, 86.886597%, 97.865295%)" offset="0.960938"/><stop stop-opacity="1" stop-color="rgb(95.646667%, 87.091064%, 97.897339%)" offset="0.96875"/><stop stop-opacity="1" stop-color="rgb(95.715332%, 87.294006%, 97.930908%)" offset="0.976562"/><stop stop-opacity="1" stop-color="rgb(95.783997%, 87.498474%, 97.964478%)" offset="0.984375"/><stop stop-opacity="1" stop-color="rgb(95.852661%, 87.701416%, 97.998047%)" offset="0.992187"/><stop stop-opacity="1" stop-color="rgb(95.921326%, 87.905884%, 98.03009%)" offset="0.995076"/><stop stop-opacity="1" stop-color="rgb(95.956421%, 88.008118%, 98.046875%)" offset="1"/></linearGradient><clipPath id="d7bae4bbbf"><path d="M 232.601562 817 L 292.601562 817 L 292.601562 854.644531 L 232.601562 854.644531 Z M 232.601562 817 " clip-rule="nonzero"/></clipPath><clipPath id="cecdc079be"><path d="M 300.371094 822.382812 C 270.398438 837.066406 273.609375 847.617188 251.125 840.277344 C 228.644531 832.9375 224.058594 828.347656 206.164062 840.277344 C 193.875 848.472656 179.960938 844.324219 172.457031 840.925781 C 185.441406 878.265625 220.9375 905.066406 262.699219 905.066406 C 308.605469 905.066406 346.945312 872.683594 356.128906 829.511719 C 349.113281 824.507812 325.480469 810.085938 300.371094 822.382812 Z M 300.371094 822.382812 " clip-rule="nonzero"/></clipPath><linearGradient x1="153.100545" gradientTransform="matrix(-0.615253, 0, 0, 0.615253, 358.249647, 597.441113)" y1="345.142858" x2="152.415292" gradientUnits="userSpaceOnUse" y2="418.469577" id="a7302799a0"><stop stop-opacity="1" stop-color="rgb(88.62915%, 66.268921%, 94.509888%)" offset="0"/><stop stop-opacity="1" stop-color="rgb(88.62915%, 66.268921%, 94.509888%)" offset="0.0124276"/><stop stop-opacity="1" stop-color="rgb(88.62915%, 66.268921%, 94.509888%)" offset="0.25"/><stop stop-opacity="1" stop-color="rgb(88.642883%, 66.31012%, 94.515991%)" offset="0.375"/><stop stop-opacity="1" stop-color="rgb(88.710022%, 66.511536%, 94.548035%)" offset="0.40625"/><stop stop-opacity="1" stop-color="rgb(88.819885%, 66.835022%, 94.60144%)" offset="0.4375"/><stop stop-opacity="1" stop-color="rgb(88.928223%, 67.158508%, 94.65332%)" offset="0.46875"/><stop stop-opacity="1" stop-color="rgb(89.03656%, 67.480469%, 94.706726%)" offset="0.5"/><stop stop-opacity="1" stop-color="rgb(89.146423%, 67.803955%, 94.758606%)" offset="0.53125"/><stop stop-opacity="1" stop-color="rgb(89.254761%, 68.125916%, 94.812012%)" offset="0.5625"/><stop stop-opacity="1" stop-color="rgb(89.363098%, 68.449402%, 94.863892%)" offset="0.59375"/><stop stop-opacity="1" stop-color="rgb(89.472961%, 68.772888%, 94.915771%)" offset="0.625"/><stop stop-opacity="1" stop-color="rgb(89.581299%, 69.094849%, 94.969177%)" offset="0.65625"/><stop stop-opacity="1" stop-color="rgb(89.689636%, 69.418335%, 95.021057%)" offset="0.6875"/><stop stop-opacity="1" stop-color="rgb(89.7995%, 69.740295%, 95.074463%)" offset="0.71875"/><stop stop-opacity="1" stop-color="rgb(89.907837%, 70.063782%, 95.126343%)" offset="0.75"/><stop stop-opacity="1" stop-color="rgb(90.016174%, 70.387268%, 95.179749%)" offset="0.78125"/><stop stop-opacity="1" stop-color="rgb(90.126038%, 70.709229%, 95.231628%)" offset="0.8125"/><stop stop-opacity="1" stop-color="rgb(90.234375%, 71.032715%, 95.283508%)" offset="0.84375"/><stop stop-opacity="1" stop-color="rgb(90.342712%, 71.356201%, 95.336914%)" offset="0.875"/><stop stop-opacity="1" stop-color="rgb(90.452576%, 71.678162%, 95.388794%)" offset="0.90625"/><stop stop-opacity="1" stop-color="rgb(90.560913%, 72.001648%, 95.4422%)" offset="0.9375"/><stop stop-opacity="1" stop-color="rgb(90.66925%, 72.323608%, 95.49408%)" offset="0.96875"/><stop stop-opacity="1" stop-color="rgb(90.779114%, 72.647095%, 95.547485%)" offset="0.987572"/><stop stop-opacity="1" stop-color="rgb(90.834045%, 72.808838%, 95.573425%)" offset="1"/></linearGradient></defs><g fill="#ffffff" fill-opacity="1"><g transform="translate(251.840284, 843.744579)"><g><path d="M 39.59375 -127.15625 L 39.59375 -2.734375 C 39.59375 -0.859375 38.625 0.078125 36.6875 0.078125 L 18.296875 0.078125 C 16.421875 0.078125 15.484375 -0.859375 15.484375 -2.734375 L 15.484375 -127.15625 C 15.484375 -129.09375 16.421875 -130.0625 18.296875 -130.0625 L 36.6875 -130.0625 C 38.625 -130.0625 39.59375 -129.09375 39.59375 -127.15625 Z M 39.59375 -127.15625 "/></g></g></g><g fill="#ffffff" fill-opacity="1"><g transform="translate(324.417312, 843.744579)"><g><path d="M 128.265625 -130.0625 C 130.203125 -130.0625 131.171875 -129.117188 131.171875 -127.234375 L 131.171875 -2.3125 C 131.171875 -1.050781 130.84375 -0.0664062 130.1875 0.640625 C 129.53125 1.347656 128.75 1.703125 127.84375 1.703125 L 127.671875 1.703125 C 126.585938 1.703125 125.671875 1.390625 124.921875 0.765625 C 124.179688 0.140625 123.328125 -0.570312 122.359375 -1.375 L 39.671875 -79.859375 L 39.671875 -2.734375 C 39.671875 -0.859375 38.734375 0.078125 36.859375 0.078125 L 18.390625 0.078125 C 16.453125 0.078125 15.484375 -0.859375 15.484375 -2.734375 L 15.484375 -127.84375 C 15.484375 -128.925781 15.78125 -129.820312 16.375 -130.53125 C 16.96875 -131.238281 17.722656 -131.59375 18.640625 -131.59375 L 18.984375 -131.59375 C 19.890625 -131.59375 20.6875 -131.28125 21.375 -130.65625 C 22.0625 -130.03125 22.859375 -129.316406 23.765625 -128.515625 L 107.0625 -49.6875 L 107.0625 -127.234375 C 107.0625 -129.117188 108 -130.0625 109.875 -130.0625 Z M 128.265625 -130.0625 "/></g></g></g><g fill="#ffffff" fill-opacity="1"><g transform="translate(488.569678, 843.744579)"><g><path d="M 128.265625 -130.0625 C 130.203125 -130.0625 131.171875 -129.117188 131.171875 -127.234375 L 131.171875 -2.3125 C 131.171875 -1.050781 130.84375 -0.0664062 130.1875 0.640625 C 129.53125 1.347656 128.75 1.703125 127.84375 1.703125 L 127.671875 1.703125 C 126.585938 1.703125 125.671875 1.390625 124.921875 0.765625 C 124.179688 0.140625 123.328125 -0.570312 122.359375 -1.375 L 39.671875 -79.859375 L 39.671875 -2.734375 C 39.671875 -0.859375 38.734375 0.078125 36.859375 0.078125 L 18.390625 0.078125 C 16.453125 0.078125 15.484375 -0.859375 15.484375 -2.734375 L 15.484375 -127.84375 C 15.484375 -128.925781 15.78125 -129.820312 16.375 -130.53125 C 16.96875 -131.238281 17.722656 -131.59375 18.640625 -131.59375 L 18.984375 -131.59375 C 19.890625 -131.59375 20.6875 -131.28125 21.375 -130.65625 C 22.0625 -130.03125 22.859375 -129.316406 23.765625 -128.515625 L 107.0625 -49.6875 L 107.0625 -127.234375 C 107.0625 -129.117188 108 -130.0625 109.875 -130.0625 Z M 128.265625 -130.0625 "/></g></g></g><g fill="#ffffff" fill-opacity="1"><g transform="translate(652.722066, 843.744579)"><g><path d="M 7.703125 -64.734375 C 7.703125 -72.253906 8.8125 -79.390625 11.03125 -86.140625 C 13.25 -92.898438 16.410156 -99.054688 20.515625 -104.609375 C 24.617188 -110.171875 29.460938 -114.988281 35.046875 -119.0625 C 40.640625 -123.144531 46.828125 -126.296875 53.609375 -128.515625 C 60.398438 -130.742188 67.554688 -131.859375 75.078125 -131.859375 C 82.597656 -131.859375 89.75 -130.742188 96.53125 -128.515625 C 103.320312 -126.296875 109.507812 -123.144531 115.09375 -119.0625 C 120.6875 -114.988281 125.535156 -110.171875 129.640625 -104.609375 C 133.742188 -99.054688 136.90625 -92.898438 139.125 -86.140625 C 141.34375 -79.390625 142.453125 -72.253906 142.453125 -64.734375 C 142.453125 -57.203125 141.34375 -50.070312 139.125 -43.34375 C 136.90625 -36.625 133.742188 -30.5 129.640625 -24.96875 C 125.535156 -19.4375 120.6875 -14.644531 115.09375 -10.59375 C 109.507812 -6.550781 103.320312 -3.429688 96.53125 -1.234375 C 89.75 0.953125 82.597656 2.046875 75.078125 2.046875 C 67.554688 2.046875 60.398438 0.953125 53.609375 -1.234375 C 46.828125 -3.429688 40.640625 -6.550781 35.046875 -10.59375 C 29.460938 -14.644531 24.617188 -19.4375 20.515625 -24.96875 C 16.410156 -30.5 13.25 -36.625 11.03125 -43.34375 C 8.8125 -50.070312 7.703125 -57.203125 7.703125 -64.734375 Z M 31.8125 -64.734375 C 31.8125 -58.691406 32.90625 -53.085938 35.09375 -47.921875 C 37.289062 -42.765625 40.367188 -38.25 44.328125 -34.375 C 48.296875 -30.5 52.898438 -27.476562 58.140625 -25.3125 C 63.390625 -23.144531 69.035156 -22.0625 75.078125 -22.0625 C 81.179688 -22.0625 86.835938 -23.144531 92.046875 -25.3125 C 97.265625 -27.476562 101.851562 -30.5 105.8125 -34.375 C 109.78125 -38.25 112.859375 -42.765625 115.046875 -47.921875 C 117.242188 -53.085938 118.34375 -58.691406 118.34375 -64.734375 C 118.34375 -70.828125 117.226562 -76.484375 115 -81.703125 C 112.78125 -86.921875 109.703125 -91.484375 105.765625 -95.390625 C 101.835938 -99.296875 97.25 -102.34375 92 -104.53125 C 86.757812 -106.726562 81.117188 -107.828125 75.078125 -107.828125 C 69.035156 -107.828125 63.390625 -106.726562 58.140625 -104.53125 C 52.898438 -102.34375 48.3125 -99.296875 44.375 -95.390625 C 40.445312 -91.484375 37.367188 -86.921875 35.140625 -81.703125 C 32.921875 -76.484375 31.8125 -70.828125 31.8125 -64.734375 Z M 31.8125 -64.734375 "/></g></g></g><g fill="#ffffff" fill-opacity="1"><g transform="translate(814.22364, 843.744579)"><g><path d="M 123.734375 -129.890625 C 125.160156 -129.890625 126.113281 -129.488281 126.59375 -128.6875 C 127.082031 -127.894531 127.039062 -126.867188 126.46875 -125.609375 L 70.71875 -2.046875 C 69.457031 0.628906 67.773438 1.96875 65.671875 1.96875 L 65.328125 1.96875 C 63.046875 1.96875 61.335938 0.628906 60.203125 -2.046875 L 4.53125 -125.53125 C 3.957031 -126.84375 3.941406 -127.894531 4.484375 -128.6875 C 5.023438 -129.488281 6.007812 -129.890625 7.4375 -129.890625 L 25.65625 -129.890625 C 26.789062 -129.890625 27.726562 -129.578125 28.46875 -128.953125 C 29.21875 -128.328125 29.789062 -127.554688 30.1875 -126.640625 L 65.59375 -44.640625 L 100.90625 -126.640625 C 101.363281 -127.609375 101.960938 -128.390625 102.703125 -128.984375 C 103.441406 -129.585938 104.296875 -129.890625 105.265625 -129.890625 Z M 123.734375 -129.890625 "/></g></g></g><g fill="#ffffff" fill-opacity="1"><g transform="translate(943.660744, 843.744579)"><g><path d="M 125.78125 -4.1875 C 126.351562 -2.9375 126.378906 -1.894531 125.859375 -1.0625 C 125.347656 -0.238281 124.382812 0.171875 122.96875 0.171875 L 104.578125 0.171875 C 103.609375 0.171875 102.738281 -0.15625 101.96875 -0.8125 C 101.195312 -1.46875 100.613281 -2.25 100.21875 -3.15625 L 95 -15.8125 L 35.3125 -15.8125 L 30.09375 -3.25 C 29.695312 -2.332031 29.128906 -1.546875 28.390625 -0.890625 C 27.648438 -0.242188 26.738281 0.078125 25.65625 0.078125 L 7.359375 0.078125 C 5.929688 0.078125 4.945312 -0.316406 4.40625 -1.109375 C 3.863281 -1.910156 3.878906 -2.96875 4.453125 -4.28125 L 59.765625 -128.265625 C 60.222656 -129.285156 60.894531 -130.09375 61.78125 -130.6875 C 62.664062 -131.289062 63.5625 -131.59375 64.46875 -131.59375 L 65.59375 -131.59375 C 66.613281 -131.59375 67.535156 -131.28125 68.359375 -130.65625 C 69.191406 -130.03125 69.835938 -129.207031 70.296875 -128.1875 Z M 43.78125 -36.515625 L 86.453125 -36.515625 L 65.15625 -88.25 Z M 43.78125 -36.515625 "/></g></g></g><g fill="#ffffff" fill-opacity="1"><g transform="translate(1075.40649, 843.744579)"><g><path d="M 5.046875 -112.609375 L 5.046875 -126.125 C 5.046875 -128.632812 6.300781 -129.890625 8.8125 -129.890625 L 97.828125 -129.890625 C 98.960938 -129.890625 99.859375 -129.546875 100.515625 -128.859375 C 101.171875 -128.179688 101.5 -127.269531 101.5 -126.125 L 101.5 -112.609375 C 101.5 -110.046875 100.273438 -108.765625 97.828125 -108.765625 L 65.25 -108.765625 L 65.25 -3.671875 C 65.25 -1.171875 63.960938 0.078125 61.390625 0.078125 L 44.890625 0.078125 C 42.378906 0.078125 41.125 -1.171875 41.125 -3.671875 L 41.125 -108.765625 L 8.8125 -108.765625 C 7.664062 -108.765625 6.75 -109.09375 6.0625 -109.75 C 5.382812 -110.40625 5.046875 -111.359375 5.046875 -112.609375 Z M 5.046875 -112.609375 "/></g></g></g><g fill="#ffffff" fill-opacity="1"><g transform="translate(1199.45723, 843.744579)"><g><path d="M 109.53125 -22.921875 C 111.132812 -22.921875 112.40625 -22.488281 113.34375 -21.625 C 114.28125 -20.769531 114.75 -19.601562 114.75 -18.125 L 114.75 -3.765625 C 114.75 -2.617188 114.390625 -1.703125 113.671875 -1.015625 C 112.960938 -0.335938 112.015625 0 110.828125 0 L 19.328125 0 C 16.765625 0 15.484375 -1.253906 15.484375 -3.765625 L 15.484375 -126.046875 C 15.484375 -128.609375 16.765625 -129.890625 19.328125 -129.890625 L 109.03125 -129.890625 C 110.28125 -129.890625 111.242188 -129.546875 111.921875 -128.859375 C 112.609375 -128.179688 112.953125 -127.269531 112.953125 -126.125 L 112.953125 -110.90625 C 112.953125 -108.28125 111.644531 -106.96875 109.03125 -106.96875 L 39.671875 -106.96875 L 39.671875 -71.140625 L 93.96875 -71.140625 C 95.394531 -71.140625 96.507812 -70.796875 97.3125 -70.109375 C 98.113281 -69.429688 98.515625 -68.4375 98.515625 -67.125 L 98.515625 -52.84375 C 98.515625 -51.707031 98.113281 -50.78125 97.3125 -50.0625 C 96.507812 -49.351562 95.394531 -49 93.96875 -49 L 39.671875 -49 L 39.671875 -22.921875 Z M 109.53125 -22.921875 "/></g></g></g><g transform="matrix(1, 0, 0, 1, 358, 599)"><g clip-path="url(#d43636923f)"><g fill="#ffffff" fill-opacity="1"><g transform="translate(4.390701, 59.787834)"><g><path d="M 49.6875 -27.953125 C 50.476562 -27.953125 50.875 -27.539062 50.875 -26.71875 L 50.875 -6.078125 C 50.875 -5.765625 50.796875 -5.4375 50.640625 -5.09375 C 50.484375 -4.757812 50.273438 -4.492188 50.015625 -4.296875 C 48.953125 -3.578125 47.710938 -2.90625 46.296875 -2.28125 C 44.890625 -1.65625 43.378906 -1.101562 41.765625 -0.625 C 40.148438 -0.15625 38.507812 0.207031 36.84375 0.46875 C 35.1875 0.738281 33.585938 0.875 32.046875 0.875 C 28.835938 0.875 25.785156 0.410156 22.890625 -0.515625 C 19.992188 -1.453125 17.347656 -2.773438 14.953125 -4.484375 C 12.554688 -6.191406 10.484375 -8.222656 8.734375 -10.578125 C 6.984375 -12.929688 5.628906 -15.53125 4.671875 -18.375 C 3.722656 -21.21875 3.25 -24.242188 3.25 -27.453125 C 3.25 -30.628906 3.722656 -33.644531 4.671875 -36.5 C 5.628906 -39.363281 6.984375 -41.960938 8.734375 -44.296875 C 10.484375 -46.640625 12.550781 -48.671875 14.9375 -50.390625 C 17.320312 -52.117188 19.957031 -53.445312 22.84375 -54.375 C 25.738281 -55.300781 28.789062 -55.765625 32 -55.765625 C 33.863281 -55.765625 35.8125 -55.554688 37.84375 -55.140625 C 39.882812 -54.734375 41.863281 -54.113281 43.78125 -53.28125 C 45.695312 -52.445312 47.398438 -51.40625 48.890625 -50.15625 C 49.234375 -49.863281 49.4375 -49.503906 49.5 -49.078125 C 49.570312 -48.660156 49.488281 -48.285156 49.25 -47.953125 L 45.28125 -41.90625 C 45.007812 -41.519531 44.660156 -41.304688 44.234375 -41.265625 C 43.816406 -41.234375 43.429688 -41.378906 43.078125 -41.703125 C 41.984375 -42.640625 40.796875 -43.394531 39.515625 -43.96875 C 38.242188 -44.550781 36.960938 -44.972656 35.671875 -45.234375 C 34.378906 -45.503906 33.171875 -45.640625 32.046875 -45.640625 C 29.441406 -45.640625 27.015625 -45.175781 24.765625 -44.25 C 22.523438 -43.320312 20.5625 -42.03125 18.875 -40.375 C 17.1875 -38.726562 15.863281 -36.800781 14.90625 -34.59375 C 13.957031 -32.382812 13.484375 -30.003906 13.484375 -27.453125 C 13.484375 -24.867188 13.941406 -22.457031 14.859375 -20.21875 C 15.773438 -17.976562 17.054688 -16.003906 18.703125 -14.296875 C 20.359375 -12.597656 22.316406 -11.265625 24.578125 -10.296875 C 26.847656 -9.335938 29.335938 -8.859375 32.046875 -8.859375 C 32.984375 -8.859375 34.015625 -8.976562 35.140625 -9.21875 C 36.273438 -9.457031 37.378906 -9.785156 38.453125 -10.203125 C 39.523438 -10.628906 40.425781 -11.097656 41.15625 -11.609375 L 41.15625 -19.421875 L 31.78125 -19.421875 C 31.007812 -19.421875 30.625 -19.816406 30.625 -20.609375 L 30.625 -26.71875 C 30.625 -27.539062 31.007812 -27.953125 31.78125 -27.953125 Z M 49.6875 -27.953125 "/></g></g></g><g fill="#ffffff" fill-opacity="1"><g transform="translate(119.299787, 59.787834)"><g><path d="M 16.75 -53.78125 L 16.75 -1.15625 C 16.75 -0.363281 16.335938 0.03125 15.515625 0.03125 L 7.734375 0.03125 C 6.941406 0.03125 6.546875 -0.363281 6.546875 -1.15625 L 6.546875 -53.78125 C 6.546875 -54.59375 6.941406 -55 7.734375 -55 L 15.515625 -55 C 16.335938 -55 16.75 -54.59375 16.75 -53.78125 Z M 16.75 -53.78125 "/></g></g></g><g fill="#ffffff" fill-opacity="1"><g transform="translate(201.858357, 59.787834)"><g><path d="M 41.046875 -16.234375 L 48.421875 -1.84375 C 48.691406 -1.3125 48.726562 -0.863281 48.53125 -0.5 C 48.332031 -0.144531 47.945312 0.03125 47.375 0.03125 L 39.421875 0.03125 C 39.078125 0.03125 38.726562 -0.09375 38.375 -0.34375 C 38.03125 -0.59375 37.765625 -0.910156 37.578125 -1.296875 L 31.890625 -12.953125 C 31.285156 -12.847656 30.671875 -12.773438 30.046875 -12.734375 C 29.421875 -12.703125 28.785156 -12.6875 28.140625 -12.6875 L 16.78125 -12.6875 L 16.78125 -1.5625 C 16.78125 -1.070312 16.625 -0.679688 16.3125 -0.390625 C 16 -0.109375 15.597656 0.03125 15.109375 0.03125 L 8.171875 0.03125 C 7.710938 0.03125 7.328125 -0.109375 7.015625 -0.390625 C 6.703125 -0.679688 6.546875 -1.070312 6.546875 -1.5625 L 6.546875 -53.375 C 6.546875 -53.832031 6.703125 -54.207031 7.015625 -54.5 C 7.328125 -54.789062 7.710938 -54.9375 8.171875 -54.9375 L 9.984375 -54.9375 C 11.046875 -54.9375 12.085938 -54.9375 13.109375 -54.9375 C 14.128906 -54.9375 14.859375 -54.9375 15.296875 -54.9375 L 28.140625 -54.9375 C 31.367188 -54.9375 34.332031 -54.410156 37.03125 -53.359375 C 39.726562 -52.304688 42.070312 -50.828125 44.0625 -48.921875 C 46.050781 -47.023438 47.59375 -44.773438 48.6875 -42.171875 C 49.789062 -39.566406 50.34375 -36.71875 50.34375 -33.625 C 50.34375 -29.894531 49.507812 -26.523438 47.84375 -23.515625 C 46.175781 -20.515625 43.910156 -18.085938 41.046875 -16.234375 Z M 27.484375 -21.234375 C 29.941406 -21.234375 32.125 -21.757812 34.03125 -22.8125 C 35.9375 -23.875 37.429688 -25.34375 38.515625 -27.21875 C 39.597656 -29.101562 40.140625 -31.265625 40.140625 -33.703125 C 40.140625 -35.484375 39.816406 -37.117188 39.171875 -38.609375 C 38.535156 -40.109375 37.648438 -41.410156 36.515625 -42.515625 C 35.390625 -43.628906 34.054688 -44.488281 32.515625 -45.09375 C 30.972656 -45.695312 29.296875 -46 27.484375 -46 L 16.78125 -46 L 16.78125 -21.234375 Z M 27.484375 -21.234375 "/></g></g></g><g fill="#ffffff" fill-opacity="1"><g transform="translate(315.972236, 59.787834)"><g><path d="M 41.59375 -8.96875 C 42.382812 -8.96875 42.78125 -8.554688 42.78125 -7.734375 L 42.78125 -1.234375 C 42.78125 -0.410156 42.382812 0 41.59375 0 L 7.78125 0 C 6.957031 0 6.546875 -0.410156 6.546875 -1.234375 L 6.546875 -53.78125 C 6.546875 -54.59375 6.957031 -55 7.78125 -55 L 15.59375 -55 C 16.382812 -55 16.78125 -54.59375 16.78125 -53.78125 L 16.78125 -8.96875 Z M 41.59375 -8.96875 "/></g></g></g><g fill="#ffffff" fill-opacity="1"><g transform="translate(419.423097, 59.787834)"><g><path d="M 24.8125 0.875 C 22.738281 0.875 20.675781 0.648438 18.625 0.203125 C 16.570312 -0.242188 14.625 -0.875 12.78125 -1.6875 C 10.9375 -2.507812 9.257812 -3.484375 7.75 -4.609375 C 6.25 -5.734375 5.003906 -6.96875 4.015625 -8.3125 C 3.742188 -8.65625 3.632812 -9.035156 3.6875 -9.453125 C 3.738281 -9.878906 3.957031 -10.285156 4.34375 -10.671875 L 9.046875 -15.375 C 9.378906 -15.6875 9.753906 -15.8125 10.171875 -15.75 C 10.597656 -15.6875 11.03125 -15.453125 11.46875 -15.046875 C 12.550781 -13.890625 13.800781 -12.847656 15.21875 -11.921875 C 16.644531 -10.992188 18.148438 -10.253906 19.734375 -9.703125 C 21.328125 -9.160156 22.882812 -8.890625 24.40625 -8.890625 C 27.5 -8.890625 29.863281 -9.492188 31.5 -10.703125 C 33.132812 -11.910156 33.953125 -13.570312 33.953125 -15.6875 C 33.953125 -16.988281 33.5 -18.101562 32.59375 -19.03125 C 31.695312 -19.96875 30.390625 -20.820312 28.671875 -21.59375 C 26.960938 -22.363281 24.867188 -23.171875 22.390625 -24.015625 C 19.785156 -24.859375 17.46875 -25.765625 15.4375 -26.734375 C 13.414062 -27.710938 11.691406 -28.828125 10.265625 -30.078125 C 8.847656 -31.335938 7.769531 -32.796875 7.03125 -34.453125 C 6.300781 -36.117188 5.9375 -38.0625 5.9375 -40.28125 C 5.9375 -43.394531 6.703125 -46.109375 8.234375 -48.421875 C 9.765625 -50.734375 11.929688 -52.535156 14.734375 -53.828125 C 17.546875 -55.117188 20.867188 -55.765625 24.703125 -55.765625 C 26.773438 -55.765625 28.804688 -55.503906 30.796875 -54.984375 C 32.785156 -54.460938 34.601562 -53.738281 36.25 -52.8125 C 37.90625 -51.882812 39.265625 -50.796875 40.328125 -49.546875 C 40.710938 -49.128906 40.910156 -48.679688 40.921875 -48.203125 C 40.929688 -47.722656 40.769531 -47.28125 40.4375 -46.875 L 36.640625 -42.53125 C 36.128906 -41.925781 35.617188 -41.65625 35.109375 -41.71875 C 34.609375 -41.78125 34.066406 -42.003906 33.484375 -42.390625 C 32.253906 -43.546875 30.800781 -44.441406 29.125 -45.078125 C 27.445312 -45.710938 25.816406 -46.03125 24.234375 -46.03125 C 21.597656 -46.03125 19.554688 -45.484375 18.109375 -44.390625 C 16.671875 -43.296875 15.953125 -41.890625 15.953125 -40.171875 C 15.953125 -38.796875 16.46875 -37.617188 17.5 -36.640625 C 18.539062 -35.671875 19.941406 -34.800781 21.703125 -34.03125 C 23.460938 -33.257812 25.414062 -32.507812 27.5625 -31.78125 C 29.78125 -31.0625 31.898438 -30.28125 33.921875 -29.4375 C 35.941406 -28.59375 37.75 -27.578125 39.34375 -26.390625 C 40.9375 -25.210938 42.195312 -23.765625 43.125 -22.046875 C 44.050781 -20.335938 44.515625 -18.269531 44.515625 -15.84375 C 44.515625 -13.28125 44.03125 -10.96875 43.0625 -8.90625 C 42.101562 -6.851562 40.75 -5.097656 39 -3.640625 C 37.25 -2.179688 35.164062 -1.0625 32.75 -0.28125 C 30.34375 0.488281 27.695312 0.875 24.8125 0.875 Z M 24.8125 0.875 "/></g></g></g><g fill="#ffffff" fill-opacity="1"><g transform="translate(526.669268, 59.787834)"><g/></g></g><g fill="#ffffff" fill-opacity="1"><g transform="translate(609.227838, 59.787834)"><g><path d="M 78.875 -54.9375 C 79.476562 -54.9375 79.878906 -54.765625 80.078125 -54.421875 C 80.285156 -54.085938 80.269531 -53.65625 80.03125 -53.125 L 56.453125 -0.875 C 55.921875 0.257812 55.207031 0.828125 54.3125 0.828125 L 54.171875 0.828125 C 53.253906 0.828125 52.53125 0.257812 52 -0.875 L 40.828125 -25.09375 L 29.90625 -0.875 C 29.375 0.257812 28.664062 0.828125 27.78125 0.828125 L 27.625 0.828125 C 26.664062 0.828125 25.941406 0.257812 25.453125 -0.875 L 1.921875 -53.09375 C 1.679688 -53.644531 1.671875 -54.085938 1.890625 -54.421875 C 2.117188 -54.765625 2.535156 -54.9375 3.140625 -54.9375 L 10.84375 -54.9375 C 11.332031 -54.9375 11.734375 -54.800781 12.046875 -54.53125 C 12.359375 -54.269531 12.597656 -53.945312 12.765625 -53.5625 L 27.734375 -18.875 L 42.671875 -53.5625 C 42.867188 -53.96875 43.125 -54.296875 43.4375 -54.546875 C 43.75 -54.804688 44.109375 -54.9375 44.515625 -54.9375 L 52.328125 -54.9375 C 52.929688 -54.9375 53.332031 -54.765625 53.53125 -54.421875 C 53.738281 -54.085938 53.722656 -53.65625 53.484375 -53.125 L 46.1875 -36.953125 L 54.25 -17.546875 L 69.21875 -53.5625 C 69.382812 -53.96875 69.628906 -54.296875 69.953125 -54.546875 C 70.285156 -54.804688 70.65625 -54.9375 71.0625 -54.9375 Z M 78.875 -54.9375 "/></g></g></g><g fill="#ffffff" fill-opacity="1"><g transform="translate(750.41494, 59.787834)"><g><path d="M 53.09375 -55 C 53.90625 -55 54.3125 -54.59375 54.3125 -53.78125 L 54.3125 -1.15625 C 54.3125 -0.363281 53.90625 0.03125 53.09375 0.03125 L 45.28125 0.03125 C 44.507812 0.03125 44.125 -0.363281 44.125 -1.15625 L 44.125 -17.46875 L 16.78125 -17.46875 L 16.78125 -1.15625 C 16.78125 -0.363281 16.382812 0.03125 15.59375 0.03125 L 7.78125 0.03125 C 6.957031 0.03125 6.546875 -0.363281 6.546875 -1.15625 L 6.546875 -53.78125 C 6.546875 -54.59375 6.957031 -55 7.78125 -55 L 15.59375 -55 C 16.382812 -55 16.78125 -54.59375 16.78125 -53.78125 L 16.78125 -26.4375 L 44.125 -26.4375 L 44.125 -53.78125 C 44.125 -54.59375 44.507812 -55 45.28125 -55 Z M 53.09375 -55 "/></g></g></g><g fill="#ffffff" fill-opacity="1"><g transform="translate(870.529025, 59.787834)"><g><path d="M 3.25 -27.375 C 3.25 -30.5625 3.71875 -33.582031 4.65625 -36.4375 C 5.601562 -39.289062 6.941406 -41.890625 8.671875 -44.234375 C 10.410156 -46.585938 12.460938 -48.625 14.828125 -50.34375 C 17.191406 -52.070312 19.804688 -53.40625 22.671875 -54.34375 C 25.546875 -55.289062 28.570312 -55.765625 31.75 -55.765625 C 34.9375 -55.765625 37.960938 -55.289062 40.828125 -54.34375 C 43.691406 -53.40625 46.304688 -52.070312 48.671875 -50.34375 C 51.035156 -48.625 53.082031 -46.585938 54.8125 -44.234375 C 56.550781 -41.890625 57.890625 -39.289062 58.828125 -36.4375 C 59.773438 -33.582031 60.25 -30.5625 60.25 -27.375 C 60.25 -24.195312 59.773438 -21.179688 58.828125 -18.328125 C 57.890625 -15.484375 56.550781 -12.890625 54.8125 -10.546875 C 53.082031 -8.210938 51.035156 -6.191406 48.671875 -4.484375 C 46.304688 -2.773438 43.691406 -1.453125 40.828125 -0.515625 C 37.960938 0.410156 34.9375 0.875 31.75 0.875 C 28.570312 0.875 25.546875 0.410156 22.671875 -0.515625 C 19.804688 -1.453125 17.191406 -2.773438 14.828125 -4.484375 C 12.460938 -6.191406 10.410156 -8.210938 8.671875 -10.546875 C 6.941406 -12.890625 5.601562 -15.484375 4.65625 -18.328125 C 3.71875 -21.179688 3.25 -24.195312 3.25 -27.375 Z M 13.453125 -27.375 C 13.453125 -24.820312 13.914062 -22.453125 14.84375 -20.265625 C 15.769531 -18.085938 17.070312 -16.175781 18.75 -14.53125 C 20.425781 -12.894531 22.375 -11.617188 24.59375 -10.703125 C 26.8125 -9.785156 29.195312 -9.328125 31.75 -9.328125 C 34.332031 -9.328125 36.722656 -9.785156 38.921875 -10.703125 C 41.128906 -11.617188 43.070312 -12.894531 44.75 -14.53125 C 46.425781 -16.175781 47.726562 -18.085938 48.65625 -20.265625 C 49.582031 -22.453125 50.046875 -24.820312 50.046875 -27.375 C 50.046875 -29.957031 49.578125 -32.347656 48.640625 -34.546875 C 47.703125 -36.753906 46.398438 -38.679688 44.734375 -40.328125 C 43.066406 -41.984375 41.125 -43.273438 38.90625 -44.203125 C 36.6875 -45.140625 34.300781 -45.609375 31.75 -45.609375 C 29.195312 -45.609375 26.8125 -45.140625 24.59375 -44.203125 C 22.375 -43.273438 20.429688 -41.984375 18.765625 -40.328125 C 17.109375 -38.679688 15.804688 -36.753906 14.859375 -34.546875 C 13.921875 -32.347656 13.453125 -29.957031 13.453125 -27.375 Z M 13.453125 -27.375 "/></g></g></g></g></g><g clip-path="url(#8541c26a3f)"><g clip-path="url(#f3d1d13563)"><path fill="url(#461b8d24e4)" d="M 232.601562 660.535156 L 232.601562 854.644531 L 292.601562 854.644531 L 292.601562 660.535156 Z M 232.601562 660.535156 " fill-rule="nonzero"/></g></g><g clip-path="url(#55128eaf6d)"><g clip-path="url(#3addce256d)"><path fill="url(#20e0f778c2)" d="M 288.582031 597.441406 L 236.625 597.441406 L 236.625 649.398438 L 288.582031 649.398438 Z M 288.582031 597.441406 " fill-rule="nonzero"/></g></g><g clip-path="url(#9cd6953442)"><g clip-path="url(#08a7196a53)"><path fill="url(#b4055ed388)" d="M 232.601562 741.332031 L 232.601562 854.644531 L 292.601562 854.644531 L 292.601562 741.332031 Z M 232.601562 741.332031 " fill-rule="nonzero"/></g></g><g clip-path="url(#d7bae4bbbf)"><g clip-path="url(#cecdc079be)"><path fill="url(#a7302799a0)" d="M 292.601562 810.085938 L 292.601562 854.644531 L 232.601562 854.644531 L 232.601562 810.085938 Z M 292.601562 810.085938 " fill-rule="nonzero"/></g></g></svg>